<svg xmlns="http://www.w3.org/2000/svg" xml:space="preserve" width="1920" height="1349" viewBox="0 0 508 356.923"><path d="M205.052 327.636c-1.032 0 18.625-5.087 21.942-4.765 11.324 1.101 50.014-26.632 62.425-41.706 4.541-5.516 12.77-12.828 19.321-17.167 15.73-10.42 51.615-18.777 51.615-14.342v77.98zm134.805-93.438c-7.037-2.337-8.586-9.872-3.092-15.043 3.858-3.632 8.431-3.736 12.257-.28 6.525 5.895-.779 18.108-9.165 15.323" style="fill:#e0f7fd" transform="translate(147.645 29.287)"/><path d="M302.624 327.636s15.173-15.89 26.458-22.669c14.709-8.836 31.273-10.188 31.273-10.188v32.857h-26.08z" style="fill:#007abb" transform="translate(147.645 29.287)"/></svg>