<svg xmlns="http://www.w3.org/2000/svg" xml:space="preserve" width="1920" height="1349" viewBox="0 0 508 356.923"><path d="M59.232 326.893s1.629-2.695 4.604-6.615c36.553-48.149 98.777-89.65 143.84-95.936 2.691-.375 6.62-.973 8.73-1.328a462 462 0 0 1 9.393-1.436c6.394-.91 20.613-3.95 23.151-4.951 2.636-1.04 9.57-4.483 13.187-6.548 3.87-2.209 8.223-8.061 11.218-15.081.807-1.892 2.092-4.75 2.855-6.35 1.296-2.721 1.88-3.81 4.972-9.26 15.396-27.144 77.858-67.136 77.858-65.943v213.448z" style="fill:#e0f7fd" transform="translate(148.96 30.03)"/><path d="M122.425 326.893s.631-2.334 1.022-3.416c2.762-7.658 18.806-25.122 31.231-33.997 22.56-16.113 45.006-25.846 70.086-30.391 9.065-1.643 12.025-1.669 18.917-.168 26.394 5.748 61.258-14.506 72.642-42.202 1.084-2.635 6.667-12.984 7.76-14.38a65 65 0 0 0 1.487-2.008c.436-.615 2.934-3.371 5.55-6.124 10.127-10.653 16.92-16.618 24.48-21.499 1.382-.892 3.44-2.423 3.44-2.069v156.254H240.824Z" style="fill:#007abb" transform="translate(148.96 30.03)"/></svg>