<svg xmlns="http://www.w3.org/2000/svg" xml:space="preserve" width="1920" height="1349" viewBox="0 0 508 356.923"><path d="M-5.689 325.119c15.143-14.316 42.424-35.045 63.897-48.55 1.965-1.235 4.882-3.075 6.483-4.089s4.69-2.896 6.867-4.183 4.834-3.035 5.905-3.886c3.462-2.751 9.611-6.146 15.67-8.651 2.11-.873 6.635-2.952 10.055-4.62 8.74-4.265 13.832-6.504 16.14-7.097 17.465-4.488 48.363-7.595 57.678-5.8 13.442 2.59 26.723-9.25 26.723-23.821 0-.418.342-1.803.76-3.08.419-1.277 1.018-3.529 1.331-5.005 1.817-8.547 7.553-22.09 13.26-31.315a327 327 0 0 0 2.13-3.485c1.706-2.86 6.724-10.124 9.293-13.452 2.76-3.575 6.208-7.91 6.733-8.463.345-.364 1.544-1.733 2.664-3.043 31.41-36.725 81.601-68.77 116.23-74.208 1.09-.171 2.91-.606 2.91-.606v255.128l-366.58-.023z" style="fill:#e0f7fd" transform="translate(148.96 30.03)"/><path d="M96.348 325.252c21.109-24.468 56.155-44.661 77.512-44.661 2.87 0 5.18-.139 6.399-.384 1.048-.21 3.097-.573 4.552-.806 31.05-4.954 59.355-25.356 65.518-47.222 1.8-6.386 14.782-23.476 25.267-33.26 22.692-21.177 48.474-31.759 73.654-30.23 5.195.315 9.79-.548 9.79-.548v158.752H94.933Z" style="fill:#007abb" transform="translate(148.96 30.03)"/></svg>