<svg xmlns="http://www.w3.org/2000/svg" xml:space="preserve" width="1920" height="1349" viewBox="0 0 508 356.923"><path d="M-98.415 315.251c5.542-7.67 15.504-17.259 26.977-25.963 9.245-7.013 18.73-13.261 30.295-19.957 29.145-16.873 61.655-29.457 82.351-31.875 2.712-.316 2.712-.316 4.606-3.131 13.59-20.19 41.06-41.827 70.074-55.196 2.11-.972 4.193-1.945 4.63-2.162 8.35-4.144 26.577-10.103 38.232-12.499 14.442-2.969 32.291-3.236 43.26-.647 9.482 2.239 21.196.062 29.986-5.572 6.082-3.899 8.926-7.44 12.294-15.31 1.51-3.528 3.3-6.805 5.962-10.912 1.283-1.98 3.753-5.47 4.026-5.688.09-.073.862-1.085 1.713-2.25 2.932-4.006 5.812-7.495 12.026-14.57 3.07-3.495 16.825-17.449 20.064-20.354 1.136-1.02 3.785-3.42 5.886-5.334 2.102-1.916 4.723-4.237 5.824-5.16 5.598-4.689 6.665-5.572 9.11-7.538 4.679-3.764 13.332-10.2 17.066-12.694.655-.437 1.964-1.326 2.91-1.974 10.2-6.993 30.163-14.561 30.163-14.561v284.989h-468.268s9.115-9.29 10.813-11.642" style="fill:#e0f7fd" transform="translate(148.96 30.03)"/><path d="M-47.885 326.893s.637-1.51 1.248-2.545c15.858-26.892 73.264-48.498 103.47-38.943 5.324 1.684 13.351.505 23.203-3.409 12.486-4.96 26.814-16.478 29.116-23.404 9.672-29.109 52.589-48.724 75.89-34.685 5.947 3.582 9.506 4.288 25.17 4.996 29.176 1.317 75.745-38.715 93.105-80.038.511-1.216 1.334-2.823 1.83-3.571a71 71 0 0 0 1.798-2.907c1.137-1.958 2.307-3.33 4.042-4.745.754-.614 2.632-2.546 4.172-4.292 5.324-6.034 14.115-14.288 21.03-19.745 5.719-4.512 17.04-11.126 20.999-12.266.363-.105 1.852-.37 1.852-.37v225.924z" style="fill:#007abb" transform="translate(148.96 30.03)"/></svg>