<svg xmlns="http://www.w3.org/2000/svg" xml:space="preserve" width="1920" height="1349" viewBox="0 0 508 356.923"><path d="M-148.96 326.893v-53.324s2.012 1.22 2.808 1.382c16.542 3.366 32.531-4.82 43.898-21.612 1.133-1.674 2.935-4.174 4.006-5.557 1.07-1.382 4.273-5.55 7.116-9.26 6.345-8.282 8.985-10.565 23.399-20.239 31.362-21.047 70.11-38.786 116.945-53.537 35.676-11.236 72.197-17.365 100.654-16.892 8.639.143 9.747.112 12.17-.345 1.467-.277 4.149-.754 5.96-1.06 5.407-.915 17.085-7.294 27.056-14.78 5.14-3.858 8.259-8.209 13.403-18.692 31.42-64.031 87.316-126.364 127.682-142.384 1.56-.618 3.629-.623 3.629-.623h19.274v356.923Z" style="fill:#e0f7fd" transform="translate(148.96 30.03)"/><path d="M-17.588 326.893s1.686-1.318 3.108-2.07c22-11.647 41.358-31.44 46.755-47.81 5.936-18.002 30.395-39.551 56.757-50.004 22.95-9.1 48.534-10.684 59.002-3.651 14.045 9.435 50.01-.155 72.823-19.418 3.125-2.638 13.673-16.394 17.897-23.34 1.452-2.388 4.435-6.877 6.628-9.975s5.119-7.269 6.501-9.27c22.604-32.727 59.948-59.966 97.102-70.83 4.207-1.23 10.055-2.551 10.055-2.551v238.919z" style="fill:#007abb" transform="translate(148.96 30.03)"/></svg>