<svg xmlns="http://www.w3.org/2000/svg" xml:space="preserve" width="1920" height="1349" viewBox="0 0 508 356.923"><path d="M-148.96 326.893V203.369s2.312-.25 3.303-.386c15.8-2.177 32.855-9.257 50.672-21.036 7.199-4.76 8.633-6.218 10.19-10.365.3-.8 1.245-2.646 2.1-4.1 24.04-40.935 71.192-73.235 120.743-75.69 4.26-.212 17.176.552 23.387 1.356 5.947.77 13.074 2.27 17.94 2.914 25.203 3.335 52.106-13.864 60.457-38.647.54-1.601 1.791-4.697 2.781-6.88s2.455-5.42 3.256-7.194c1.944-4.31 5.32-9.41 11.266-17.015 16.555-21.176 39.836-41.424 63.387-55.13.781-.454 3.801-1.226 3.801-1.226H359.04v356.923Z" style="fill:#e0f7fd" transform="translate(148.96 30.03)"/><path d="M-148.96 258.934c.838.305 10.912.65 14.979.468 33.454-1.499 67.564-22.627 88.312-54.703 4.605-7.119 16.174-20.914 19.592-23.361 17.601-12.604 40.973-27.412 76.099-33.052 3.112-.5 21.92-1.077 25.792-.593 2.268.283 9.634-.022 13.889-.575 1.73-.225 5.11-.407 7.576-.407 35.752-.007 69.157-24.912 77.01-57.414 1.869-7.735 5.696-18.644 7.578-21.6 15.76-24.757 42.297-44.592 69.09-51.641 5.59-1.47 17.01-1.326 24.474.311 25.778 5.652 59.583-2.205 83.609-19.469v329.995h-508z" style="fill:#007abb" transform="translate(148.96 30.03)"/></svg>