<svg xmlns="http://www.w3.org/2000/svg" xml:space="preserve" width="1920" height="1349" viewBox="0 0 508 356.923"><path d="M-148.96 226.396c0-100.496 0-100.496 2.182-100.107 22.8 4.057 63.448-11.994 77-30.408 14.21-19.306 72.495-46.871 107.349-50.77 1.382-.154 3.287-.45 4.233-.658.946-.207 4.273-.873 7.392-1.478 7.272-1.412 13.233-3.929 24.121-10.185 26.9-15.454 51.955-43.206 58.654-62.82H359.04v356.923h-508z" style="fill:#e0f7fd" transform="translate(148.96 30.03)"/><path d="M-148.96 178.517s.46.33.573.44c.476.462 9.772 3.344 14.376 4.107 18.956 3.145 34.816-.248 44.997-9.627 1.029-.947 3.164-2.666 4.744-3.818 12.66-9.233 26.54-22.972 31.831-31.506 18.02-29.068 48.79-48.013 84.2-51.84 10.665-1.153 17.46-.642 23.04 1.733 12.62 5.37 37.618-.004 59.896-12.875 1.164-.673 3.412-1.877 4.995-2.676 6.382-3.221 9.405-5.429 16.04-11.713 10.828-10.257 14.778-15.011 18.507-22.278.953-1.857 2.938-5.259 4.41-7.559 12.446-19.44 19.416-38.171 19.416-52.178 0-3.423-.602-8.02-1.07-8.184-.14-.048-.329-.573-.195-.573h182.24v356.923h-508z" style="fill:#007abb" transform="translate(148.96 30.03)"/></svg>