<svg xmlns="http://www.w3.org/2000/svg" xml:space="preserve" width="1920" height="1349" viewBox="0 0 508 356.923"><path d="M-148.96 54.16c13.123-6.156 35.797-9.873 49.626-8.033 5.077.676 23.207-2.482 37.137-6.468 8.785-2.515 36.053-18.105 39.568-22.622C-16.757 9.489-10.31-.257-7.332-6.085-1.76-16.988.794-25.402.794-30.03H359.04v356.923h-508z" style="fill:#e0f7fd" transform="translate(148.96 30.03)"/><path d="M-148.949 135.918c4.765-4.618 11.353-8.24 16.79-12.392 12.275-9.374 30.027-18.075 43.416-21.28 6.563-1.57 7.918-1.698 17.305-1.625 41.211.32 82.5-24.293 97.194-57.938.64-1.466 4.934-7.971 7.774-11.778 2.773-3.717 17.07-17.898 26.398-26.181 14.99-13.312 33.117-26.31 45.942-32.943 1.217-.63 2.402-1.628 2.595-1.811.773.004 250.575 0 250.575 0v356.923h-508c0-50.816 0-165.718.011-190.975" style="fill:#007abb" transform="translate(148.96 30.03)"/></svg>