<?xml version="1.0" encoding="UTF-8"?>
<svg xmlns="http://www.w3.org/2000/svg" version="1.1" viewBox="0 0 2000 2000">
  <defs>
    <style>
      .cls-1 {
        fill: #e19874;
      }

      .cls-2 {
        fill: #1082b2;
      }

      .cls-3 {
        fill: #0c80b5;
      }

      .cls-4 {
        fill: #fdfdef;
      }

      .cls-5 {
        fill: #e39974;
      }

      .cls-6 {
        fill: #e6f2e2;
      }

      .cls-7 {
        fill: none;
      }

      .cls-8 {
        fill: #e6d7d6;
      }

      .cls-9 {
        fill: #49d1f6;
      }

      .cls-10 {
        fill: #e8d9d8;
      }

      .cls-11 {
        fill: #fcfaf6;
      }

      .cls-12 {
        fill: #027cbd;
      }

      .cls-13 {
        fill: #f1df1c;
      }

      .cls-14 {
        fill: #fdfbfa;
      }

      .cls-15 {
        fill: #fcfdef;
      }

      .cls-16 {
        fill: #dfdc5d;
      }

      .cls-17 {
        fill: #ecdfde;
      }
    </style>
  </defs>
  <!-- Generator: Adobe Illustrator 28.7.6, SVG Export Plug-In . SVG Version: 1.2.0 Build 188)  -->
  <g>
    <g id="Layer_1">
      <g>
        <path class="cls-7" d="M180,2180.16V-180h1640.16v2360.16H180ZM1418.47,363.2c-8.93-.15-17.9.5-26.77-1.3-1.55-.31-3.19-.14-4.78-.24-4.83-.31-9.54.7-14.29,1.31-9.98,1.28-19.25,4.6-27.85,9.72-8.41,5.02-15.31,11.62-19.25,20.74-3.08,7.13-4.87,14.53-2.69,22.39.5,1.81.59,3.78.53,5.66-.02.8-.73,1.88-1.44,2.31-1.35.81-2.89,1.41-4.42,1.79-6.81,1.7-13.62,3.43-20.48,4.87-4.04.85-8.06,1.94-12.28,1.88-11.17-.16-22.38.78-33.45-1.5-9.6-.12-19.1-1.32-28.63-2.34-7.93-.85-15.91-1.31-23.79-2.5-4.11-.62-8.22-1.05-12.34-1.54-6.02-.72-12.05-1.43-18-2.57-10.66-2.04-21.28-4.26-31.81-6.87-9.6-2.37-19.31-4.34-28.85-6.93-11.7-3.18-23.33-6.64-35.08-9.65-10.82-2.78-21.6-5.75-32.17-9.42-1.51-.52-3.02-1.07-4.57-1.43-8.69-2.03-17.38-4.09-26.22-5.36-5.68-.82-11.43-1.27-17.05-2.36-3.48-.68-6.93-1.14-10.45-1.15-18.22-.01-36.45,0-54.67.03-1.92,0-3.85,0-5.74.28-7.57,1.1-15.18,2.05-22.68,3.54-15.35,3.06-30.61,6.52-45.08,12.73-4.11,1.76-8.17,3.66-12.36,5.19-10.89,3.98-20.77,9.95-30.56,15.92-20.51,12.51-39.38,27.22-56.3,44.37-10.77,10.91-22.11,21.26-31.68,33.34-5.15,6.5-10.88,12.55-16.17,18.95-7.11,8.61-13.81,17.58-21.12,26.02-9.43,10.87-17.94,22.44-26.97,33.62-10.62,13.16-20.73,26.74-31.06,40.15-8.96,11.64-17.89,23.31-26.69,35.06-7.46,9.97-14.95,19.91-22.44,29.86-9.61,12.76-18.95,25.71-28.46,38.54-12.16,16.42-24.38,32.8-36.56,49.21-6.47,8.72-12.87,17.48-19.35,26.19-13.72,18.44-27.45,36.89-41.22,55.29-9.38,12.53-18.83,24.99-28.26,37.48-8.08,10.7-16.13,21.43-24.27,32.09-10.27,13.44-20.65,26.81-30.94,40.24-6.41,8.36-12.71,16.81-19.12,25.17-8.36,10.89-16.83,21.7-25.16,32.61-8.53,11.17-17.01,22.37-25.39,33.64-10.09,13.58-20.5,26.93-30.15,40.84-3.82,5.51-7.58,11.14-12.06,16.08-5.49,6.05-7.85,13.21-8.58,20.9-1.4,14.75-.47,29.35,4.26,43.57,3.13,9.41,6.34,18.78,10.32,27.85,3.59,8.17,7.29,16.3,11.65,24.12,4.51,8.09,8.45,16.5,13.26,24.43,1.99,3.28,3.9,6.6,5.86,9.89,3.59,6.04,7.05,12.16,10.82,18.09,10.28,16.17,20.72,32.24,31.85,47.85,4.27,5.98,8.47,12,12.83,17.91,8.73,11.81,17.17,23.83,26.32,35.32,5.37,6.75,10.59,13.61,15.97,20.35,6.37,7.98,12.81,15.91,19.27,23.83,5.04,6.18,10.18,12.28,15.24,18.46,2.02,2.46,4.1,4.91,5.84,7.57,3.01,4.58,6.59,8.62,10.45,12.47,4.3,4.29,8.87,8.38,12.65,13.1,6.22,7.76,13.4,14.58,20.12,21.86,5.2,5.63,10.14,11.51,15.53,16.95,18.22,18.41,36.58,36.68,54.9,54.98,1.81,1.81,3.54,3.75,5.58,5.26,5.67,4.22,10.5,9.34,15.62,14.15,2.1,1.97,4.15,3.99,6.34,5.86,6.56,5.58,13.15,11.14,19.78,16.64,6.38,5.3,12.77,10.6,19.28,15.74,6.01,4.75,12.05,9.48,18.31,13.88,10.96,7.71,21.6,15.84,33.22,22.64,15.27,8.94,31.32,15.84,48.18,21.03,4.41,1.36,8.83,1.75,13.24.81,3.51-.75,6.79-.76,10.37-.27,8.69,1.17,17.27.71,24.73-4.85,16.14-8.45,31.74-17.85,47.52-26.93,11.63-6.69,23.18-13.51,34.7-20.4,14.53-8.69,28.98-17.5,43.46-26.26,16.4-9.92,32.8-19.84,49.2-29.75,14.49-8.76,28.98-17.51,43.49-26.24,14.51-8.72,29.03-17.42,43.55-26.11,13.98-8.37,27.92-16.79,41.96-25.06,13.48-7.95,27.08-15.7,40.59-23.61,13.23-7.75,26.37-15.65,39.6-23.39,9.65-5.65,19.43-11.07,29.06-16.75,18.98-11.2,37.89-22.51,56.84-33.76,10.16-6.03,20.39-11.96,30.52-18.05,12.32-7.4,24.47-15.09,36.9-22.31,10.78-6.26,21.3-12.92,31.84-19.55,5.95-3.74,11.93-7.43,17.86-11.2,12.14-7.7,24.27-15.41,36.36-23.18,2.41-1.55,4.59-3.47,6.99-5.04,9.35-6.13,18.87-12,28.08-18.32,9.47-6.5,19.21-12.68,27.6-20.63.92-.87,2.08-1.48,3.05-2.31,6.58-5.57,13.36-10.93,19.64-16.82,7.69-7.22,15-14.84,22.37-22.39,6.26-6.42,11.74-13.49,16.88-20.82,6.97-9.95,13.64-20.08,19.16-30.94,5.22-10.26,10.17-20.6,13.91-31.51,3.73-10.89,7-21.87,9.41-33.15,1.33-6.26,2.61-12.56,3.2-18.86.95-10.17,2.66-20.28,2.59-30.54-.02-2.85.6-5.7.91-8.56.17-1.59.4-3.17.48-4.76.78-15.05-.85-30-1.99-44.98-1.41-4.63-.94-9.57-2.07-14.2-1.66-6.83-3.01-13.72-4.2-20.64-1.07-6.28-2.16-12.57-3.19-18.86-1.44-8.81-2.64-17.67-4.29-26.44-1.36-7.22-2.71-14.42-3.26-21.75-.12-1.59-.17-3.22-.55-4.76-1.83-7.48-1.72-15.21-3.06-22.76-1.17-6.58-1.56-13.31-2.02-20-.35-5.1-.24-10.23-.36-15.34-.05-2.24.15-4.54-.31-6.69-1.08-5.07-.96-10.18-.97-15.28-.03-14.07,0-28.14.01-42.21,0-2.24-.24-4.54.18-6.7,1.4-7.29.95-14.66,1.3-21.99.17-3.51.13-7.08.81-10.5,2.57-12.88,6.33-25.43,11.68-37.43,2.34-5.25,5.63-10.03,9.8-14.1,1.23-1.2,2.77-1.54,4.42-.99,3.95,1.3,7.88,2.78,12.09,2.83,4.79.06,9.59,0,14.38-.24,3.53-.17,7.05-.96,10.1-2.75,7.25-4.27,13.44-9.69,17.47-17.3,6.09-11.52,8.87-23.89,9.52-36.81.68-13.52-1.11-26.79-4.51-39.84-.97-3.73-1.86-7.44-1.82-11.31,7.9-5.41,15.81-10.81,23.69-16.25,10.78-7.43,21.59-14.8,32.28-22.35,14.6-10.31,29.02-20.89,44.13-30.45,5.16-3.27,9.69-7.25,13.96-11.61,11.08-11.3,15.91-25.12,16.77-40.64.23-4.22-.84-8.24-1.52-12.32-1.9-11.38-7.13-21.09-15.19-29.25-7.41-7.5-15.09-14.73-22.47-22.26-27.06-27.6-54.04-55.28-81.07-82.91-9.38-9.59-18.81-19.14-28.25-28.68-2.02-2.04-4.14-3.99-6.29-5.89-6.33-5.57-13.51-9.62-21.66-11.84-2.76-.75-5.64-1.06-8.43-1.73-7.58-1.85-15.31-1.75-22.87-.71-14.01,1.95-27.43,5.99-39.38,13.94-2.39,1.59-4.68,3.31-7,5.01-2.06,1.51-3.93,3.36-6.16,4.51-2.96,1.53-4.98,3.79-6.94,6.39-7.9,10.43-15.94,20.76-23.97,31.08-6.08,7.81-12.26,15.53-18.34,23.33-6.08,7.8-12.08,15.67-18.13,23.49-1.19,1.53-2.22,3.12-2.65,5.04ZM902.6,284.16c-.2-1.87-2.24-3.5-3.86-3.08-1.38.35-2.72,2.11-2.6,3.42.17,1.87,2.2,3.48,3.86,3.06,1.39-.35,2.74-2.11,2.6-3.4Z"/>
        <path class="cls-9" d="M1617.95,567.3c5.64,29.02,12.07,60.48-3.2,87.96-10.11,20.19-34.23,24.69-54.03,17.45-14.44.95-22.96,39.98-25.9,52.52-4.81,62.63-2.74,126.04,8.23,187.99,4.13,26.81,9.24,53.44,13.74,80.13,9.5,93.02-14.74,183.52-86.91,246.52-51.76,46.14-112.96,80.18-171.43,117.06-91.14,55.45-183.91,108.17-275.47,162.93-60.06,35.85-119.79,72.26-179.7,108.36-27.24,16.06-54.37,32.34-82.22,47.33-7.47,5.55-16.05,6.02-24.73,4.84-58.76,6.89-141.35-73.29-184.34-110.48-92.97-88.92-177.28-187.23-246.55-295.9-25.32-44.48-60.91-94.68-56.18-147.97.4-15.1,13.16-24.87,20.65-36.98,26.06-36.32,53.4-71.7,80.71-107.09,85.11-110.18,167.36-222.51,250.62-334.07,49.35-63.78,96.63-129.96,153.69-187.14,63.83-64.24,138.17-87.61,227.4-82.06,43.17,3.06,83.87,18.77,125.55,29.37,57.62,15.31,117.31,23.61,176.87,24.26,8.05-1.06,37.76-5.41,38.64-10.85-4.81-19.31,3.75-39.31,21.41-48.8,12.63-7.67,27.46-10.83,42.14-11.03,10.5,1.03,20.97,1.92,31.55,1.53,47.38,10.83,84.48,45.39,116.28,80.37,25.64,28.44,52.05,56.6,68.61,91.61,6.01,10.15,8.37,22.33,14.58,32.12ZM1075.78,472.34c-19.33-50.14-73.9-44.67-118-38.8-74.15,11.52-142.76,46.83-201.25,93.02-39.2,31.22-73.96,68.36-100.7,110.84-18.02,24.28-20.91,55.17-2.07,79.99-5.02,5.57-19.69,18.25-19.07,25.42-64.59-41.79-133.28,38.29-84.15,97-66.22,84.21-136.76,165.94-204.59,249.16-8.05,11.14-19.97,21.05-22.1,35.19-5.18,99.21,82.05,215.47,142.5,289.67,48.53,55.74,102.04,108.09,164.21,148.57,48.06,31.8,103.69,54.58,161.35,36.14,21.73-8.16,39.24-25.08,59.06-36.97,85.34-57.87,170.81-115.57,256.16-173.44,101.75-70.91,207.74-136.85,307.45-210.16,77.47-80.45,69.36-199.64,69.74-303.24-.05-13.7-2.42-27.29-1.9-41.11-1.56-16.49-2.73-33.05-4.14-49.54-4.75-34.49-7.3-70.22-20.97-102.72,10.09-10.35,23.97-16.99,35.43-25.96,6.96-6.42,34.55-20.09,33.92-28.05,7.7-38.06-31.52-91.23-56.85-117.88-25.37-25.39-55.97-46.95-90.68-57.16-9.86-3.27-19.51.59-29.4.28-3.07.21-5.23,3.68-7.1,5.89-5.12,6.54-10.19,13.12-15.3,19.67-10.31,12-18.72,26.28-30.12,37.06-5.07-4.02-10.85-6.49-17.05-8.26-19.26-5.44-38.58-11.01-58.16-15.1-48.21-9.94-96.99-18.07-146.21-19.51Z"/>
        <path class="cls-5" d="M1617.95,567.3c-16.96-41.66-40.83-80.29-73.11-112.2-34.25-39.33-73.84-79.74-126.36-91.9,10.88-18.49,26.4-34.46,39.12-51.86,10.69-12.04,18.39-27.38,30.92-37.47,23.03-19.28,54.29-29.62,83.83-21.02,11.01,2.84,20.13,9.7,27.95,17.73,36.63,37.01,72.83,74.44,109.32,111.59,14.6,15.56,34.59,28.76,37.65,51.51,10.96,50.96-40.57,69.51-73.35,95.02-18.55,13.02-37.29,25.77-55.97,38.6Z"/>
        <path class="cls-17" d="M902.6,284.16c.14,1.29-1.21,3.06-2.6,3.4-1.66.41-3.69-1.2-3.86-3.06-.12-1.31,1.22-3.07,2.6-3.42,1.62-.41,3.66,1.21,3.86,3.08Z"/>
        <path class="cls-12" d="M634.69,742.81c-.65-7.12,14.05-19.88,19.07-25.42,26.57,31.72,79.03,28.81,99.81-7.49,17.14-29.01,39.15-54.63,64.47-76.8,39.38-34.48,85.64-61.89,136.47-75.31,19.2-4.98,39.03-7.66,58.84-5.73,42.59,3.71,74.76-39.63,62.43-79.72,49.22,1.44,98,9.57,146.21,19.51,19.58,4.09,38.9,9.67,58.16,15.1,6.19,1.77,11.98,4.23,17.05,8.25-1.4,5.88-7.54,8.48-10.86,13.04-18.21,23.37-28.85,63.22.16,82.63,20.71,20.85,43.11,40.12,62.62,62.09,6.64,8.38,14.74,15.11,24.52,19.56,20.78,9.1,47.08,13.07,66.98-.14,5.13-4.1,10.51-8.57,16.67-11.03,13.67,32.5,16.2,68.24,20.97,102.72,1.4,16.5,2.58,33.04,4.14,49.54-.53,13.82,1.86,27.4,1.91,41.11-.35,103.56,7.73,222.82-69.74,303.23-99.71,73.31-205.7,139.25-307.44,210.17-85.35,57.87-170.82,115.56-256.16,173.44-19.82,11.91-37.32,28.79-59.06,36.98-57.61,18.4-113.31-4.3-161.35-36.15-62.17-40.48-115.67-92.82-164.2-148.56-60.58-74.36-147.59-190.3-142.51-289.67,2.11-14.15,14.1-24.05,22.1-35.2,67.83-83.22,138.38-164.95,204.59-249.16,67.34,61.93,156.91-40.34,84.15-97ZM806.41,1010.56l-.7-.23-.22.51c-12.97,3.61-27.02,7.17-40.51,5.7-5.66-1.27-11.38-1.51-17.16-1.11-13.87-.59-27.99-3.17-41.66-5.74-33.34-3.17-67.64-12.01-100.68-2.18-7.04.72-37.04,13.4-32.5,21.53,3.66,2.07,27.4-4.81,27.1,3.44-3.44,4.32-8.88,7.24-12.14,11.99-3.46,2.72-12.02,22.96-3.81,21.48,10.31-5.8,21.36-10.07,32.46-14.1,9.4-3.32,19.1-5.13,29.16-4.15,19.45-.48,38.92-.86,58.24,2.55-76.62,28.62-159.06,45.31-240.61,53.1-16.89,1.12-33.8,1.72-50.71-.73-6.72-.97-13.24-1.95-19.2-5.38-5.12-2.88-12.21-2.09-14.82,3.71-28.62,53.15,14.72,128.23,50.89,168.2,4.84,6.04.27,17.22,3.69,25.08,2.38,9.36,6.08,18.17,10.69,26.62,34.05,59.72,82.71,112.42,142.91,146.27,15.04,7.5,41.62,17.45,51.65-1.73,41.41-47.72,87.71-92.13,132.19-137.26,8.26,34.81,17.96,69.5,36.61,100.4.63,1.14,2.58,1.06,3.21-.04,8.67-12.43,7.07-29.7,15.78-41.6,1.58-1.48,3.93-.94,5.01.58,6.91,10.57,20.53,15.49,32.21,18.78,7.84-.48-2.71-11.55-3.83-15.08-21.78-36.35-33.84-78.88-34.76-121.12,48.29-45.91,93.81-96,140.63-143.81,6.06-.1,13.58,2.91,18.2-2.41,4.22-5.3,10.03-8.89,14.41-13.98,12.4-14.4,31.88-26,30.61-47.39,94.17-54.7,187.9-110.2,282-165.04,10.11-6.15,20.27-12.14,31.41-16.27,10.27-3.74,14.86-12.49,19.04-21.6,15.22-81.28-89.91-178.44-147.45-225.99-46.45-33-124.76-77.24-182.7-61.14-5.68,1.81-7.15,7.79-8.99,12.79-24.95,70.12-50,140.22-75.08,210.28-9.91-5.56-17.16-16.26-28.23-19.33-43.2-6.71-56.7,63.88-62.18,95.46-1.21,17.5-10.67.98-16.82-3.89-11.7-11.44-24.49-21.48-38.6-29.78-45.89-26.71-83.55-13.1-93.27,40.7-3.43,10.4-2.44,21.53-4.12,32.24-.81,5.8-.56,11.51.59,17.15,2.7,8.65-.33,18.17,4.13,26.27,22.29,37.21,100.7,39.06,138.87,30.62-3.28,9.82-31.22,18.03-38.65,24.92-.77.24-1.53.48-2.3.73Z"/>
        <path class="cls-4" d="M1075.78,472.34c.38,2.2.75,4.39,1.16,6.59,3.33,17.89.18,34.44-10.94,49-13.21,17.29-31.03,24.98-52.65,24.14-4.47-.17-8.93-.74-13.39-.7-15.42.14-30.54,2.59-45.44,6.43-24.91,6.42-48.36,16.48-70.83,28.88-23.6,13.03-45.39,28.64-65.64,46.43-20.26,17.81-38.37,37.56-53.66,59.82-3.8,5.53-7.27,11.28-10.81,16.98-3.74,6.03-8.19,11.4-13.67,15.93-23.5,19.41-58.52,18.21-80.57-3.2-1.83-1.77-3.7-3.5-5.56-5.25-1.34-2.16-2.67-4.33-4.02-6.49-6.24-10.04-9.22-21.05-9.04-32.79.13-8.7,2.08-17.14,6.08-24.93,2.77-5.39,5.84-10.64,9.05-15.79,7.95-12.75,16.74-24.92,26.09-36.69,13.93-17.55,29.25-33.83,45.56-49.17,9.31-8.75,19.1-16.97,29.05-24.98,15.2-12.23,31.25-23.26,47.76-33.64,32.62-20.52,67.23-36.73,104.08-48.07,16.18-4.98,32.66-8.67,49.42-11.3,18.38-2.88,36.82-3.88,55.36-3.11,6.04.25,12.12.97,18.05,2.14,7.26,1.42,13.95,4.58,20.1,8.73,10.33,6.98,17.99,16.17,22.6,27.83.45,1.14,1.25,2.14,1.89,3.21Z"/>
        <path class="cls-1" d="M1457.29,681.36c-6.15,2.46-11.55,6.92-16.67,11.03-19.9,13.23-46.2,9.23-66.98.14-9.78-4.46-17.88-11.18-24.52-19.56-19.51-21.97-41.92-41.25-62.62-62.1-29-19.41-18.37-59.26-.15-82.63,3.32-4.56,9.45-7.16,10.86-13.04,11.4-10.77,19.81-25.06,30.12-37.06,6.48-6.66,14.5-22.52,22.4-25.56,9.89.31,19.54-3.56,29.4-.28,34.71,10.21,65.31,31.77,90.68,57.16,25.38,26.73,64.5,79.71,56.85,117.88.66,8.07-27.02,21.59-33.92,28.05-11.46,8.98-25.34,15.61-35.43,25.96Z"/>
        <path class="cls-15" d="M634.69,742.81c3.49,3.25,7.16,6.33,10.44,9.78,21.07,22.21,22,56.19,3.36,79.56-5.84,7.32-12.7,13.41-20.64,18.24-20.8,12.67-48.31,11.8-68.96-4.33-2.74-2.14-4.94-5.01-8.35-6.26-.37-.86-.62-1.8-1.13-2.56-1.61-2.37-3.37-4.63-5-6.99-6.48-9.41-9.87-19.98-10.87-31.23-.8-9.04,1.31-17.74,4.68-26.1,4.63-11.48,12.02-20.93,21.47-28.83.49-.41.96-.84,1.49-1.2,14.62-10.03,30.64-13.61,48.13-10.51,9.22,1.63,17.58,5.34,25.39,10.42Z"/>
        <path class="cls-14" d="M946.99,795.49c25.08-70.08,50.13-140.17,75.08-210.3,1.85-4.99,3.29-11,8.99-12.78,57.73-16.18,136.43,28.23,182.7,61.14,57.52,47.55,162.64,144.64,147.46,225.99-4.19,9.11-8.78,17.86-19.04,21.6-11.14,4.13-21.3,10.12-31.41,16.27-94.09,54.83-187.82,110.34-281.99,165.03-6.79,2.33-13.77,4.71-21.28,3.3-10.45-.19-19.94-3.5-28.29-9.81-21.22-15.29-38.77-35.04-54.07-56.14-6.45-9.12-12.21-18.63-16.77-28.84-4.28-10.01-5.46-20.79-11.14-30.28.19-1.94.39-3.89.58-5.83.33-.31.44-.69.33-1.12,1.57-1.47.98-3.85,2.01-5.68.92-.77,1.13-1.75,1.06-2.89,1.52-.79,2-2.1,1.87-3.72.93-1.84,2.22-3.55,2-5.78,9.51-26.36,22.49-53.28,29.53-80.48,4.88-12.69,12.49-25.9,12.39-39.65ZM1059.71,581.8c-9.37-.92-19.06,1.1-22.39,11.08-4.37,13.34-9.61,26.35-14.48,39.51-13.22,39.2-28.22,77.88-42.15,116.91-6.45,18.02-12.92,35.99-19.83,53.85-10.89,31.98-22.88,63.59-34.45,95.35-3.62,9.88-7.72,19.58-10.99,29.58-1.12,5.06,6.14,9.27,9.41,4.86,3.56-5.82,8.85-10.04,13.41-14.94,4.67-4.46,7.63-10.22,12.54-14.41,6.88-6.34,11.63-14.37,18.61-20.55,5.32-4.75,8.6-11.07,13.88-15.78,23.08-24.73,45-50.36,67.68-75.37,7.66-6.92,13.02-15.7,20.63-22.59,5.28-4.79,8.51-11.14,13.89-15.77,7.67-6.92,13.02-15.7,20.63-22.59,5.28-4.79,8.51-11.13,13.89-15.77,11.32-11.72,21.72-24.2,32.49-36.33,2.67-2.76,5.86-5.16,7.94-8.3,7.69-10.73,18.23-18.69,25.72-29.55,3.07-4.84-3.57-9.44-7.35-11.49-7.28-3.03-11.25-10.19-18.01-14.08-8.92-5.7-18.42-10.21-28.1-14.36-23.24-8.78-47.95-18.91-72.97-19.25ZM1290.7,822.34h.03c.87,6.15-2.69,14.87,3.95,18.52,9.14,5.44,23.23,16.67,29.99,2.43,3.73-16.5-22.84-59.01-32.39-74.08-23.64-35.61-61.8-84.22-101.77-100.85-17.18-1.34-4.77,33.8-.41,41.73,4,3.66,10.55-.91,15.4-1.09,15.41-1.59,31.21,6.15,42.13,16.75,26.75,24.22,43.5,60.38,43.07,96.59ZM1267.71,813.06c-3.3-26.73-15.36-52.96-36.09-70.65-5.25-5.25-27.26-18.71-28.85-5.31,2.89,8.53,8.23,15.73,13.57,22.83,9.47,15.12,21.39,28.45,33.36,41.49,2.36,3.06,18.09,23.58,18.01,11.65Z"/>
        <path class="cls-14" d="M770.68,1328.11c-3.49,3.28-7.11,6.43-10.45,9.86-28.11,28.83-56.17,57.71-84.22,86.6-10.91,11.23-21.73,22.55-32.62,33.8-2.02,2.08-3.72,4.29-4.9,7-2.81,6.46-8.19,9.64-14.91,10.55-5.09.69-10.21.39-15.24-.81-7.49-1.79-14.69-4.39-21.5-8.01-9.04-4.81-17.75-10.17-26.01-16.22-6.45-4.72-12.96-9.37-19.09-14.47-10.55-8.78-21.03-17.68-31.15-26.96-5.16-4.72-9.63-10.23-14.13-15.63-7.77-9.32-15.38-18.79-22.96-28.28-11.2-14.01-20.99-28.97-29.58-44.72-4.61-8.45-8.3-17.26-10.69-26.62-1.6-6.27-1.97-12.6-1.41-19.03.21-2.36-.57-4.4-2.28-6.06-11.35-11.01-19.96-24.06-28.06-37.5-6.93-11.5-13.79-23.03-19.04-35.44-5.13-12.11-9.1-24.54-11.35-37.53-1.87-10.81-1.98-21.64-.85-32.48.94-8.99,3.45-17.55,8.41-25.24.69-1.07,1.44-2.11,2.28-3.07,1.09-1.25,2.54-1.93,4.18-2.1,2.92-.31,5.76-.03,8.36,1.46,5.95,3.42,12.48,4.4,19.2,5.38,16.91,2.45,33.82,1.85,50.71.73,13.06-.87,26.09-2.36,39.07-4.1,21.21-2.84,42.33-6.34,63.27-10.8,14.06-2.99,28.09-6.13,42.08-9.44,27.99-6.61,55.65-14.45,83.05-23.2,4.53-1.45,9.34-2.36,13.14-5.56,3.51-.02,7.03-.25,10.52-.02,6.04.4,12.07,1.1,18.1,1.67-.31,1.6-.8,3.09-2.41,3.9-1.71.86-3.35,1.88-5.11,2.63-7.61,3.26-15.15,6.7-22.89,9.69-11.84,4.58-37.46,13.3-48.05,16.01-2.77.71-5.56,1.38-8.32,2.14-8.28,2.29-16.54,4.68-24.84,6.9-3.37.9-6.84,1.41-10.23,2.24-7.73,1.88-15.39,4.1-23.18,5.68-7.47,1.51-14.98,2.91-22.41,4.61-4.04.92-8,2.08-12.22,1.97-1.55-.04-3.12.55-4.67.87-7.8,1.58-15.54,3.37-23.62,2.92-4.12-.23-8.28-.3-12.31,1.27-1.42.56-3.14.43-4.73.49-2.23.08-4.48-.01-6.71.07-7.62.27-15.33-.82-22.82,1.66-1.45.48-3.17.19-4.77.21-3.84.04-7.67.03-11.51.07-3.51.04-6.97.05-10.42,1.18-2.06.68-4.41.63-6.63.65-8.31.09-16.62.06-24.93.11-2.24.01-4.59-.31-6.68.27-4.36,1.21-8.75,1.62-13.23,1.74-2.08.06-3.56,1.32-4.62,3.01-.68,1.08-1.17,2.28-1.8,3.38-1.79,3.12-2.64,6.43-2.52,10.08.27,8.58-.8,17.23,1.76,25.68.64,2.1.25,4.5.84,6.61,2.59,9.18,3.94,18.75,8.45,27.34.58,1.11.64,2.48,1.14,3.65,3.2,7.61,4.96,15.86,10.05,22.65.55.73.51,1.86.99,2.67,3.36,5.78,6.6,11.66,11.22,16.56,3.07,3.26,6.27,6.38,9.48,9.5,3.58,3.48,5.22,3.68,9.3,1.4.56-.31,1.15-.57,1.68-.91,9.38-6.04,18.74-12.1,28.12-18.13,6.17-3.96,12.29-7.99,18.57-11.77,9.83-5.92,19.6-11.91,29.13-18.31,6.35-4.26,12.66-8.62,19.22-12.54,13.13-7.85,26.11-15.93,38.94-24.27,12.02-7.82,24.11-15.54,36.4-22.92,5.47-3.29,10.74-6.87,16.2-10.15,9.83-5.91,19.55-11.99,29.16-18.27,6.66-4.36,13.1-9.13,20.41-12.43.87-.39,1.71-.87,2.48-1.43,10.08-7.29,21.03-13.25,31.35-20.18,2.64-1.78,5.43-3.34,8.1-5.08,3.46-2.27,7.26-4.21,10.21-7.03,4.42-4.23,9.22-7.84,14.4-11,2.48-1.52,3.28-3.77,3.26-6.49,7.25-1.12,14.66-.77,21.84-2.48,8.4.36,16.49-1.18,24.45-3.79,2.41-.79,4.98-1.14,7.5-1.52,4.78-.72,9.29-2.31,13.68-4.24,7-3.08,14.13-5.9,20.76-9.8,4.12-2.42,8.51-4.39,12.78-6.56,1.16-.59,2.36-.94,3.64-.51.84.28,1.26,2.67.75,4.44-.63,2.14-1.28,4.28-2,6.39-8.37,24.25-19.52,47.17-33.08,68.92-3.38,5.41-6.75,10.9-10.77,15.82-4.47,5.46-8.28,11.33-12.27,17.09-6.21,8.97-11.25,18.61-15.33,28.67-9.67,23.83-15.34,48.63-16.93,74.33-.14,2.23-.19,4.47-.46,6.69-1.7,14.01-1.37,28.09-.39,42.09.82,11.74,2.01,23.52,4.27,35.13.42,2.17.29,4.44.41,6.66Z"/>
        <path class="cls-11" d="M824.91,1270.03c-1.39-3.62-2.04-7.34-1.95-11.23.12-5.42-.21-10.87.14-16.27.45-6.99,1.28-13.96,2.14-20.92.86-6.95,2.69-13.75,3.34-20.75.26-2.81,1.29-5.59,2.24-8.29,3.75-10.52,7.46-21.07,14.12-30.24,3.25-6.96,7.74-13.18,11.71-19.71,2.13-3.51,3.44-7.52,5.11-11.31,1.02-2.33,1.74-4.85,3.09-6.96,7.48-11.71,12-24.62,15.48-37.94,3.06-11.73,5.38-23.61,6.19-35.75.53-7.94,1.19-15.87,1.81-24.12.83.23,2.09.21,2.38.72,4.15,7.54,8.24,15.12,12.21,22.76,4.99,9.63,9.74,19.38,15.47,28.61,4.89,7.87,10.28,15.36,16.83,21.98,1.56,1.58,2.91,3.37,4.34,5.08,6.82,8.17,14.51,15.22,24.5,19.38.56.23,1,.77,1.5,1.16-5.27,5.56-10.48,11.18-15.81,16.68-18.91,19.51-37.86,38.97-56.78,58.46-20.93,21.56-41.84,43.13-62.77,64.68-1.54,1.59-2.95,3.4-5.27,3.98Z"/>
        <path class="cls-6" d="M847.36,984.91c4.9-1.36,9.79-2.8,14.72-4.04,2.36-.6,4.41,1.85,3.65,4.14-.3.9-.59,1.83-1.04,2.67-1.86,3.44-4.48,6.2-7.89,8.13-9.48,5.37-19.33,9.84-30.16,11.62-5.95.98-11.81,2.76-17.94,2.41.94-1.96,3.02-2.24,4.67-3.05,9.71-4.82,19.24-9.98,28.58-15.48,2.58-1.52,4.52-3.48,5.42-6.38Z"/>
        <path class="cls-6" d="M806.41,1010.56l-.43.37s-.52-.08-.51-.09.24-.51.24-.51l.7.23Z"/>
        <path class="cls-8" d="M1059.71,581.8c6.92-.83,14.03,1.28,21.2,2.65,4.68.89,9.32,2.09,13.91,3.39,6.73,1.9,13.48,3.65,19.99,6.43,5.83,2.49,12.01,4.28,17.86,6.79,9.68,4.15,19.18,8.66,28.1,14.36,3.01,1.92,5.7,4.1,8.12,6.64,2.89,3.03,5.98,5.76,9.89,7.44,3.04,1.3,5.2,3.66,7.26,6.11,1.16,1.37,1.28,3.99.09,5.37-4.36,5.08-8,10.71-12.97,15.32-4.66,4.33-9.18,8.81-12.75,14.23-2.08,3.14-5.27,5.55-7.94,8.3-2.22,2.29-4.46,4.5-6.15,7.3-1.29,2.15-3.3,3.87-5.04,5.74-4.56,4.89-9.63,9.27-13.38,14.97-2.07,3.15-5.27,5.55-7.92,8.31-3.09,3.22-6.41,6.18-8.71,10.14-1.25,2.15-3.42,3.77-5.17,5.63-4.37,4.63-9.13,8.86-12.71,14.28-2.07,3.15-5.26,5.55-7.92,8.31-3.09,3.21-6.41,6.18-8.72,10.14-1.25,2.15-3.41,3.77-5.17,5.63-4.38,4.63-9.13,8.86-12.71,14.28-2.07,3.15-5.27,5.54-7.92,8.31-3.08,3.22-6.22,6.33-8.76,10.11-2.28,3.4-5.64,6.07-8.5,9.08-3.08,3.23-6.33,6.23-8.74,10.12-1.65,2.66-4.31,4.69-6.5,7.01-3.05,3.25-6.4,6.18-8.75,10.11-1.44,2.41-3.84,4.25-5.81,6.35-4.14,4.41-8.65,8.43-12.06,13.58-2.25,3.4-5.69,6.02-8.57,9.01-2.87,2.98-5.88,5.79-8.08,9.43-1.46,2.41-3.84,4.25-5.8,6.35-4.14,4.41-8.76,8.35-12.04,13.6-1.65,2.65-4.37,4.64-6.57,6.95-2.86,3-5.98,5.72-8.08,9.42-1.08,1.89-2.93,3.35-4.45,4.99-4.56,4.9-9.86,9.12-13.41,14.94-1.02,1.67-4.1,2.21-6.15,1.48-1.96-.69-3.89-4.28-3.26-6.34.74-2.44,1.61-4.84,2.5-7.23,2.81-7.46,5.68-14.89,8.48-22.35,2.47-6.56,4.96-13.12,7.3-19.73,2.34-6.61,4.49-13.28,7.17-19.79,3.15-7.66,5.39-15.69,8.52-23.35,4.35-10.65,7.57-21.68,11.46-32.48,2.59-7.2,5.49-14.28,8.25-21.42.23-.6.59-1.15.76-1.76,2.88-10.48,7.45-20.36,10.81-30.67,3.46-10.61,7.45-21.04,11.68-31.37.24-.59.49-1.18.7-1.78,3.92-11.13,7.76-22.29,11.76-33.38,2.6-7.2,5.44-14.3,8.15-21.46.56-1.48,1-3.01,1.43-4.54.35-1.22.43-2.56.96-3.68,3.18-6.66,4.95-13.81,7.46-20.7,3.06-8.38,6.35-16.68,9.45-25.06,1.77-4.78,3.36-9.64,5.03-14.46,2.17-6.26,7.84-10.73,14.19-11.06,2.55-.13,5.11-.02,8.2-.02Z"/>
        <path class="cls-10" d="M1290.7,822.34c0-2.87,0-5.75,0-8.62,0-2.55-.07-5.08-.95-7.56-.53-1.48-.74-3.09-.9-4.67-1.08-10.24-4.33-19.86-8.45-29.22-1.67-3.79-3.78-7.39-5.48-11.18-3.15-7.04-7.89-13.09-11.96-19.55-1.01-1.59-2.48-2.91-3.83-4.27-3.81-3.87-7.67-7.69-11.5-11.53-7.85-7.88-17.19-13.06-28.06-15.45-1.55-.34-3.07-.81-4.61-1.22-3.15-.86-6.3-.78-9.46-.08-4.02.89-8.05,1.76-12.09,2.6-1.43.3-2.42-.59-3.31-1.51-.43-.45-.78-1.03-1.01-1.61-2.57-6.5-5.42-12.91-5.88-20.05-.12-1.88-.6-3.77-1.15-5.58-1.31-4.28-.52-8.18,1.8-11.89,1.34-2.15,4.15-3.33,6.66-2.59,1.22.36,2.42.81,3.56,1.36,3.73,1.82,7.51,3.56,11.11,5.6,4.71,2.67,8.83,6.22,13.05,9.58,1.99,1.58,3.75,3.39,5.98,4.74,1.88,1.14,3.48,2.78,5.06,4.35,8.6,8.56,17.17,17.15,25.73,25.75,2.02,2.03,3.9,4.14,5.46,6.61,2.55,4.02,6.61,6.92,8.8,11.27,9.06,9.52,15.71,20.81,23.03,31.6,4.28,6.32,8.32,12.8,11.96,19.55,2.72,5.03,5.9,9.85,8.22,15.1,4.12,9.32,8.17,18.67,11.98,28.12,1.46,3.61,1.01,7.52.23,11.31-3.33,5.54-7.34,8.92-14.12,6.34-2.67-1.02-5.2-2.44-7.7-3.84-2.77-1.56-5.37-3.44-8.17-4.93-2.91-1.55-4.02-3.86-3.97-7.02.07-3.83.02-7.66.02-11.5h-.03Z"/>
        <path class="cls-10" d="M1267.71,813.06c-.14.79-.31,1.72-.46,2.65-.12.74-1.62,1.55-2.25,1.21-.55-.3-1.24-.45-1.66-.88-4.67-4.75-9.97-8.87-13.63-14.63-1.68-2.64-4.25-4.72-6.42-7.04-3.26-3.47-6.77-6.65-9.32-10.81-2.13-3.48-5.86-5.85-7.61-9.73-3.96-4.19-6.79-9.18-10-13.91-1.96-2.89-4.22-5.56-6.2-8.44-3.07-4.47-5.5-9.3-7.38-14.39-.66-1.79,1.23-4.69,3.23-5.18,2.21-.54,4.41-.55,6.61.02,7.23,1.87,13.55,5.47,19.01,10.47,3.99,3.66,7.71,7.61,11.5,11.48,1.11,1.13,2.18,2.34,3.03,3.67,3.08,4.82,6.32,9.56,8.98,14.6,2.51,4.76,4.78,9.74,6.42,14.86,2.33,7.24,4.02,14.69,5.9,22.07.31,1.21.17,2.53.25,3.97Z"/>
        <path class="cls-13" d="M930.77,831.17c1.27,1.45,1.61,3.64,3.82,3.98-4.95,21.39-15.56,42.11-22.64,63.17-1.45,3.79-2.35,7.89-5.11,11.11.13-3.08.52-6.53-2.85-7.98,7.8-23.62,16.15-47.98,26.78-70.28Z"/>
        <path class="cls-13" d="M903.99,901.44c2.13,1.09,3.12,2.81,2.92,5.23-.08.91-.05,1.84-.07,2.76-.22.71-.44,1.42-.66,2.13-2.15.54-2.94,2.03-2.9,4.12-.72,1.2-1.76,1.92-3.12,2.2-.5-.75-1.26-1.36-1.03-2.45,1.06-4.86,2.24-9.67,4.86-13.99Z"/>
        <path class="cls-13" d="M900.16,917.88c1.36-.27,2.41-1,3.12-2.2.6-.02,1.19-.04,1.79-.05.22,2.23-1.07,3.95-2,5.78-.58,0-1.16,0-1.74,0-.37-1.22-.75-2.44-1.11-3.65.01,0-.06.12-.06.12Z"/>
        <path class="cls-13" d="M905.07,915.63c-.6.01-1.19.03-1.79.05-.04-2.08.75-3.58,2.9-4.12.27,1.53-.5,2.78-1.11,4.06Z"/>
        <path class="cls-13" d="M897.22,940.66c-2.33-3.05-2.31-3.31.58-5.83-.19,1.94-.39,3.89-.58,5.83Z"/>
        <path class="cls-13" d="M901.33,921.41c.58,0,1.16,0,1.74,0,.13,1.62-.35,2.93-1.87,3.72.04-1.24.08-2.48.13-3.72Z"/>
        <path class="cls-16" d="M900.14,928.02c-.41-1.21-.09-2.16,1.03-2.81.17,1.13-.18,2.06-1.03,2.81Z"/>
        <path class="cls-13" d="M898.13,933.71c-.37-1.22,0-2.16,1.06-2.86.14,1.13-.18,2.1-1.06,2.86Z"/>
        <path class="cls-8" d="M732.6,1051.88c3.97-.54,7.93-1.13,11.9-1.61,2.46-.29,4.94-.42,7.33.5.02,2.72-.79,4.98-3.26,6.49-5.17,3.17-9.97,6.78-14.4,11-2.95,2.82-6.74,4.76-10.21,7.03-2.67,1.74-5.45,3.3-8.1,5.08-10.32,6.93-21.26,12.89-31.35,20.18-.77.56-1.62,1.04-2.48,1.43-7.32,3.3-13.75,8.08-20.41,12.43-9.6,6.28-19.32,12.36-29.16,18.27-5.46,3.28-10.73,6.87-16.2,10.15-12.29,7.38-24.38,15.11-36.4,22.92-12.83,8.34-25.81,16.41-38.94,24.27-6.56,3.92-12.87,8.28-19.22,12.54-9.53,6.39-19.31,12.38-29.13,18.31-6.27,3.78-12.4,7.81-18.57,11.77-9.38,6.03-18.75,12.09-28.12,18.13-.54.34-1.13.6-1.68.91-4.07,2.28-5.72,2.07-9.3-1.4-3.21-3.12-6.42-6.24-9.48-9.5-4.62-4.91-7.86-10.79-11.22-16.56-.47-.81-.44-1.95-.99-2.67-5.09-6.78-6.85-15.04-10.05-22.65-.49-1.17-.55-2.54-1.14-3.65-4.52-8.59-5.86-18.16-8.45-27.34-.6-2.12-.21-4.52-.84-6.61-2.57-8.45-1.49-17.1-1.76-25.68-.11-3.65.73-6.95,2.52-10.08.64-1.11,1.12-2.31,1.8-3.38,1.06-1.69,2.55-2.95,4.62-3.01,4.48-.12,8.87-.53,13.23-1.74,2.09-.58,4.45-.26,6.68-.27,8.31-.04,16.62-.02,24.93-.11,2.22-.02,4.56.02,6.63-.65,3.44-1.13,6.91-1.14,10.42-1.18,3.84-.04,7.67-.03,11.51-.07,1.6-.02,3.31.27,4.77-.21,7.49-2.48,15.2-1.39,22.82-1.66,2.24-.08,4.48.01,6.71-.07,1.59-.06,3.31.07,4.73-.49,4.02-1.58,8.19-1.5,12.31-1.27,8.08.45,15.82-1.34,23.62-2.92,1.56-.32,3.12-.91,4.67-.87,4.22.11,8.18-1.05,12.22-1.97,7.43-1.7,14.94-3.09,22.41-4.61,7.79-1.58,15.45-3.8,23.18-5.68,3.39-.82,6.86-1.33,10.23-2.24,8.3-2.23,16.56-4.61,24.84-6.9,2.76-.76,5.55-1.43,8.32-2.14,10.59-2.72,36.21-11.43,48.05-16.01,7.73-2.99,15.27-6.43,22.89-9.69,1.76-.75,3.4-1.77,5.11-2.63,1.61-.81,2.09-2.3,2.41-3.9Z"/>
        <path class="cls-3" d="M806.13,951.78c-8.42,0-57.79-1.7-49.66-13.94,6.49-15.9,7.38-32.75,9.18-49.54,3.23-3.53,23.3,8.54,26.68,11.86,17.93,12.48,34.09,27.88,48.24,44.49,3.04,7.21-30.76,6.84-34.44,7.14Z"/>
        <path class="cls-13" d="M918.69,821.1c-3.17-.54-4.99,1.93-7.31,3.29-.37-1.53-.31-3.01.66-4.32.95-1.27,2.17-2.1,3.84-1.97,1.82.15,2.52,1.39,2.81,3Z"/>
        <path class="cls-13" d="M893.4,877.23c-2.12-2.83-2.03-3.96,1.11-5.87.26-1.6.38-2.34.63-3.94-1.64-1.9-1.54-2.21.95-3.68.3-1.73.45-2.56.75-4.29-1.06-1.3-1.1-1.94.1-2.69,1.84-4.33,3.52-8.26,5.36-12.59-.93-3.79-1-3.82,2.08-5.34,2.42-5.42,4.34-9.74,6.76-15.16-1.02-4.54,6.53-8.45,7.53-2.62,0,.03.02.06.04.08,5.65,7.09,9.17-.49,11.54,5.62,0,.02.01.04.01.05.23,3.1.81,7.17,4.16,8.29.09.03.19-.02.23-.11,4.88-12.62,12.4-25.75,12.33-39.42,0-.05-.02-.1-.06-.13-46.98-45.86-70.86-1.92-83.79,44.3-2.65,10.51-5.12,21.09-6.56,31.87-.79,5.96-2.01,11.9-8.04,4.94-72.17-79.75-152.58-68.09-144.19,51.47,0,0,0,.01,0,.02-3.59,69.55,111.31,67.27,157.68,52.84.02,0,.05,0,.07,0,9.28.66-.97,13.23-5.3,14.92,0,0-.01,0-.02.01-15.41,9.89-33.91,12.62-51.31,15.04,0,0-.02,0-.02,0-12.96,3.6-26.99,7.16-40.47,5.69,0,0-.01,0-.02,0-5.66-1.26-11.37-1.51-17.15-1.1-8.05.89-15.73-2.51-23.71-2.84-10.95-.19-21.25-4.96-32.17-4.67,0,0-.01,0-.02,0-36.95-4.09-77.71-11.72-110.98,10.04,0,0,0,0-.01.01-17.24,13.29-6.84,12.05,7.17,10.33,3.82-.34,16.62.45,10.24,6.29-9.52,6.91-17.64,17-17.53,29.25,1.26,6.34,10.56-2.97,14.39-3.54.01,0,.02,0,.03,0,7.05-2.99,14.15-5.9,21.37-8.45,9.4-3.32,19.09-5.13,29.15-4.15,0,0,.02,0,.03,0,32.94-2.93,65.95,6.1,98.73,2.6,0,0,.01,0,.02,0,32.63.06,66.77-4.79,95.54-21.32,0,0,.02,0,.02-.01,3.91-1.28,19.5-13.56,17.16-2.63,0,.01,0,.02,0,.03-48.71,127.14-113.14,139.36-86.54,301.76,0,0,0,0,0,.01,8.25,34.81,17.95,69.49,36.6,100.39.63,1.14,2.58,1.06,3.21-.04,7.35-5.77,9.68-49.28,20.76-41.04.02.01.03.03.05.05,6.7,10.51,19.93,14.82,31.23,18.68.02,0,.03,0,.05,0,9.42.68-1.46-11.08-2.9-15,0,0,0-.02-.01-.02-27.13-44.4-36.59-97.47-36.57-148.61,1.74-83.5,69.86-127.99,65.24-215.76,0-.12.1-.2.21-.18.82.18,1.89.2,2.15.67,9.65,16.9,17.63,34.7,27.68,51.37,12.47,18.54,26.82,37.41,47.13,47.57.02.01.05.02.08.02,6.07-.09,13.55,2.9,18.16-2.41,6.73-7.28,14.52-13.35,20.95-20.95,0,0,0,0,.01-.01,11.55-11.21,25.03-22.55,24.07-40.16,0-.12-.13-.2-.24-.16-51.31,20.22-106.21-58.74-123.2-99.57,0-.01,0-.03-.01-.04-1.04-8.06-4.78-15.02-8.1-22.24,0-.01-.01-.02-.02-.03-2.31-3.02-2.29-3.3.57-5.79.02-.01.03-.03.04-.05.76-1.25-.37-2.87,1.15-3.83.41-1.04.76-1.91,1.17-2.95-.4-1.18-.1-2.11.96-2.76.04-.03.08-.07.09-.13.35-2.52-.04-4.93-.95-7.31-.02-.04-.05-.08-.09-.11-4.29-2.22-5.85,13.55-8.66,7.62-3.12-3.12.5-9.1-1.16-13.28-.01-.04-.04-.06-.07-.08-.25-.15-.47-.36-.69-.58.26.2.52.4.74.61,1.38-4.58,1.28-9.19.25-13.81-.25.21-.55.4-.85.59.24-.22.5-.42.78-.56.04-.02.07-.05.09-.1,1.08-3.03,1.13-6.16.92-9.32,0-.05-.03-.09-.07-.12-.03-.02-.06-.06-.09-.08.05.04.09.09.15.13.55-6.25.67-5.04,1.35-7.77M806.13,951.78s0,0,0,0c-8.5-.04-57.66-1.63-49.67-13.93,0,0,0-.02.01-.03,6.47-15.86,7.37-32.62,9.16-49.36,0-.09.09-.16.18-.16,23.09.4,59.19,39.1,74.75,56.35,3.11,7.13-30.72,6.89-34.44,7.14ZM888.13,908.61c-.62-2.2-.62-4.96.03-7.12-.45,2.36-.42,4.75-.03,7.12Z"/>
        <path class="cls-13" d="M894.56,871.34c.72,2.18.53,4.18-1.15,5.89-2.28-2.99-2.1-3.92,1.15-5.89Z"/>
        <path class="cls-13" d="M930.27,826.78c-2.19.39-3.96-.29-5.31-2.05,3.6-1.16,3.65-1.14,5.31,2.05Z"/>
        <path class="cls-13" d="M896.27,863.64c.79,1.59.46,2.92-.92,4-1.88-2.14-1.82-2.39.92-4Z"/>
        <path class="cls-13" d="M898.49,855.99c.59,1.62.3,2.98-1.19,3.98-1.89-2.14-1.72-2.69,1.19-3.98Z"/>
        <path class="cls-13" d="M904.52,838.76c.47,2.27-.52,3.9-2.27,5.19-.89-3.62-.88-3.64,2.27-5.19Z"/>
        <g>
          <path class="cls-13" d="M890.34,922.65c-.39,1.22,0,2.12,1.14,2.7.18-1.13-.18-2.04-1.14-2.7Z"/>
          <path class="cls-13" d="M891.57,925.5q.85,1.82,2.18.43c-.73-.14-1.45-.28-2.18-.43Z"/>
        </g>
        <path class="cls-2" d="M896.63,923.32c-4.14,6.62-6.44,2.38-7.27-2.82-1.33-7.85-.2-20.13.85-29.05,2.51-19,7.14-37.91,15-55.46,2.98-6.26,3.33-16.14,15.51-16.14s12.86,6.82,9.55,16.02c-1.28,3.56-3.06,7.83-4.44,11.56-6.56,17.18-13.37,34.45-19.53,51.75-2.88,7.89-5.4,16.97-9.6,24.02l-.08.12Z"/>
      </g>
    </g>
  </g>
</svg>