<?xml version="1.0" encoding="UTF-8"?>
<svg id="Layer_1" xmlns="http://www.w3.org/2000/svg" viewBox="0 0 1763.11 1059.39">
  <defs>
    <style>
      .cls-1 {
        fill: #efc2a0;
      }

      .cls-2 {
        fill: #a26158;
      }

      .cls-3 {
        fill: #06c9fe;
      }

      .cls-4 {
        fill: #e8d8d6;
      }

      .cls-5 {
        fill: #b87866;
      }

      .cls-6 {
        fill: #08cafe;
      }

      .cls-7 {
        fill: #a26057;
      }

      .cls-8 {
        fill: #d89979;
      }

      .cls-9 {
        fill: #8c4b42;
      }

      .cls-10 {
        fill: #32d2fe;
      }

      .cls-11 {
        fill: #f1c4a1;
      }

      .cls-12 {
        fill: #f0c3a1;
      }

      .cls-13 {
        fill: none;
      }

      .cls-14 {
        fill: #a26157;
      }

      .cls-15 {
        fill: #e2a385;
      }

      .cls-16 {
        fill: #49d0f4;
      }

      .cls-17 {
        fill: #01aaf9;
      }

      .cls-18 {
        fill: #aa695c;
      }

      .cls-19 {
        fill: #b06f60;
      }

      .cls-20 {
        fill: #68defd;
      }

      .cls-21 {
        fill: #08c9fd;
      }

      .cls-22 {
        fill: #fdfbfa;
      }

      .cls-23 {
        fill: #e29873;
      }

      .cls-24 {
        fill: #30d2fe;
      }
    </style>
  </defs>
  <path class="cls-13" d="M1755.67,701.7c-2.15-1.92-4-4.62-6.52-5.57-3.98-1.5-8.41-1.83-12.65-2.65-.66-.48-1.27-1.08-2-1.41-15.26-6.86-25.82-18.23-32.03-33.65-3.84-9.54-4.78-19.5-3.48-29.69l4.27-12.92c1.35-2.01,2.71-4.02,4.06-6.02,2.22-2.21,4.47-4.4,6.66-6.65,2.54-2.62,2.66-4.75.27-8.16-5.1-7.27-9.2-15.25-13.91-22.81-.85-1.37-2.69-3.05-4.04-3.03-16.8.31-33.59,1.04-50.39,1.41-36.45.8-72.91,1.46-109.36,2.16-22.97.44-45.95.75-68.92,1.39-2.05.06-4.81,1.61-5.95,3.32-10.74,16.2-26.13,22.25-44.76,20.09-11.25-1.3-20.06-7.11-23.83-18.54-.95-2.88-2.61-3.32-5.21-3.24-13.64.4-27.29.62-40.93,1.11-1.49.05-3.22,1.17-4.36,2.29-4.5,4.41-8.27,9.76-13.29,13.41-21.83,15.86-46.47,22.02-73.34,20.49-17.75-1.01-31.94-8.15-42.8-22.17-.87-1.12-2.71-1.87-4.19-2.05-2.62-.32-5.32-.08-7.98-.05-19.12.22-38.24.45-57.35.68,7.39-14.97,13.1-30.51,16.72-46.85,7.94-35.8,18.02-70.68,44.96-97.77,6.2-5.77,12.16-11.82,18.63-17.26,21.05-17.69,43.36-33.09,71.58-36.97,4.24-.58,4.73-3.48,4.45-6.92.78-6,1.56-12,2.34-18,.6-.25,1.18-.69,1.79-.73,14.95-.82,29.89-2.14,44.85-2.27,29.97-.26,59.96.14,89.93.24,11.67.04,21.05-6.72,24.43-18.06,9.95-33.44,13.7-67.56,11.05-102.4-1.38-18.16-4.32-35.9-11.32-52.82-3.44-8.32-18.68-17.34-27.68-15.97-12.63,1.92-25.26,3.94-37.82,6.25-14.21,2.61-28.35,5.64-42.54,8.39-19.56,3.79-39.14,7.49-58.71,11.22-2.12-5.57-4.28-11.13-6.35-16.73-1.3-3.51-3.64-4.58-7.34-4.1-11.26,1.45-22.49,1.65-33.7-.88-6.13-1.38-12.43-2-18.65-2.97-1.27-.38-2.52-.82-3.81-1.14-13.34-3.33-25.9-8.44-37.63-15.7-15.07-9.32-24.29-23.58-32.58-38.47-7.03-12.64-13.19-25.77-19.71-38.69-12.72-25.2-31.1-44.72-56.91-56.79-43.14-20.17-88.18-28.58-135.62-21.69-28.68,4.16-57.32,8.56-85.97,12.87-51.71,7.78-103.41,15.6-155.11,23.38-52.37,7.88-104.73,15.73-157.1,23.58-50.06,7.51-100.12,14.99-150.17,22.5-45.6,6.84-91.23,13.5-136.78,20.65-32.35,5.08-64.54,11.17-96.9,16.14-14.96,2.3-29.32,6.14-43.06,12.29-19.54,8.74-38.34,18.51-52.93,34.97-16.33,18.42-30.84,38.04-42.17,59.92-7.05,13.62-13.88,27.4-15.35,43.02-2.38,25.2-5.33,50.38-6.82,75.64-1.32,22.42-.98,44.94-1.37,67.42-.08,1.82-.3,3.65-.22,5.47,1.47,32.74,2.17,65.55,4.71,98.21,2.19,28.17,6.49,56.17,9.86,84.25,1.74,10.75,3.48,21.51,5.22,32.26.14.99.25,1.98.44,2.96,2.04,10.56,2.96,21.45,9.02,30.83,6.15,10.23,11.44,21.11,18.63,30.55,18.56,24.38,39.17,46.46,71.26,52.83,20.69,4.11,41.35,8.34,62.03,12.51,6.56.9,13.1,2.32,19.69,2.62,21.41.96,42.85,1.5,64.27,2.21,25.74,2.78,51.45.38,77.12-.98,26.55-1.41,53.06-3.72,79.59-5.64.09,7.32.03,14.65.41,21.96.07,1.42,1.59,3.55,2.91,4.01,15.34,5.42,22.82,22.37,21.66,35.48-1.33,15.1-9.52,26.02-23.63,32.01-3.07,1.31-4.22,2.97-4.24,6.32-.11,24.47-.42,48.95-.61,73.42-.01,1.57.53,3.15.82,4.73l-.24,7.37c-.18,6.38-.46,12.75-.43,19.13,0,1.03,1.13,2.62,2.11,3,7.4,2.91,12.31,8.65,17.13,14.53,10.74,21.11,9.17,41.67-2.51,61.91-.59,1.02-.02,3.47.88,4.45,5.36,5.82,11.34,8.68,20.09,8.19,22.6-1.26,45.28-1,67.93-1.32,51.79-.75,103.58-1.73,155.38-2.04,11.23-.07,21.42-1.03,29.57-9.56.34-.35.82-.57,1.24-.84,43.03-28.08,90.32-39.09,141.23-34.54,16.48,1.47,32.5,5.46,46.59,14.93.78.53,1.56,1.07,2.35,1.6,1.96.64,3.91,1.27,5.87,1.91,4.13,1.44,7.98.3,12.02-.85,5.99-1.7,12.11-3.13,18.28-3.93,11.59-1.51,22.25.2,30.82,9.5,3.22,3.49,7.77,5.75,11.72,8.57h0c1.28,1.02,2.45,2.73,3.85,2.94,8.17,1.19,16.37,2.57,24.6,2.87,12.9.47,25.83.26,38.74.09,10.29-.13,20.57-.74,30.87-.89,3.95-.06,7.97,1.17,11.86.78,11.57-1.15,23.05-2.48,34.79-2.05,13.84.51,27.73-.51,41.61-.8,17.48-.37,34.96-.72,52.44-.97,9.49-.13,18.99-.33,28.46.04,14.41.56,28.43-3.6,43-2.35,12.17,1.04,24.55-.57,36.84-.65,7.45-.05,14.91.85,22.37.86,6.96,0,13.91-.63,20.87-.92,7.29-.31,14.59-.53,21.88-.83,4.89-.2,9.77-.5,14.66-.7,7.25-.3,14.5-.58,21.76-.81,6.46-.2,12.93-.4,19.4-.47,8.75-.09,17.51.05,26.26-.08,5.11-.08,10.22-.74,15.33-.72,8.72.05,17.44.71,26.15.56,5.09-.08,10.15-1.67,15.24-1.81,11.07-.31,22.16,0,33.24-.17,14.46-.22,28.91-.71,43.36-.96,22.78-.39,45.57-.65,68.35-1.08,1.41-.03,2.8-1.04,4.2-1.59,2.32-.05,4.64-.1,6.95-.14,1.66-.09,3.33-.18,4.99-.27,4.74-.21,9.49-.51,14.23-.62,2.93-.07,4.26-1.33,3.91-4.27.93-1.14,2.53-2.22,2.64-3.44.22-2.4-.23-4.91-.66-7.32-2.22-12.29-2.12-24.27,3.94-35.67,1.04-1.97,1.31-4.35,1.93-6.54,2.4-1.95,4.77-3.94,7.22-5.84,2.35-1.83,3.04-3.59,1.75-6.74-2.15-5.25-3.46-10.85-5.13-16.3.99-10.53,5.63-19.26,14.12-25.36,5.05-3.63,10.99-6.07,16.66-8.76,2.79-1.33,5.46-2.17,5.49-6.08.05-6.48.52-12.95.72-19.43.68-22.6,1.37-45.21,1.96-67.81.81-31.09,1.53-62.18,2.32-93.28.08-3.32.22-6.65.66-9.94.48-3.66-.35-6.57-3.6-8.56-1.24-1.65-2.47-3.31-3.71-4.97Z"/>
  <path class="cls-15" d="M1143.61,589.43c19.12-.23,38.24-.46,57.36-.68,2.66-.03,5.36-.27,7.98.05,1.48.18,3.32.93,4.19,2.05,10.87,14.03,25.05,21.16,42.8,22.17,26.88,1.53,51.51-4.63,73.34-20.49,5.02-3.65,8.79-9,13.29-13.41,1.14-1.11,2.86-2.23,4.36-2.29,13.64-.49,27.29-.71,40.93-1.11,2.6-.08,4.26.36,5.21,3.24,3.77,11.42,12.57,17.23,23.83,18.54,18.63,2.16,34.02-3.89,44.76-20.09,1.14-1.72,3.9-3.27,5.95-3.32,22.97-.64,45.95-.95,68.92-1.39,36.45-.7,72.91-1.36,109.36-2.16,16.8-.37,33.59-1.1,50.39-1.41,1.35-.02,3.19,1.66,4.04,3.03,4.71,7.56,8.81,15.54,13.91,22.81,2.39,3.41,2.28,5.54-.27,8.16-2.18,2.25-4.43,4.44-6.66,6.65-1.52-.52-3.07-1.55-4.55-1.46-5.97.36-11.94.95-17.88,1.69-2.02.25-3.93,1.26-5.93,1.76-1.2.3-2.81.86-3.66.35-6.37-3.79-12.11,1.03-18.17,1.09-3.7.03-7.4.29-11.1.31-4.45.02-8.91-.12-13.36-.11-.17,0-.33.86-.49,1.32,0,0,.01-.01.01-.01l-3.94-.79c-2.7.35-5.4.7-8.11,1.04-.65-.09-1.29-.18-1.94-.27-.91-.58-1.83-1.66-2.74-1.65-2.61.02-5.22.74-7.82.68-2.72-.06-6.03-1.88-8-.86-3.7,1.93-6.32,1-9.4-.7-.91-.51-2.27-.31-3.42-.29-7.25.12-14.52.59-21.75.31-3.68-.14-7.41-1.32-10.94-2.53-3.4-1.17-4.03.73-4.32,3.17-.15,1.28.19,2.62.32,3.93-.37,4.13,1.55,6.89,5.19,8.55,12.87,5.88,26.75,7.65,40.55,8.22,15.72.65,31.51-.44,47.26-.78.5-.01,1-.04,1.49-.08,18.12-1.31,36.25-2.62,54.37-3.94-1.29,10.18-.35,20.15,3.48,29.69,6.2,15.42,16.77,26.79,32.03,33.65.73.33,1.34.94,2,1.41-7.7.76-15.38,1.7-23.1,2.21-4.7.31-9.72.94-14.11-.3-6.72-1.89-13.35-1.14-19.84-.51-5.77.56-11.74-1.38-17.45,1.55-2.13,1.1-5.36,1.02-7.81.37-6.64-1.74-13.13-.71-19.69.06-1.55.18-3.16-.14-4.74-.23-4.88-.28-9.76-.57-14.63-.85-.98-.34-1.95-.67-2.93-1.01-22.15-11.16-45.41-17.06-70.39-15.06-12.73,1.02-24.71,4.59-36.07,10.31-1.03.52-1.7,1.77-2.53,2.69-.61.35-1.22.71-1.83,1.06-1.46.21-3.64-.12-4.25.71-2.52,3.44-4.67,7.17-6.54,11-.13.26,3.23,2.21,6.54,4.44-1.26.57-2.43,1.21-3.66,1.65-5.57,2-6.4,6.31-6.38,11.59.02,7.94-.44,15.89-.95,23.82-.38,5.92-1.38,11.81-1.68,17.73-.47,9.24-.73,18.5-.8,27.75-.07,10.19.85,20.43.11,30.56-.76,10.33-.87,20.45,1.5,30.55-3.62-.29-7.48-1.5-10.79-.63-3.91,1.03-6.3-1.13-9.29-2.18,5.5-4.93,5.78-11.56,4.8-17.94-.84-5.45-2.31-11.49-8.48-13.75-12.69-4.65-25.86-3.97-38.96-2.5-5.55.62-11.01,1.97-17.42,3.15.47-4.08.89-7.72,1.37-11.92,2.91.31,5.49.97,8.02.79,11.89-.83,23.79-1.64,35.63-2.95,9.7-1.07,11.73-1.5,11.09-12.11-.15-2.42,0-4.21,2.81-5.5,3.59-1.65,3.88-4.65,1.18-7.72-1.09-1.24-2.13-2.53-3.2-3.79-.31-.55-.62-1.1-.93-1.64,2.24-5.23.97-8.14-3.96-9.09l.04.04c-2.84-.99-5.77-3.04-8.5-2.79-12.63,1.14-25.2,2.92-39.35,4.67,1.48-2.25,1.97-3.81,3.02-4.44,2.41-1.44,4.98-2.86,7.67-3.53,11.23-2.82,22.6-5.1,33.76-8.13,4.83-1.32,9.88-3.25,13.76-6.27,3.74-2.92,5.96-7.73,9.12-11.48,2.06-2.45,2.04-4.48-.3-6.43-3.13-2.59-6.39-5.03-8.97-7.03.48-2.38.88-4.38,1.27-6.37-2.17-.25-4.35-.79-6.5-.66-2.12.13-4.19.93-6.28,1.44l-4.43-4.01c-.5-.1-1-.2-1.5-.3l.24-.22c-4.42-4.72-10.05-2.93-14.86-1.84-11.59,2.62-23.17,5.62-34.39,9.51-11.86,4.12-23.84,8.28-34.1,15.99-6.35,4.77-6.76,7.5-1.43,13.78-5.23,5.03-3.37,9.8.75,14.69,1.01,1.19,1.17,3.5.99,5.23-1.21,11.67-2.47,23.34-3.99,34.97-1.26,9.66-2.89,19.27-4.32,28.91-.86,5.78-4.75,11.09-2.69,17.32-3.55.64-7.47-2.31-10.74,1.1-.85-7.88-1.61-15.77-2.55-23.63-1.93-16.12-11.28-28.69-20.16-41.44-1.56-2.24-1.83-3.41.55-5.24,2.6-1.98,5.34-4.26,6.89-7.04,6.43-11.54,12.74-23.16,18.49-35.05,3.8-7.84,3.39-16.68,2.16-24.95-.53-3.57-4.99-6.56-7.67-9.82l.05.06c-.37-6.1-1.87-6.97-6.54-5.35-1.97-1.17-3.24-1.93-4.51-2.68,0,0,.05.05.05.05-1.51-3.26-7.83-7.58-10.81-6.93-1.2.26-2.09,1.91-3.12,2.93,0,0,.04-.09.04-.09l-6.02,3.91c-.38.37-.76.74-1.14,1.12-1.13-.29-2.51-.26-3.34-.93-3.75-3.04-6.7-2.4-8.13,2.24-2.09,6.77-4.04,13.6-5.83,20.45-2.83,10.85-11.21,16.4-20.6,22.55,0-3.3-.06-5.58.01-7.86.14-4.44.8-8.92.43-13.31-.91-10.85-2.61-21.64-3.36-32.5-.57-8.2-4.16-13.98-11.04-18.19-2.25-1.38-4.47-3.23-5.93-5.39-3.71-5.5-8.29-7.18-14.47-4.97-3.75,1.34-7.65,3.38-11.43,3.27-7.8-.23-10.96,2.2-10.39,9.79-.93,1.59-1.86,3.17-2.79,4.76-2.03.97-3.99,2.13-6.1,2.89-6.32,2.27-10.8,9.94-9.7,16.52,2.66,15.97,5.81,31.89,7.69,47.95,3.13,26.76,5.39,53.62,8.08,80.43.88,8.78,1.94,17.54,2.92,26.31-4.47-.78-8.92-2.08-13.41-2.19-5.5-.13-11.03.73-16.55,1.17.34-2.42.92-4.84.96-7.27.05-3.22.47-6.87-4.11-7.72-1.96-.73-4.74-.88-5.74-2.29-3.07-4.29-5.46-9.07-8.11-13.66-.95-4.18-3.12-5.03-8.66-3.72-2.14.51-4.69,1.39-6.52.69-5.83-2.2-10.63-.76-15.2,2.87-3.85,3.06-7.72,6.08-11.5,9.06-6.15-5.31-9.55-18.63-6.65-26.64,3.51-9.7,9.22-18.02,17.32-24.49,8.07-6.45,14.73-4.69,19.73,4.67.77,1.44,2.61,3.11,4.08,3.23,6.78.56,13.56.96,19.65-3.43,2.7-1.95,6-3.24,9.2-4.3,4.44-1.47,5.55-3.46,4.29-7.87-.51-1.77-.29-3.87.08-5.73.92-4.57,2.51-9.04,3.02-13.64.24-2.11-.86-4.91-2.31-6.58-3.48-4.03-9.18-6.09-10.34-12.26-.22-1.15-2.03-2.09-3.24-2.94-9.41-6.63-20.12-8.71-31.38-9.08-3.61-.12-7.18-1.03-10.79-1.47-1.8-.22-3.71-.62-5.42-.26-8.5,1.8-17.52,1.96-25.08,6.91-7.64,5.01-15.05,10.38-17.39,20.05-.89.62-1.77,1.24-2.66,1.85-.4.35-.8.7-1.2,1.05l.06-.05c-.35.35-.7.7-1.05,1.04h.05c-1.36.54-3.29.7-3.99,1.7-4.14,5.98-9.18,11.72-11.67,18.38-3.44,9.2-5.39,19.05-7.08,28.78-2.37,13.67-2.27,27.44,2.81,40.6,1.75,4.53,4.9,8.52,7.55,12.99-3.81,2.91-2.2,5.66.71,8.37,5.33,4.95,10.37,10.25,15.99,14.83,6.36,5.18,12.53,10.84,21.8,10.65,4.67-.1,9.44.92,14.05,1.93,7.97,1.74,15.03.19,21.62-4.56,3.33-2.41,6.95-4.46,10.58-6.42,4.78-2.58,9.7-4.9,14.55-7.33,2.97-2.84,7.87-3.94,8.2-9.15,3.54-.4,7.08-1.1,10.62-1.13,5.83-.05,11.7.07,17.5.64,3.76.37,6.32-1.57,5.88-5.41.28-.31.56-.63.84-.94,1.36,4.78,2.73,9.57,4.14,14.5,1.38-1,2.52-1.84,3.67-2.68.44.19.89.39,1.33.58-.7,3.51-1.39,7.02-2.09,10.53-.52,3.54,4.78,14.26,7.71,15.37.87.33,1.91.38,2.85.31,2.13-.15,4.26-.46,6.38-.7,4.44,4.78,12.67,6.76,16.6,3.63,2.39-1.9,3.74-5.16,7.42-5.24-.05-.8-.09-1.61-.14-2.41.25-.89.26-2.36.8-2.59,2.66-1.13,5.46-1.94,8.08-2.81v-5.29c.16-.13.32-.27.48-.4.39.65.77,1.31,1.53,2.59,1.44-3.14,2.4-5.24,3.37-7.35,8.45.32,16.91.76,25.37.94,19.79.41,39.57.72,59.36.98,1.72.02,3.44-.66,5.16-1.01,12.1,7.83,24.49,5.32,36.93,1.02,1.22.34,2.43.94,3.67.99,8.61.41,17.22.85,25.84,1.01,23.6.42,47.19.72,70.79.99,1.56.02,3.13-.6,4.7-.92,6.83.88,13.85,3.18,20.46,2.33,12.89-1.66,25.58-4.93,38.28-7.86,6.1-1.41,12.6-2.57,17.91-5.61,10.16-5.8,20.05-12.31,29.2-19.59,6.69-5.32,12.77-11.82,17.72-18.79,4.63-6.53,7.27-14.45,11.04-21.63,8.95-17.05,8.94-35.03,5.69-53.32-2.16-12.15-11.16-20.87-16.32-31.53,3.94-.34,7.88-.84,11.83-1,17.84-.73,35.69-1.44,53.54-2,14.73-.46,29.47-.91,44.2-.92,5.74,0,10.39-1.27,13.66-6.19,3.25,1.99,4.08,4.9,3.6,8.56-.43,3.28-.57,6.62-.66,9.94-.79,31.09-1.5,62.19-2.32,93.28-.59,22.61-1.28,45.21-1.96,67.81-.2,6.48-.67,12.95-.72,19.43-.03,3.92-2.7,4.76-5.49,6.08-5.67,2.7-11.61,5.13-16.66,8.76-8.49,6.1-13.14,14.83-14.12,25.36-16.61.59-33.22,1.17-49.83,1.78-18.11.66-36.22,1.34-54.32,2.03-17.11.65-34.22,1.32-51.32,1.97-17.61.67-35.22,1.34-52.82,2-17.77.67-35.55,1.34-53.32,2.01-17.27.66-34.55,1.32-51.82,1.98-17.61.67-35.22,1.34-52.82,2-17.77.67-35.55,1.34-53.32,2.01-17.27.66-34.55,1.33-51.82,1.98-17.61.67-35.22,1.34-52.82,2-17.77.67-35.55,1.36-53.32,1.99-19.61.7-39.21,1.44-58.83,1.97-19.47.53-38.94.8-58.41,1.23-2.31.05-4.62.63-6.93.59-7.12-.11-14.86,1.34-21.24-.94-17.62-6.29-35.2-11.7-54.01-13.14-18.85-1.44-36.74.75-53.63,9.71-2.09,1.11-5,1.31-7.43,1.04-14.65-1.64-29.23-4.1-43.91-5.18-9.73-.71-19.6.26-29.39.77-18.49.96-36.54,4.43-54.25,9.78-5.23,1.58-10.51,3.83-15.85,4.1-20.59,1.06-41.21,1.5-61.82,2.05-27.44.73-54.88,1.36-82.32,2.01-15.3.36-30.61.66-45.91,1.01-13.97.32-27.94.72-41.91.98-23.3.43-46.6.77-69.9,1.14-4.82-5.88-9.73-11.62-17.13-14.53-.98-.38-2.1-1.97-2.11-3-.02-6.38.26-12.75.43-19.13.75-.1,1.5-.2,2.25-.3.22,7.62,2.69,9.61,9.64,8.88,17.06-1.81,34.15-3.44,51.25-4.91,13.99-1.2,28.02-2,42.02-3.09,20.41-1.6,40.81-3.33,61.23-4.94,7.6-.6,11.37-3.09,13.87-10.48-2.87-.19-5.4-.36-7.93-.53-7.49-.64-14.97-1.58-22.48-1.82-6.06-.2-12.14.62-18.21.67-5.03.04-10.06-.6-15.09-.55-4.76.05-9.52.6-14.28.93-3.45-.06-6.91-.16-10.36-.18-2.59-.01-5.17.08-7.76.14-5.74.14-11.48.35-17.22.36-.77,0-1.54-.99-2.31-1.52.01.5.02,1.01.03,1.51-4.77.8-9.56,1.47-14.3,2.43-5.58,1.13-11.2-1.18-17.03,1.62-4.29,2.06-9.9.74-14.97,2.19-4.99,1.43-10.53.9-15.82,1.32-.78.06-1.53.59-2.29.91-.29-1.58-.83-3.15-.82-4.73.18-24.47.5-48.95.61-73.42.02-3.35,1.16-5.02,4.24-6.32,14.11-5.99,22.3-16.91,23.63-32.01,1.16-13.11-6.33-30.06-21.66-35.48-1.32-.47-2.83-2.59-2.91-4.01-.38-7.31-.32-14.64-.41-21.96.08-14.81.02-29.61.38-44.41.05-2.21,1.63-4.76,3.22-6.48,6.4-6.88,13.08-13.5,19.65-20.22,1.22-1.51,2.62-2.91,3.64-4.56,13.31-21.61,21.32-44.08,10.99-69.44-1.37-3.36-.26-5.07,3.42-5.21,4.65-.18,9.3-.53,13.95-.72,24.1-1.02,48.21-2.03,72.31-3.01,24.94-1.02,49.88-2,74.82-3.02,23.61-.97,47.22-2,70.83-2.94,36.26-1.45,72.51-2.85,108.77-4.26,18.96-.74,37.93-1.4,56.88-2.18,38.25-1.58,76.49-3.19,114.74-4.83,15.96-.69,31.91-1.5,47.87-2.25,14.79-.12,29.59-.35,44.38-.32,25.3.06,50.6.3,75.9.46ZM962.28,762.76l-1.06,1.06.06-.02c-2.84,2.62-6.7,4.72-8.31,7.95-5.11,10.21-9.56,20.76-13.89,31.33-3.02,7.37-5.61,14.93-4.9,23.17.79,9.23.85,18.56,2.27,27.69,1.14,7.34,3.39,14.72,11.64,17.8.89.33,1.57,1.22,2.41,1.74,8.42,5.22,16.33,11.58,26.66,12.69,2.89.31,5.86-.22,8.76,0,11.44.91,23.16,2.35,33.85-2.49,5.49-2.49,9.65-7.92,14.41-12.02l-.05.07c.34-.3.68-.6,1.02-.91,2.97-3.32,5.93-6.64,8.9-9.97,1.99-2.44,4-4.87,5.88-7.39.07-.09-1.15-1.15-1.77-1.76-.03-.61-.06-1.22-.08-1.84.65-2.26,1.75-4.55,1.67-6.78-.02-.66-3.41-1.19-5.34-1.8-.71-8.7-2.06-9.41-9.57-5.59-2.45-.97-5.04-2.94-6.21-2.3-6.02,3.27-11.67,7.22-17.48,10.9-1.38.88-2.77,1.9-4.3,2.36-5.29,1.57-10.64,2.93-15.97,4.35-2.18.58-4.38,1.08-6.58,1.62-8.86-1.14-13.47-6.04-13.42-15.11,0-.62-.36-1.24-.56-1.87.34-3.22.6-6.46,1.04-9.67.46-3.32,1.48-5.37,5.85-5.42,8.06-.1,16.11-1.24,24.15-2.05,12.05-1.21,24.08-2.86,36.16-3.65,9.95-.66,13.96-4.76,12.65-14.52-.11-.2-.1-.39.03-.58,6.48-.13,7.6-5.57,7.73-9.75.34-10.7.33-21.56-1.16-32.13-.87-6.18-5.42-11.45-11.82-14.1-1.95-1.18-3.75-2.84-5.86-3.46-5.67-1.66-11.7-2.3-17.18-4.4-10.25-3.92-19.61-1.38-28.5,3.29-6.85,3.6-13.12,8.33-19.5,12.76-1.76,1.22-3,3.19-4.49,4.82-3.87.26-6.08,2.49-7.18,6.04l.05-.08ZM605.2,795.74c.91-1.2,2.44-2.31,2.62-3.61.97-7.26,1.6-14.57,2.35-21.87.68-2.5,1.36-5.01,2.04-7.51,1.28-3.01,2.84-5.94,3.78-9.05,1.53-5.05,2.61-10.25,9.6-11.19-4.71-4.57-8.9-8.64-13.09-12.7-.73.02-1.47.04-2.2.06.25-3.02.34-6.07.78-9.06.58-3.92-1.49-6.14-4.99-4.78-2.41.93-4.61,2.42-6.9,3.66-.64-.6-1.82-1.16-1.85-1.79-.32-5.42-3.87-4.53-7.08-3.5-1.61.52-3.08,1.9-4.3,3.19-6.63,7-13.17,14.09-19.73,21.16-2.13-.2-4.28-.3-6.39-.6-7.31-1.04-14.55-2.13-21.93-.14-4.57,1.23-9.39,2.71-13.99,2.43-6.45-.39-12.84-.94-19.34-.88-10.38.09-20.77-3.86-31.17.06-.55.21-1.31-.22-1.96-.17-10.39.77-20.77,1.56-31.16,2.35-2.24.14-4.48.27-6.64.4-.81,6.85,1.39,10.65,7.84,11.62,4.8.73,9.81-.05,14.73-.06,34.33-.02,68.66-.01,102.99-.01-.67,1.68-1.23,3.41-2.02,5.04-7.66,15.9-12.81,32.45-11.92,50.3.69,13.71,1.58,27.44,3.16,41.07,1.12,9.64,2.62,19.43,5.57,28.63,6.02,18.71,24,31,43.67,30.91,7.78-.04,15.57-.82,23.35-.86,7.26-.04,13.3-2.54,18.24-7.7,2.75-2.87,5.24-5.99,7.77-8.91,2.2,1.32,3.33,1.96,4.43,2.66,12.47,7.99,25.54,13.65,40.69,8.84,5.9-1.87,11.69-3.32,17.96-3.32,2.15,0,4.45-2.05,6.42-3.52,9.58-7.1,14.8-17.16,18.8-28.04.66-1.79,1.79-3.4,2.71-5.1,1.25.35,2.53,1.07,3.76.99,8.26-.57,16.5-1.3,24.76-1.99,3.68,10.63,6.26,21.5,16.1,29.2,3.45,2.7,4.5,2.93,6.88.42,3.6,2.14,4.47,7.8,10.67,5.78,4.15-1.35,8.59-1.2,9.99-6.44.33-.33.66-.66.99-1,3.31-.7,6.67-1.22,9.92-2.14,4.91-1.39,9.41-7.45,9.06-12.59-.32-4.73-1.26-9.41-1.93-14.12,3.73-4.49,8.43.26,12.52-1.31,1.74-.67,3.67-1.09,5.53-1.16,5.6-.24,11.26.14,16.81-.47,4.84-.53,9.58-2.08,14.36-3.18.3.92.65,1.83.88,2.77,1.03,4.25,1.7,8.73,7.76,8.49.64-.03,1.63,1.12,1.95,1.92,3.28,8.1,3.52,8.22,10.63,4.01,4.91,4.97,10.04,2.66,14.91-.16,4.05-2.35,9.53-4.2,9.51-9.83-.03-9.59-.19-19.3-1.78-28.72-1.78-10.55-5.31-20.8-7.78-31.25-.44-1.86.01-4.49,1.08-6.06,6.35-9.31,13.23-18.25,19.47-27.63,5.29-7.95,7.29-17.3,6.81-26.55-.39-7.55-2.78-15.11-5.11-22.4-1.32-4.13-4.32-7.73-6.56-11.58,52.12,0,104.24,0,156.36,0,1.33,0,2.69-.11,3.99.09,11.23,1.73,22.16-.34,32.6-3.9,5.08-1.73,9.41-5.97,13.69-9.53,1.87-1.55,2.79-4.25,4.25-6.59-2.16-.32-4.56-.68-6.95-1.04-4.71-.65-9.4-1.49-14.12-1.89-6.6-.57-13.23-.81-19.85-1.17-.31-.02-.64.16-.96.24-8.34-.4-16.68-.79-25.02-1.19-.12-.09-.24-.17-.37-.26.14.07.27.14.41.21-2.94-.15-5.89-.37-8.83-.45-5.02-.13-10.04-.04-15.06-.29-5.9-.29-11.79-1.29-17.67-1.17-7.58.16-15.15,1.12-22.73,1.73-2.36.19-4.72.49-7.08.52-2.53.03-5.07-.26-7.6-.28-2.43-.02-4.87.16-7.3.16-6.52.02-13.05-.04-19.57-.02-8.23.02-16.63-.95-24.65.39-11.48,1.92-22.91.75-34.33,1.5-2.77.18-5.54.43-8.31.65-.28-.36-.52-.98-.86-1.04-6.95-1.28-13.87-2.75-20.87-3.64-5.72-.73-11.59-.33-17.28-1.18-10.98-1.63-21.26,1.06-31.53,4.2-3.06.93-6.1,1.95-9.15,2.93-1.18-.1-2.36-.2-3.54-.29-1.92-.14-4.5-1.12-5.66-.24-5.98,4.53-11.79-2.17-17.89.13-2.17.82-5.48-1.83-8.37-2.41-4.8-.96-8.44,1.94-7.43,5.57.84,3.03,7.38,5.56,10.51,5.37,4.69-.29,9.44.55,14.17.92-3.74,2.34-7.69,4.42-11.18,7.1-4.46,3.42-8.56,7.33-12.81,11.03-.32.63-.64,1.25-.96,1.88-1.36.84-3.1,1.38-4.02,2.56-3.45,4.42-6.03,9.73-10.1,13.4-3.34,3.02-2.95,5.89-2.65,9.3.19,2.13.75,4.27.69,6.39-.23,8.45-.64,16.9-.97,25.36-.31,7.95-.96,15.92-.81,23.86.13,6.92,1.09,13.84,1.82,20.74,1.25,11.82,2.6,23.64,3.92,35.45-6.96.99-13.92,1.98-20.88,2.97.94-1.5,2.06-2.91,2.77-4.51.75-1.7,1.38-3.54,1.59-5.37.25-2.26-.34-4.65.04-6.87,1.38-7.94,3.77-15.77,4.34-23.75.47-6.49-.95-13.15-1.83-19.7-1.47-10.95-2.27-22.11-5.03-32.75-2.72-10.47-7.86-20.28-11.35-30.58-2.84-8.37-5.61-15.94-14.94-19.82-6.99-2.91-12.08-3.45-17.75,1.58-5.96-2.39-9.5-1.43-13,4.04-2.77,4.32-5.52,8.73-7.64,13.39-2.59,5.7-3.66,11.47.23,17.46,2.76,4.27,5.15,9.01,6.56,13.88,6.25,21.53,6.59,43.44,2.12,65.29-1.26,6.17-4.84,11.86-7.35,17.77-.56-.15-1.12-.31-1.68-.46-.37-1.01-.98-2-1.06-3.04-1.39-16.31-2.81-32.61-3.99-48.94-.3-4.18-2.02-6.04-6.16-5.68,0,0,.04.05.04.05.14-4.58.56-9.34-6.66-7.55-.52.13-1.32-1.27-2.12-1.74-1.07-.63-2.36-1.61-3.41-1.45-5.05.79-10.38,1.15-14.97,3.13-4.52,1.95-8.71,5.24-12.23,8.76-2.9,2.9-2.36,8.7-7.86,9.86-.66.14-1.19,1.57-1.51,2.49-1.45,4.22-2.93,8.44-4.18,12.72-2.53,8.73-4.88,17.52-7.41,26.25-.29,1.02-1.21,1.86-2.64,3.99v-8.56c.27-5.72,1.93-11.83.48-17.08-2.2-7.99-2.49-15.87-2.47-23.93ZM1497.22,908.79c-5.94.13-11.89.13-17.82.44-3.38.18-7.53,2.33-9.91,1.02-3.95-2.17-7.9-.81-11.59-1.3-6.55-.86-13.49,1.01-20.24,1.97-1.49.21-3.82,1.12-4.04,2.11-.31,1.36,1,3.1,1.61,4.68,2.41,1.98,4.6,5.28,7.26,5.72,11.54,1.9,23.2,3.68,34.87,4.19,27.54,1.2,54.96-.97,82.02-6.08,12.77-2.41,25.18-6.72,37.73-10.25,3.26-.92,4.93-3.1,4.05-7.9-4.36.8-8.69,1.59-13.03,2.38-.94-.5-1.87-1.4-2.84-1.43-3.54-.13-7.65,1.19-10.53-.18-6.14-2.91-12.29-.23-18.49-1.16-9.67-1.45-19.95.94-29.94,2.02-9.73,1.05-19.41,2.51-29.12,3.79Z"/>
  <path class="cls-17" d="M.24,414.74c.39-22.48.05-45,1.37-67.42,1.49-25.26,4.44-50.43,6.82-75.64,1.47-15.62,8.3-29.4,15.35-43.02,11.32-21.88,25.84-41.5,42.17-59.92,14.59-16.46,33.38-26.23,52.93-34.97,13.75-6.15,28.1-9.99,43.06-12.29,32.36-4.98,64.55-11.07,96.9-16.14,45.55-7.15,91.18-13.8,136.78-20.65,50.06-7.51,100.11-15,150.17-22.5,52.37-7.85,104.74-15.71,157.1-23.58,51.71-7.78,103.41-15.59,155.11-23.38,28.65-4.31,57.29-8.71,85.97-12.87,47.44-6.88,92.48,1.53,135.62,21.69,25.82,12.07,44.19,31.59,56.91,56.79,6.52,12.92,12.68,26.05,19.71,38.69,8.29,14.89,17.51,29.15,32.58,38.47,11.74,7.26,24.29,12.37,37.63,15.7,1.28.32,2.54.76,3.81,1.14-.55.99-.86,2.27-1.68,2.92-7.01,5.56-13.93,11.24-21.21,16.42-18.17,12.94-37.65,23.62-58.11,32.48-2.03,1.02-4.06,2.03-6.1,3.05-.3.38-.6.75-.89,1.13,0,0,.07-.05.07-.05-1.74.34-3.55.49-5.22,1.04-10.9,3.59-21.77,7.26-32.64,10.91-.21-.8-.48-1.59-.63-2.41-8.01-44.35-33.51-75.72-72.62-96.47-34.11-18.1-70.94-23.54-108.97-19.88-32.84,3.16-64.63,10.24-92.69,29.36-15.96,10.88-23.35,25.26-21.13,44.19,3.5,29.91,7.57,59.75,11.32,89.64,1.94,15.51,3.69,31.04,5.53,46.57-7.29.66-14.58,1.33-21.88,1.99-.14-.82-.34-1.63-.4-2.45-2.27-29.2-4.43-58.41-6.83-87.6-1.95-23.74-20.92-41.88-44.33-42.73-22.89-.82-43.85,15.56-46.5,38.78-1.52,13.35.64,27.15,1.43,40.74.89,15.1,2.11,30.18,3.19,45.27-1.63-.19-3.29-.25-4.9-.58-7.11-1.45-14.2-2.98-21.29-4.48-.16-1.81-.41-3.63-.46-5.44-.66-24.14-1.2-48.29-1.96-72.42-1-31.58-29.98-55.03-60.88-49.41-25.55,4.64-43.32,25.77-43.16,51.75.09,14.99.74,29.97.97,44.96.02,1.49-.9,4.14-1.78,4.32-11.17,2.25-22.42,4.14-34.04,6.2-2.8-17.49-5.61-34.37-8.18-51.29-4.44-29.22-30.37-49.37-58.75-45.48-29.17,4-48.93,30.86-44.5,60.69,1.78,12.02,3.85,24,5.74,36.01,3.25,20.71,6.45,41.43,9.67,62.15-2.12.33-4.24.7-6.37,1-18.98,2.7-37.99,5.14-56.91,8.2-7.76,1.26-15.3,3.86-22.94,5.85-.98-.15-1.99-.2-2.94-.47-22.26-6.3-44.89-8.02-67.74-4.53-18.42,2.81-36.61,6.83-54.02,13.8-3.22,1.29-6.63,2.33-10.05,2.9-14.86,2.49-20.19-2.42-19.22-17.46.1-1.49.31-2.98.61-4.44,3.44-16.52,12.35-29.67,25.15-40.33,9.81-8.17,20.77-13.86,33.84-14.42,5.67-.25,9.96,1.64,13.48,6.71,17.98,25.91,53.42,32.7,79.82,15.63,26.71-17.27,35.03-52.33,18.78-79.59-7.06-11.84-15.96-22.21-26.68-30.85-34.71-27.94-74.39-35.81-117.15-26.2-57.88,13.02-99.36,47.99-126.76,99.94-15.44,29.28-22.27,60.72-17.92,93.72,1.77,13.38,6.55,26.37,9.96,39.54-6.43-.32-12.89-.39-19.29-1.02-9.66-.96-19.5-1.41-28.88-3.68-17.12-4.14-33.96-9.45-50.92-14.27Z"/>
  <path class="cls-7" d="M437.74,984.79c23.3-.38,46.6-.72,69.9-1.14,13.97-.26,27.94-.66,41.91-.98,15.3-.35,30.61-.65,45.91-1.01,27.44-.65,54.88-1.28,82.32-2.01,20.61-.55,41.23-1,61.82-2.05,5.34-.27,10.62-2.52,15.85-4.1,17.71-5.35,35.77-8.82,54.25-9.78,9.79-.51,19.66-1.49,29.39-.77,14.68,1.08,29.26,3.53,43.91,5.18,2.43.27,5.34.07,7.43-1.04,16.88-8.96,34.78-11.14,53.63-9.71,18.81,1.44,36.39,6.85,54.01,13.14,6.38,2.28,14.12.84,21.24.94,2.31.04,4.61-.54,6.93-.59,19.47-.43,38.94-.7,58.41-1.23,19.61-.53,39.22-1.27,58.83-1.97,17.78-.63,35.55-1.32,53.32-1.99,17.61-.66,35.22-1.33,52.82-2,17.27-.66,34.55-1.33,51.82-1.98,17.77-.68,35.55-1.34,53.32-2.01,17.61-.67,35.22-1.33,52.82-2,17.27-.66,34.55-1.33,51.82-1.98,17.77-.68,35.55-1.34,53.32-2.01,17.61-.67,35.22-1.33,52.82-2,17.11-.65,34.22-1.33,51.32-1.97,18.11-.69,36.22-1.36,54.32-2.03,16.61-.61,33.22-1.19,49.83-1.78,1.67,5.45,2.98,11.05,5.13,16.3,1.29,3.15.6,4.91-1.75,6.74-2.44,1.9-4.81,3.89-7.22,5.84-1.97,2.37-4.29,4.52-5.84,7.13-10.23,17.25-10.41,32.16-2,45.84.35,2.94-.98,4.2-3.91,4.27-4.75.11-9.49.4-14.23.62-1.66.09-3.33.18-4.99.27-2.32.05-4.64.1-6.95.14-1.15-.12-2.31-.35-3.46-.33-38.96.64-77.93,1.3-116.89,1.95-39.96.67-79.92,1.34-119.89,2.02-38.8.66-77.59,1.33-116.39,2.01-39.13.68-78.25,1.37-117.38,2.06-38.63.68-77.25,1.42-115.88,2-33.47.51-66.94.88-100.41,1.2-3.26.03-6.53-.76-9.8-1.17h0c-10.35-25.9-47.69-33.31-72.83-13.3-1.96-.64-3.91-1.27-5.87-1.91-.78-.53-1.56-1.07-2.35-1.6-14.09-9.47-30.12-13.46-46.59-14.93-50.91-4.55-98.21,6.47-141.23,34.54-.42.27-.9.49-1.24.84-8.15,8.53-18.34,9.49-29.57,9.56-51.8.31-103.59,1.29-155.38,2.04-22.65.33-45.33.07-67.93,1.32-8.75.49-14.72-2.38-20.09-8.19-.9-.98-1.46-3.43-.88-4.45,11.68-20.24,13.25-40.8,2.51-61.91Z"/>
  <path class="cls-23" d="M1143.13,229.72c2.03-1.02,4.06-2.03,6.1-3.05,2.81-.13,5.68.07,8.42-.43,26-4.79,52-9.61,77.96-14.61,20.25-3.9,40.45-8.05,60.67-12.1,19.57-3.74,39.15-7.43,58.71-11.22,14.19-2.75,28.32-5.78,42.54-8.39,12.57-2.31,25.19-4.33,37.82-6.25,9-1.37,24.24,7.65,27.68,15.97,7,16.92,9.94,34.66,11.32,52.82,2.65,34.85-1.1,68.96-11.05,102.4-3.37,11.34-12.75,18.1-24.43,18.06-29.98-.1-59.96-.51-89.93-.24-14.95.13-29.9,1.45-44.85,2.27-.61.03-1.19.47-1.79.73-3.66.02-7.32-.12-10.97.08-18.95,1.01-37.9,2.09-56.85,3.19-25.1,1.46-50.21,2.75-75.28,4.58-7.11.52-12.2-1.78-15.18-7.79-3.37-6.81-7.03-13.79-8.64-21.11-8.49-38.51-7.61-76.62,6.91-113.81,0,0-.07.05-.07.05.3-.38.6-.75.89-1.13Z"/>
  <path class="cls-16" d="M1023.34,589.29c-15.96.75-31.91,1.57-47.87,2.25-38.24,1.65-76.49,3.26-114.74,4.83-18.96.78-37.92,1.44-56.88,2.18-36.26,1.41-72.52,2.81-108.77,4.26-23.61.94-47.22,1.97-70.83,2.94-24.94,1.02-49.88,2-74.82,3.02-24.11.99-48.21,1.99-72.31,3.01-4.65.2-9.3.55-13.95.72-3.68.14-4.79,1.84-3.42,5.21,10.33,25.36,2.32,47.83-10.99,69.44-1.01,1.64-2.41,3.04-3.64,4.56-1.57.47-3.24.73-4.69,1.46-9.73,4.86-19.25,9.81-29.77,13.29-19.01,6.29-37.38,14.51-55.94,22.09-23.16,9.46-46.36,18.84-69.31,28.81-7.15,3.11-13.52,8.01-20.25,12.09-21.42-.71-42.86-1.25-64.27-2.21-6.59-.29-13.13-1.71-19.69-2.62.78-1.22,1.35-2.66,2.37-3.63,9.87-9.33,19.86-18.53,29.7-27.89,1.36-1.3,2.12-3.22,3.16-4.86,16.9,2.14,33.81,2.71,50.77.66,44.99-5.46,83.63-24.49,117.02-54.73,16.8-15.22,30.26-33.13,41.96-52.43,9.29-2.15,18.58-4.31,28.18-6.53q-8.28-11.11-20.53-7.5c-.16.05-.33.05-.49.08,2.41-6.02,4.83-12.04,7.24-18.06,8.91-3.3,18.09-4.97,27.57-3.91,9.9,1.11,19.16-1.4,28.43-4.19,9.26,4.96,19.18,6.2,29.49,5.12,4.79-.5,9.57-1.07,14.36-1.59,22.79-2.46,45.59-4.84,68.37-7.4,16.49-1.85,32.96-3.93,49.44-5.9,2.13.54,4.25,1.48,6.4,1.54,3.62.1,7.24-.42,10.87-.55,8.04-.28,16.13,0,24.09-.87,7.18-.78,14.19-3.01,21.35-4.19,13.46-2.23,26.86-4.88,38.66-11.96,5.37-3.22,10.66-3.45,16.21-2.84,5.06.56,9.99,2.24,15.04,3.08,7.91,1.32,15.88,4.73,23.91,1.54,10.98-4.36,22.42-6.5,33.94-8.73,7.55-1.46,14.75-4.73,22.1-7.19,2.04.62,4.09,1.2,6.11,1.86,10.52,3.44,20.91,2.96,31.05-1.34,11.27-4.78,18.56-13.53,23.49-24.48,4.74-1.3,7.29-4.46,8.95-9.08,1.09-3.03,3.37-5.79,5.59-8.23,3.43-3.77,7.47-6.99,10.88-10.78,5.85-6.5,12.49-11.91,20.33-15.73,1.13-.55,3.44-.1,4.43.77,5.36,4.67,10.97,5.78,17.89,3.51,20.45-6.71,40.86-13.69,61.65-19.21,18.81-4.99,38.03-8.51,57.19-12.07,10.84-2.02,21.88-3.12,32.89-4.02,6.31-.52,11.52-2.17,15.59-7.28,3.18-3.98,7.39-6.6,12.71-6.84,6.99-.31,10.9-5.36,9-12.22-1.03-3.71-2.86-7.2-4.33-10.79,4.47-1.21,8.93-2.49,13.42-3.63,8.87-2.26,17.48-6.44,27.06-2.54,2.8,1.14,6.18.98,9.31,1.12,14.44.65,27.69-4.23,41.02-8.84,8.27-2.86,16.63-5.47,24.94-8.2.29,3.44-.2,6.34-4.45,6.92-28.21,3.88-50.52,19.28-71.58,36.97-6.47,5.44-12.44,11.49-18.63,17.26-1.45-1.27-2.8-2.68-4.36-3.78-2.4-1.69-4.94-3.18-8.36-5.34,2.11,14.88-3.78,25.77-10.95,36.05-10.77,15.45-23.86,28.85-38.56,40.55-14.37,11.43-28.76,22.94-43.91,33.28-24.13,16.47-49.52,30.94-75.82,43.72Z"/>
  <path class="cls-3" d="M.24,414.74c16.96,4.82,33.8,10.13,50.92,14.27,9.38,2.27,19.21,2.72,28.88,3.68,6.4.63,12.86.7,19.29,1.02.95,1.74,1.95,3.45,2.83,5.21,13.67,27.25,34.42,47.14,62.18,59.65,35.15,15.85,71.09,12.83,107.13,3.95,7.19-1.77,13.78-2.64,19.71,2.63,6.16,5.47,7.4,12.7,5.48,20.13-1.3,5.04-4.24,9.65-6.45,14.45-5.24.67-10.47,1.73-15.73,1.93-14.61.56-29.23.75-43.85,1.1-.67.02-1.33.08-1.99.09-9.1.14-18.21.21-27.31.47-1.7.05-3.39.82-5.08,1.25-15.5-3.97-31.07-5.19-46.86-1.68-16.74,3.71-30.8,12.13-43.03,23.91-1.31.12-2.75-.07-3.91.42-13.16,5.47-26.29,11.03-39.4,16.61-1.97.84-3.73,2.29-5.76,2.83-12.74,3.41-25.05,7.83-36.61,14.25-1.8,1-4.05,1.18-6.09,1.75-3.37-28.08-7.67-56.08-9.86-84.25C2.19,485.76,1.48,452.96.02,420.21c-.08-1.82.14-3.64.22-5.47Z"/>
  <path class="cls-21" d="M1299.96,383.66c-8.32,2.72-16.67,5.33-24.94,8.2-13.33,4.61-26.58,9.5-41.02,8.84-3.13-.14-6.52.02-9.31-1.12-9.58-3.9-18.19.28-27.06,2.54-4.49,1.14-8.95,2.42-13.42,3.63-7.04-.85-14.18-1.27-21.09-2.73-4.21-.89-7.95-4.44-12.14-4.97-10.33-1.32-20.8-2.13-31.21-2.13-11.25,0-22.54.76-33.74,1.91-14.45,1.48-28.96,2.99-43.18,5.81-9.85,1.95-19.32,5.92-28.84,9.35-6.67,2.41-13.26,5.16-19.64,8.25-6.27,3.03-12.21,6.75-18.36,10.05-9.05,4.85-18.24,9.44-27.2,14.45-6.77,3.8-13.27,8.09-19.89,12.16-1.21-8.5-2.43-17-3.68-25.74,4.82-.34,9.19-.18,13.35-1.01,44.99-9.04,84.44-28.89,117.31-61.14,22.31-21.89,38.22-47.63,45.78-78.21,4-16.18,4.33-32.56,2.76-49.05,10.88-3.65,21.75-7.32,32.64-10.91,1.67-.55,3.48-.7,5.22-1.04-14.52,37.19-15.4,75.29-6.91,113.81,1.61,7.33,5.27,14.3,8.64,21.11,2.98,6.01,8.07,8.31,15.18,7.79,25.07-1.83,50.18-3.12,75.28-4.58,18.95-1.1,37.9-2.17,56.85-3.19,3.65-.2,7.31-.06,10.97-.08-.78,6-1.56,12-2.34,18Z"/>
  <path class="cls-10" d="M216.42,728.25c-1.04,1.64-1.8,3.56-3.16,4.86-9.84,9.36-19.83,18.56-29.7,27.89-1.02.97-1.59,2.41-2.37,3.63-20.68-4.18-41.34-8.41-62.03-12.52-32.09-6.37-52.7-28.45-71.26-52.83-7.19-9.44-12.48-20.33-18.63-30.55,11.39-4.52,22.55-9.77,34.23-13.32,8.35-2.53,17.41-4.51,26.13-.36,4.82,2.29,9.66,3.35,14.86,1.57.62.77,1.3,1.5,1.86,2.32,13.56,19.8,30.61,35.83,51.27,48.11,18.27,10.86,38.07,17.29,58.81,21.19Z"/>
  <path class="cls-20" d="M1023.34,589.29c26.31-12.79,51.69-27.26,75.82-43.72,15.15-10.34,29.54-21.85,43.91-33.28,14.7-11.69,27.79-25.1,38.56-40.55,7.17-10.28,13.06-21.16,10.95-36.05,3.42,2.17,5.96,3.65,8.36,5.34,1.56,1.1,2.92,2.51,4.36,3.78-26.94,27.09-37.02,61.97-44.96,97.77-3.63,16.34-9.34,31.88-16.73,46.85-25.3-.16-50.6-.4-75.9-.46-14.79-.04-29.59.2-44.38.32Z"/>
  <path class="cls-20" d="M265.15,769.45c6.73-4.08,13.1-8.98,20.25-12.09,22.94-9.97,46.15-19.35,69.31-28.81,18.57-7.59,36.94-15.81,55.94-22.09,10.52-3.48,20.05-8.42,29.77-13.29,1.44-.72,3.12-.98,4.69-1.46-6.58,6.72-13.26,13.34-19.65,20.22-1.6,1.72-3.17,4.27-3.22,6.48-.36,14.8-.3,29.6-.38,44.41-26.53,1.92-53.03,4.23-79.59,5.64-25.68,1.37-51.38,3.76-77.12.98Z"/>
  <path class="cls-21" d="M1296.28,199.53c-20.22,4.04-40.42,8.2-60.67,12.1-25.96,5-51.96,9.82-77.96,14.61-2.74.51-5.61.31-8.42.43,20.47-8.87,39.94-19.54,58.11-32.48,7.28-5.18,14.2-10.87,21.21-16.42.82-.65,1.13-1.93,1.68-2.92,6.22.96,12.52,1.59,18.65,2.97,11.22,2.53,22.44,2.33,33.7.88,3.7-.48,6.04.59,7.34,4.1,2.07,5.59,4.23,11.15,6.35,16.73Z"/>
  <path class="cls-24" d="M14.59,602.67c2.04-.56,4.29-.75,6.09-1.75,11.57-6.42,23.88-10.84,36.61-14.25,2.02-.54,3.79-1.99,5.76-2.83,13.12-5.58,26.24-11.14,39.4-16.61,1.16-.48,2.6-.29,3.91-.42-10.82,13.77-16.63,29.13-14.82,46.89-2.09.96-4.09,2.25-6.27,2.82-15.42,4.03-30.92,7.75-46.31,11.9-6.49,1.75-12.77,4.31-19.15,6.5-1.74-10.75-3.48-21.51-5.22-32.26Z"/>
  <path class="cls-4" d="M979.19,1042.77c3.27.41,6.54,1.2,9.8,1.17,33.47-.32,66.94-.69,100.41-1.2,38.63-.59,77.25-1.33,115.88-2,39.13-.68,78.25-1.38,117.38-2.06,38.8-.67,77.59-1.35,116.39-2.01,39.96-.68,79.92-1.35,119.89-2.02,38.96-.66,77.93-1.32,116.89-1.95,1.15-.02,2.3.22,3.46.33-1.4.55-2.79,1.56-4.2,1.59-22.78.43-45.57.69-68.35,1.08-14.46.25-28.91.75-43.36.96-11.08.17-22.16-.14-33.24.17-5.09.14-10.15,1.72-15.24,1.81-8.71.14-17.43-.52-26.15-.56-5.11-.03-10.21.64-15.33.72-8.75.14-17.51,0-26.26.08-6.47.06-12.93.26-19.4.47-7.25.23-14.51.51-21.76.81-4.89.2-9.77.5-14.66.7-7.29.3-14.59.52-21.88.83-6.96.3-13.91.93-20.87.92-7.46,0-14.91-.9-22.37-.86-12.29.08-24.67,1.69-36.84.65-14.57-1.25-28.6,2.91-43,2.35-9.47-.37-18.97-.17-28.46-.04-17.48.25-34.96.61-52.44.97-13.87.29-27.77,1.31-41.61.8-11.74-.43-23.21.9-34.79,2.05-3.89.39-7.91-.84-11.86-.78-10.29.15-20.57.76-30.87.89-12.91.16-25.84.38-38.74-.09-8.23-.3-16.43-1.67-24.6-2.87-1.4-.2-2.57-1.91-3.85-2.93Z"/>
  <path class="cls-16" d="M19.81,634.94c6.38-2.19,12.65-4.75,19.15-6.5,15.39-4.15,30.89-7.88,46.31-11.9,2.19-.57,4.19-1.86,6.27-2.82,1.01,15.3,4.9,29.74,12.95,42.91-5.2,1.77-10.04.72-14.86-1.57-8.71-4.15-17.78-2.17-26.13.36-11.68,3.54-22.85,8.8-34.23,13.32-6.06-9.38-6.98-20.27-9.02-30.83-.19-.98-.29-1.98-.44-2.96Z"/>
  <path class="cls-8" d="M1699,628.73c-18.12,1.31-36.25,2.62-54.37,3.94-.5.04-1,.07-1.49.08-15.76.34-31.55,1.43-47.26.78-13.8-.57-27.67-2.34-40.55-8.22-3.64-1.66-5.56-4.43-5.19-8.55.48.45.96,1.3,1.43,1.3,7.71.01,14.9,3.68,22.8,2.86,5.03-.52,10.19.07,15.29.21,7.69.21,15.39.41,23.08.72.88.04,1.72.94,2.62,1,.59.04,1.24-.7,1.86-1.09,3.31-.01,6.64-.23,9.93.04,2.09.17,4.16,1.68,6.17,1.54,8.27-.57,16.5-1.58,24.76-2.36,8.78-.83,17.59-1.47,26.36-2.44,6.31-.7,12.57-1.8,18.85-2.72l-4.27,12.92Z"/>
  <path class="cls-8" d="M1759.39,706.66c-3.26,4.92-7.91,6.19-13.66,6.19-14.73.02-29.47.46-44.2.92-17.85.56-35.69,1.27-53.54,2-3.95.16-7.88.66-11.83,1-3.66-4.03-7.31-8.05-10.97-12.08,1.05-.04,2.1-.13,3.15-.12,5.64.06,11.29.24,16.93.2,8.18-.07,16.62.92,24.44-.82,7.11-1.58,13.75-.6,20.6-.34,5.6.22,11.19.77,16.79,1.04,1.09.05,2.22-.48,3.33-.75,1.56-.38,3.12-1.08,4.69-1.1,10.6-.1,21.22.22,31.74-1.7.67-.12,1.57,1.07,2.37,1.65-.08.12-.17.25-.25.37l.21-.41c2.16-.34,4.32-.69,6.49-1.03,1.24,1.65,2.47,3.31,3.71,4.96Z"/>
  <path class="cls-18" d="M1749.23,702.77c-.8-.58-1.7-1.77-2.37-1.65-10.52,1.92-21.13,1.59-31.74,1.7-1.57.02-3.13.72-4.69,1.1-1.11.27-2.23.8-3.33.75-5.6-.27-11.19-.83-16.79-1.04-6.85-.27-13.49-1.24-20.6.34-7.82,1.74-16.27.75-24.44.82-5.64.05-11.29-.14-16.93-.2-1.05-.01-2.1.08-3.15.12-3-2.32-6.01-4.63-9.01-6.95-.32-.35-.64-.7-.95-1.05-.03-.3-.06-.61-.1-.91,4.88.28,9.76.57,14.63.85,1.58.09,3.19.41,4.74.23,6.56-.77,13.05-1.8,19.69-.06,2.44.64,5.67.72,7.81-.37,5.71-2.94,11.68-.99,17.45-1.55,6.49-.63,13.12-1.38,19.84.51,4.39,1.23,9.41.61,14.11.3,7.71-.51,15.4-1.45,23.1-2.21,4.24.82,8.67,1.15,12.65,2.65,2.52.95,4.37,3.65,6.52,5.57-2.16.34-4.32.69-6.48,1.03l.04.04Z"/>
  <path class="cls-18" d="M421.18,947.83c-.75.1-1.5.2-2.25.3.08-2.45.16-4.91.24-7.37.76-.32,1.51-.85,2.29-.91,5.29-.42,10.83.1,15.82-1.32,5.07-1.45,10.69-.13,14.97-2.19,5.83-2.8,11.45-.49,17.03-1.62,4.74-.96,9.53-1.63,14.3-2.43-.01-.5-.02-1.01-.03-1.51.77.53,1.54,1.52,2.31,1.52,5.74,0,11.48-.22,17.22-.36,2.59-.06,5.17-.15,7.76-.14,3.45.01,6.91.11,10.36.17,1.38.59,2.9,1.87,4.12,1.64,3.65-.7,5.29.32,4.87,4.11-1,.31-2,.62-3.01.92-1.33.05-2.66.09-3.99.14-.66.02-1.33.05-1.99.07-.66-.71-1.33-1.41-1.99-2.12-.15-.08-.29-.15-.44-.23.14.08.28.16.43.24-.33.65-.67,1.31-1,1.96-2.74.22-5.48.42-8.22.67-5.73.51-11.48,1.67-17.17,1.37-4.99-.26-9.63,2.87-14.61.99h0c-1.58.24-3.16.48-3.56.54-3.95.17-6.68.3-9.4.42-.17-.13-.33-.27-.5-.4.14.16.28.32.41.49-4.01.56-8.01,1.14-12.02,1.69-8.44,1.17-16.88,2.4-25.33,3.45-2.17.27-4.42-.05-6.63-.1Z"/>
  <path class="cls-18" d="M1703.27,615.81c-6.28.92-12.55,2.02-18.85,2.72-8.77.97-17.57,1.6-26.36,2.44-8.25.78-16.49,1.79-24.76,2.36-2.01.14-4.08-1.36-6.17-1.54-3.29-.27-6.62-.05-9.93-.04.33-2.35.67-4.7,1-7.05.65.09,1.29.18,1.94.27.93,1.56,1.87,3.12,2.92,4.88,2.04-2.32,3.61-4.12,5.19-5.92,1.31.26,2.62.52,3.94.79.05.12.08.26.16.35.05.06.17.06.26.08-.14-.14-.28-.28-.43-.42.16-.46.33-1.32.49-1.32,4.46-.01,8.91.13,13.36.11,3.7-.02,7.4-.28,11.1-.31,6.06-.06,11.8-4.88,18.17-1.09.86.51,2.46-.05,3.66-.35,2-.5,3.91-1.51,5.93-1.76,5.94-.74,11.9-1.33,17.88-1.69,1.48-.09,3.03.95,4.55,1.46-1.35,2.01-2.71,4.01-4.06,6.02Z"/>
  <path class="cls-4" d="M906.36,1029.48c25.13-20.02,62.48-12.61,72.83,13.29-3.95-2.82-8.5-5.07-11.72-8.57-8.57-9.3-19.22-11.01-30.82-9.5-6.16.8-12.29,2.24-18.28,3.93-4.04,1.14-7.88,2.29-12.02.85Z"/>
  <path class="cls-4" d="M1709.37,1027.74c-8.4-13.68-8.23-28.59,2-45.84,1.55-2.61,3.88-4.77,5.84-7.13-.62,2.19-.89,4.57-1.93,6.54-6.06,11.4-6.16,23.38-3.94,35.67.44,2.41.89,4.92.66,7.32-.11,1.22-1.71,2.3-2.64,3.44Z"/>
  <path class="cls-4" d="M1686.24,1032.9c1.66-.09,3.33-.18,4.99-.27-1.66.09-3.33.18-4.99.27Z"/>
  <path class="cls-4" d="M898.14,1025.97c.78.53,1.56,1.07,2.35,1.6-.78-.53-1.56-1.07-2.35-1.6Z"/>
  <path class="cls-7" d="M610.3,729.88c.73-.02,1.47-.04,2.19-.07.73,1.43,1.14,3.25,2.27,4.21,2.69,2.27,3.85,5.07,1.67,7.72-4.74,5.75-2.97,12.92-4.87,19.25-.14.48.41,1.17.64,1.76-.68,2.5-1.36,5.01-2.04,7.51-1.84,6.49-3.68,12.99-5.53,19.48-.53,1.68-1.15,3.34-1.58,5.05-.47,1.91-3.19,3.81-.15,5.83,1.14,12.04,2.29,24.08,3.43,36.12-.11,1.98.55,5.01-.47,5.76-5.53,4.1-.61,6.7.58,11.02,12.36-14.18,12.18-31.4,16.2-47.4.92,1.24,1.61,2.16,2.61,3.51,1.2-2.81,1.99-5.13,3.16-7.24,1.08-1.94,3.61-3.6,3.7-5.46.26-5.55,3.21-7.77,8.1-9.01,2.13-.54,3.95-2.32,5.91-3.54.69,1.72,1.38,3.43,2.07,5.15.46.09.92.19,1.38.28.9-2.66,1.81-5.32,2.71-7.98,2.09.56,4.18,1.11,6.85,1.82,1.03,5.35,4.58.95,6.8.53,1.53,1.69,2.88,3.17,4.22,4.66,0,0-.04-.05-.04-.05,0,2.65,0,5.29,0,8.3,1.49-.22,2.65-.4,4.11-.62.67,2.91,1.99,5.68,1.8,8.34-1.01,14.28.72,28.39,2.24,42.52.15,1.41,1.28,2.92,2.38,3.93.44.41,2.5-.03,2.98-.7,5.81-8.05,11.9-15.92,11.66-26.74-.27-12.15-.32-24.31.02-36.46.25-8.93-.69-17.44-4.45-25.66-1.41-3.08-1.82-6.63-2.68-9.97,0,0,.3-.21.3-.21,0,0-.26.25-.26.25-1.32-4.45-4.49-9.32-3.59-13.26,1.89-8.21,3.78-17.22,12.57-21.77h0c.74,1.63,1.19,3.49,2.3,4.81,1.38,1.64,3.11,2.09,3.74-.86l-.04.07c2.32-1.53,4.65-3.07,6.96-4.59.63,1.89,1.47,4.42,2.38,7.15,1.18-2.54,2.17-4.66,3.29-7.07,1.2,1.89,2.31,3.64,3.47,5.48,2.02-1.11,3.82-2.1,5.38-2.96,1.88,4.56,3.7,9.15,5.65,13.69,3.73,8.68,7.43,17.37,11.33,25.97,4.58,10.11,5.14,20.93,5.41,31.67.25,10.26-.14,20.58-1.01,30.81-.66,7.67-2.21,15.32-4,22.82-.85,3.54-3.21,6.71-5.07,10.44h3.47c-.88,1.48-1.54,2.59-2.19,3.7-2.34,3.59-4.61,7.24-7.03,10.77-5.79,8.44-11.54,16.92-17.55,25.21-2.37,3.27-5.96,4.17-10.11,4.27-6.51.16-13.44-2.42-19.43,2.33-.35.28-.97.4-1.43.33-6.15-.99-12.57-1.23-18.36-3.25-6.46-2.26-12.35-6.14-19.59-9.89-.92,1.19-1.94,3.26-3.59,4.52-4.47,3.43-8.78,7.64-13.9,9.53-16.37,6.04-32.81,3.34-48.84-2-3.12-1.04-5.54-4.2-8.28-6.38-1.39-4-2.7-8.03-4.18-11.99-5.25-14.02-11.04-27.88-12.58-42.99-.18-1.73-.92-3.46-.82-5.16.43-7.83.98-15.65,1.65-23.46.7-8.22.89-16.57,2.52-24.61,3.8-18.78,12.45-35.51,23.84-50.77,3.67-4.92,8.36-9.07,12.58-13.58,1.26,2.32,1.18,4.63-.06,6.93-.23.39-.47.78-.67,1.19-.02.04.22.21.34.32.22-.41.44-.82.65-1.24,1.93-2.07,3.86-4.13,5.78-6.2,3.06-.87,6.12-1.73,9.38-2.65-.95,1.64-1.96,3.11-2.69,4.7-.74,1.61-1.2,3.33-1.79,5.01,2.07.36,4.13.72,6.2,1.08Z"/>
  <path class="cls-7" d="M1501.39,693.78c.61-.35,1.22-.71,1.83-1.06,5.47-1.2,10.95-2.4,16.41-3.61,15.05-3.35,29.81-8.82,45.7-4.41,10.92,3.03,22.13,5.01,33,8.16,4.26,1.24,7.96,4.41,11.92,6.7,8.18,3.73,14.13,10.14,20.04,16.61,2.89,3.16,6.06,6.08,8.76,9.38,9.92,12.15,10.76,27.16,11.94,41.7.99,12.19-3.94,23.65-7.95,34.98-1.49,4.23-5.13,7.67-6.77,11.88-4.25,10.86-11.91,19.09-20.26,26.6-7.76,6.97-18.11,10.06-26.44,16.56-7.09,5.53-16.38,6.74-25.35,7.55,3.04-1.41,6.01-2.99,9.13-4.19,5.97-2.3,12.02-4.39,18.04-6.56-.18-.48-.36-.96-.54-1.44-11.96,2.01-23.5,5.44-34.27,11.17-.89.48-.89,2.63-1.31,4-2.1.31-4.35.25-6.28,1-10.37,4.01-21.14,3.09-31.85,2.85-1.31-.03-2.6-.82-4.63-1.51,1.65-1.44,2.58-2.25,4.27-3.73-2.62.15-4.6.27-6.57.39l-.05-1.07c-.31-.34-.62-.69-.94-1.03,0,0,.05.02.05.02.09-.79.48-2.15.24-2.28-3.02-1.55-6.1-3-9.23-4.31-1.74-.73-3.61-1.15-5.74-1.81-.06.24-.35,1.43-.63,2.53-1.5-2.07-2.97-4.1-4.44-6.13-.57-2.22-.92-4.53-1.76-6.64-2.54-6.36-2.46-12.65-1.33-19.41,1.56-9.36,2.11-18.92,2.55-28.42.17-3.7-1.62-7.47-1.62-11.21,0-8.77.37-17.56.93-26.31.86-13.69,1.93-27.36,3.1-41.02.19-2.18-.09-5.45,3.89-4.99.09.37.18.75.05.19.31.49.11.17-.09-.15,1.25-.92,2.5-1.84,3.41-2.51.8-2.57,1.53-4.89,2.35-7.49-.29-.42-1.04-1.48-1.83-2.61-1.78,1.28-3.08,2.21-4.38,3.14-.36-.41-.71-.81-1.07-1.22,2.94-2.41,5.88-4.82,8.79-7.21-.29-.83-.68-1.96-1.08-3.08ZM1538.88,736.73v80.87c.91-.06,1.89,0,2.82-.19,12.32-2.56,23.1-8.35,33.7-15.01,10.2-6.4,14.84-15.77,16.61-26.79.65-4.05-1.21-8.52-2-12.79-.6-3.21-.33-7.27-2.21-9.42-3.85-4.42-8.32-9.01-13.52-11.37-10.78-4.89-22.61-5.27-35.39-5.31Z"/>
  <path class="cls-14" d="M1280.36,868.78c-.97,2.11-1.93,4.21-3.37,7.35-.76-1.29-1.15-1.94-1.53-2.59-.16-1.04-.32-2.08-.48-3.12-.3.07-.6.14-.91.2.3,1.11.61,2.21.91,3.32v5.29c-2.61.87-5.41,1.68-8.08,2.81-.54.23-.55,1.69-.8,2.59-4.25-.88.84-4.32-.57-5.14-2.37.84-3.99,1.42-5.78,2.05.16,3.24.34,7.11-5.09,8-.7-2.53-1.38-5.01-2.45-8.91-3.21,1.09-6.11,2.08-9.01,3.07-2.26.3-4.54.96-6.75.76-1.4-.13-3.91-1.75-3.81-2.36.93-5.96-3.39-6.98-7.36-8.43l2.09-10.53c-.44-.19-.89-.39-1.33-.58-1.15.84-2.3,1.67-3.67,2.68-1.41-4.94-2.77-9.72-4.14-14.5.15-3.47.34-6.94.44-10.42.13-4.25.68-8.57.14-12.74-.77-6.02-3.03-11.87-3.49-17.89-1.67-21.88-2.4-43.84-4.36-65.7-1.49-16.6-4.47-33.07-6.47-49.63-.5-4.13-1.62-8.73,2.45-13.79.77,3.57,1.25,5.84,1.5,6.99,1.82-2.1,4.19-4.69,6.38-7.42.41-.51.15-1.57.19-2.38l-.77-2.06s0-.01,0-.01c.93-1.59,1.86-3.17,2.79-4.76.04.27.09.55.16.81.02,1.01.04,2.01.06,3.02-.1,1.13-.21,2.26-.31,3.4.37,0,.75,0,1.12-.01v-3.36l.24-2.96c.21-1.54-.03-3.38.74-4.55.97-1.45,2.68-2.54,4.3-3.32.3-.15,1.83,1.74,2.45,2.88.41.74.2,1.81.29,2.97,1.73-.13,3.17-.23,4.73-.34.15-.88.33-1.52.35-2.16q.23-6.19,6.91-5.69c.64.05,1.29-.14,1.94-.26,7.93-1.4,11.95,1.68,12.63,9.71,12.78,1.07,14.1,7.43,12.77,22.8-.14-1.77-.28-3.54-.43-5.43-3.77,8.07-3.21,11.18,1.85,11.28,1.54,14.59,3.08,29.17,4.64,43.94,14.14-4.29,23.01-13.55,27.76-26.76,1.42-3.96,1.49-8.4,2.24-13.01,4.1-.68,4.81,3.18,6.04,7.17,2.13-5.54.3-11.01,3.58-15.27.38-.37.76-.74,1.14-1.12,1.88-.1,3.77-.2,5.73-.3.11-1.39.2-2.5.29-3.62,0,0-.04.09-.04.09,4.64,1.33,9.29,2.67,13.93,4,0,0-.05-.05-.05-.05,0,.66.22,1.77-.06,1.92-2.28,1.2-3.8,2.72-1.86,5.19,1.92,2.44,3.93,1.19,5.99-.21,2.56-1.74,4.99-1.28,6.99,1.14,0,0-.05-.06-.05-.06,0,2.79,0,5.57,0,8.36,2.03,1.22,3.94,2.81,4.37,4.74.62,2.81.88,6.07.06,8.76-2.54,8.35-5.82,16.48-8.53,24.78-2.89,8.85-7,16.73-14.72,22.45-4.06,3.01-7.71,6.58-10.72,9.18,6.17,8.38,13.16,16.41,18.47,25.43,7.01,11.92,12.3,24.68,6.17,38.96-1.02,2.38-1.86,4.85-2.78,7.28-.91,4.72-5.62,5.95-8.29,9.06-.13-2.17-.26-4.34-.39-6.5-.56-.29-1.12-.58-1.68-.87-2.26,2.17-4.52,4.35-6.79,6.52-2.35-1.72-4.7-3.44-7.04-5.15-3.33-2.69-6.66-5.39-9.99-8.08-.84-12.87-6.6-23.73-13.67-34.16-2.73-4.03-5.95-4.56-9.33-3.53.36,12.9.7,25.33,1.04,37.76-.27,1.26-.33,2.61-.86,3.75-.93,1.99-2.99,3.81-3.05,5.75-.11,3.9.8,7.83,1.29,11.75.58-.04,1.16-.08,1.74-.12v-13.51l1.28-.02c.22,3.07.44,6.14.66,9.21,0,1.41-.01,2.82-.01,4.23Z"/>
  <path class="cls-7" d="M1090.42,744.76c.89-.62,1.77-1.24,2.66-1.86,2.85-2.37,6.14-4.37,8.47-7.18,4.67-5.63,9.89-10.4,17.12-12.05,7.51-1.72,15.13-3.05,22.77-4.1,2.96-.41,6.3-.16,9.1.83,4.66,1.66,8.92,4.67,14.12,1.66.7-.41,1.93,0,2.9.15,6.23,1.02,11.15,4.3,14.6,9.44,3.54,5.27,6.67,10.77,12.35,14.19.93.56,1.31,2.02,2.3,3.65-2.11.13-3.38.22-4.64.3-.21-.38-.43-.75-.65-1.13.24.36.48.71.72,1.07.34,1.74,1.1,3.53.91,5.21-.22,1.99-1.26,3.9-1.95,5.84-.12-.06-.24-.13-.37-.19.14.05.28.09.41.14-.73,1.77-1.46,3.54-2.41,5.87.87,1.27,2.17,3.17,3.47,5.07-.12.12-.24.23-.36.35-4.32,1.29-8.63,2.58-13.76,4.1-.32-.24-1.61-1.19-3.06-2.26-.31.79-.7,1.27-.62,1.64.6,2.66.59,5.5-2.65,5.7-1.98.12-4.39-1.33-6.04-2.75-2.75-2.36-4.79-5.59-7.63-7.8-1.85-1.43-5.07-1.14-6.83-2.63-2.87-2.42-5.68-2.8-8.67-1.2-3.62,1.94-7.21,4.07-10.45,6.59-10.57,8.2-12.35,20.51-15.11,32.48-2.22,9.61.43,17.36,7.52,23.68,1.35,1.21,4.46,1.96,5.93,1.24,4.08-2.01,7.73-4.9,11.54-7.45,4.06-2.72,7.41-6.28,13.49-4.41,3.08.95,7.56,2.65,10.91-1.13.54-.61,2.42-.03,3.68,0,2.65,4.59,5.04,9.37,8.11,13.66,1.01,1.41,3.78,1.56,5.74,2.29,0,.99-.28,2.1.06,2.96,2.27,5.75,0,9.1-5.39,11.25-1.07.43-2.46,2.99-2.29,3.16,1.41,1.4,3.14,2.47,4.78,3.64l-.03-.04c-2.38,3.3-4.75,6.6-7.13,9.9-4.18,1.78-8.88,2.84-12.44,5.46-10.94,8.04-23.5,10.1-36.4,10.43-5.08.13-10.62-1.05-15.23-3.19-7.56-3.52-14.94-7.79-21.6-12.79-3.84-2.88-6.13-7.83-9.12-11.85l-.06.07c.84-.28,2.4-.54,2.41-.84.02-1.3-.04-2.86-.74-3.86-1-1.42-3.07-2.19-3.84-3.67-3.05-5.95-6-11.97-8.55-18.15-3.34-8.1-2.37-16.74-1.02-24.92,1.73-10.5,5.04-20.74,7.7-31.08.16-.61.64-1.15.96-1.72,4.06-7.25,8.13-14.5,12.19-21.75,0,0-.05.01-.05.01.35-.35.7-.7,1.05-1.04,0,0-.06.05-.06.05.4-.35.8-.7,1.2-1.06Z"/>
  <path class="cls-2" d="M1461.09,774.89c.31.55.62,1.1.93,1.64-4.33,3.23-4.19,3.59,3.76,7.59-1.78.78-2.94,1.49-4.2,1.81-5.62,1.41-7.28,3.94-6.23,9.77-.07,1.35-.13,2.7-.2,4.05-6.84,5.56-15.1,4.42-22.98,4.69-10.07.35-20.16.22-30.23.55-.97.03-1.93,1.77-2.78,2.8-.17.2.18.82.31,1.32.65-.72,1.21-1.34,1.77-1.96.36.09.73.18,1.09.27-.38,5.65-.76,11.31-1.16,17.31,1.03,0,2.21.21,3.29-.04,6.19-1.43,12.28-3.42,18.54-4.35,7.18-1.06,14.49-1.64,21.73-1.52,3.14.05,6.2,1.41,9.71,1.43,3.42.02,7.74,2.68,9.97,5.52,2.38,3.03,3.13,7.55,3.93,11.55.94,4.71-2.46,8.29-7.3,8.69-1.42.12-2.8.87-4.19,1.33-.71.62-1.41,1.24-2.12,1.86.31.26.63.53.94.79.58-.69,1.15-1.37,1.73-2.06,1.59.95,3.18,1.89,4.78,2.84,0,.97.02,1.95.02,2.92-4,1.36-7.95,3.7-12.01,3.92-17.37.97-34.33,3.67-50.58,10.04-7.57,2.97-15.21,2.39-22.9.86-.74-.15-2.02-1.03-1.95-1.27,1.16-4.17-1.77-3.11-3.98-3.48-1.67-.28-3.75-1.02-4.67-2.27-2.57-3.48-6.45-6.54-5.18-11.76-.27-3.68-1.13-7.42-.7-11.01,1.01-8.51,2.69-16.94,3.99-25.41,2.43-15.82,4.73-31.66,7.19-47.47.72-4.64-1.22-9.78-5.23-12.26,1.63-3.38,3.28-6.8,5.06-10.5-2.43-.3-4-.5-5.58-.7-.26-.44-.51-.88-.77-1.31,2.86-2.23,5.72-4.45,8.67-6.75-.09-.23-.38-1.01-.69-1.83,2.3-.68,4.2-1.17,6.06-1.8,11.18-3.83,22.33-7.74,33.53-11.5,3.58-1.2,7.25-2.14,10.93-2.98,8.92-2.05,17.87-3.97,26.8-5.94,0,0-.24.22-.24.23,0,.35,0,.71.01,1.06.5-.25.99-.51,1.49-.76,1.48,1.34,2.95,2.67,4.43,4.01-1.19.98-2.38,1.97-3.56,2.94,1.89,5.76,5.23,1.64,7.06,1.4,2.79,1.68,4.92,2.97,7.29,4.4-.57.66-1.34,1.54-2.69,3.11,3.87.88,7.07,1.61,11.33,2.58-1.67,1.3-2.87,2.08-3.86,3.06-1.47,1.44-3.88,2.97-3.99,4.58-.44,6.74-4.62,9.55-10.3,10.93-7.49,1.82-15.11,3.14-22.57,5.06-8.44,2.18-16.76,4.81-25.15,7.19-2.67.76-3.69,2.34-3.38,5.11.23,2.06.05,4.17.05,6.58,2.11-.13,3.42-.12,4.71-.3,11.2-1.53,22.4-3.17,33.61-4.61,4.22-.54,8.49-.67,12.74-.99,0,0-.04-.04-.04-.04.08.6.37,1.26.22,1.8-.63,2.25,1.72,6.94,3.74,7.29ZM1374.46,763.15c-.72,5.96-1.42,11.82-2.12,17.67.48.06.96.12,1.44.17,4.03-7.87,4.49-16.1.68-17.84Z"/>
  <path class="cls-14" d="M1044.05,860.87c-2.97,3.32-5.93,6.64-8.9,9.97-.34.3-.68.6-1.02.91,0,0,.05-.07.05-.07-.89.41-1.84.72-2.65,1.24-10.77,7.01-22.61,11.07-35.37,11.75-18.42.99-33.56-7.37-47.54-18.18-2.35-1.82-4.4-4.69-5.38-7.49-3.7-10.59-4.62-21.61-4-32.8.18-3.24-.95-6.69-.22-9.74,1.74-7.26,3.95-14.45,6.55-21.46,1.1-2.97,4.03-5.21,5.42-8.13,3.64-7.59,6.89-15.37,10.29-23.08,0,0-.06.02-.06.02.35-.35.7-.71,1.06-1.06,0,0-.05.08-.05.08,2.39-2.01,4.79-4.03,7.18-6.04,1.48-1.63,2.72-3.6,4.49-4.82,6.38-4.43,12.65-9.16,19.5-12.76,8.89-4.67,18.25-7.22,28.5-3.29,5.48,2.1,11.51,2.74,17.18,4.4,2.11.62,3.92,2.28,5.86,3.46.9,2.04,1.65,4.16,2.74,6.1,1.79,3.19,4.81,6.04,5.52,9.42,1.78,8.49,2.89,17.16,3.55,25.81.23,2.96-1.45,6.19-2.71,9.1-.88,2.03-2.54,3.72-3.85,5.57-.12.19-.13.38-.03.59-1.14,8.81-6.27,12.16-14.92,11.53-6.04-.44-12.18-.58-18.21-.05-15.46,1.36-30.88,3.18-46.37,4.82-.55,2.34-1.41,4.26-1.36,6.16.1,4.29.65,8.57,1.02,12.86.2.62.56,1.25.56,1.87-.05,9.07,4.56,13.97,13.42,15.11,6.36.19,12.82,2.29,19.04-.75,3.53-1.73,7.06-3.48,10.48-5.42,5.62-3.17,11.15-6.49,16.71-9.75l1.25,1.51-5.55,6.19c.25.44.49.88.74,1.33,1.63-.59,3.61-.77,4.84-1.84,2.88-2.51,5.4-5.43,8.43-8.56,3.81,4.05,2.47,8.57,2.3,13.86,1.47-1.86,2.27-2.89,2.41-3.07,1.11,1.32,2.13,2.53,3.16,3.73.03.61.06,1.22.08,1.84-1.14,1.71-2.46,3.32-3.36,5.15-.58,1.17-.53,2.66-.76,4ZM1005.19,769.68c-.41.35-.82.7-1.22,1.05-5.64,3.67-13.04,4.51-17.13,10.73-1.45,2.2-3.18,4.22-4.79,6.32.28.31.56.61.84.92,7.41-1.14,14.82-2.29,22.22-3.43.08.45.17.9.25,1.36-1.55.63-3.1,1.26-4.74,1.93,7.57,0,14.89.12,22.18-.17.81-.03,1.53-2.4,2.29-3.68-.3-3.59-.39-7.21-.96-10.75-.43-2.64-.72-6.02-2.43-7.58-3.64-3.34-13.34-.99-16.57,3.33l.06-.02Z"/>
  <path class="cls-8" d="M1133.13,687.79c2.4.36,4.79.72,6.95,1.04-1.46,2.34-2.38,5.04-4.25,6.59-4.29,3.56-8.62,7.8-13.69,9.53-10.43,3.56-21.37,5.63-32.6,3.9-1.3-.2-2.66-.09-3.99-.09-52.12,0-104.24,0-156.36,0-4.37-4.59-8.75-9.18-13.12-13.77,2.88-.71,5.89-2.34,8.62-1.97,9,1.24,17.89.22,26.83-.24,8.01-.42,16.02-.9,24.03-.93,6.35-.02,12.71,1,19.04.82,6.88-.2,13.73-1.57,20.62-1.83,5.73-.22,11.49.65,17.24.63,6.81-.03,13.61-.64,20.42-.73,8.82-.11,17.65.32,26.45,0,6.65-.24,13.27-1.28,19.91-1.96,7.82-.02,15.64.05,23.45-.1,3.48-.07,6.96-.59,10.44-.9Z"/>
  <path class="cls-8" d="M1588.13,905.74c4.33-.79,8.67-1.58,13.03-2.38.88,4.81-.79,6.99-4.05,7.9-12.55,3.53-24.96,7.84-37.73,10.25-27.06,5.12-54.48,7.28-82.02,6.08-11.67-.51-23.32-2.29-34.87-4.19-2.66-.44-4.86-3.73-7.26-5.72,3.57.08,7.14.25,10.71.23,4.24-.02,8.49-.13,12.73-.36,2.14-.12,4.26-.58,6.39-.89,1.27-.18,2.77-.91,3.78-.47,7.24,3.14,14.3.63,21.41-.4,3.47.44,6.94.88,11.26,1.43.07-.04,1.09-1.14,2.26-1.34,5.63-.95,11.27-1.91,16.95-2.38,4.51-.37,9.13.43,13.6-.14,4.65-.59,9.05-1.84,13.96-1.43,5.49.45,11.12-.82,16.69-1.29,1.05-.09,2.17.26,3.17.02,6.68-1.59,13.33-3.28,19.99-4.94Z"/>
  <path class="cls-8" d="M478.2,941.75c4.99,1.88,9.62-1.25,14.61-.99,5.68.3,11.44-.86,17.17-1.37,2.74-.24,5.48-.45,8.22-.67,1,.05,2.01.1,3.01.14.66-.02,1.33-.05,1.99-.07,1.33-.05,2.66-.09,3.99-.14,1-.31,2-.62,3.01-.92,2.1.27,4.2.72,6.3.78,4.35.12,8.89-.75,13.01.24,4.82,1.15,8.41-.58,12.29-2.5.98-.49,2.16-.66,3.27-.78,8.73-.93,17.46-1.81,26.19-2.71,2.53.17,5.06.34,7.93.53-2.5,7.39-6.27,9.89-13.87,10.48-20.41,1.6-40.81,3.34-61.23,4.94-14,1.09-28.03,1.89-42.02,3.09-17.1,1.47-34.18,3.1-51.25,4.91-6.95.74-9.42-1.26-9.64-8.88,2.21.05,4.45.37,6.63.1,8.46-1.05,16.89-2.28,25.33-3.45,4.01-.56,8.01-1.13,12.02-1.69l.08-.08c2.72-.12,5.45-.24,9.4-.42.4-.06,1.98-.3,3.56-.53-.11.05-.25.09-.34.17-.05.05-.04.17-.06.25l.39-.43Z"/>
  <path class="cls-11" d="M738.26,857.86c.66-1.11,1.31-2.22,2.19-3.7h-3.47c1.86-3.72,4.22-6.9,5.07-10.44,1.8-7.5,3.35-15.15,4-22.82.88-10.23,1.27-20.55,1.01-30.81-.26-10.75-.82-21.57-5.41-31.67-3.9-8.6-7.6-17.29-11.33-25.97-1.95-4.54-3.77-9.13-5.65-13.69-1.56.86-3.36,1.85-5.38,2.96-1.17-1.84-2.28-3.59-3.47-5.48-1.12,2.41-2.11,4.54-3.29,7.07-.91-2.72-1.75-5.25-2.38-7.15-2.31,1.52-4.63,3.06-6.96,4.59-.83-.1-1.66-.21-2.5-.31.06.41.12.82.18,1.23.79-.33,1.57-.66,2.36-.99-.63,2.95-2.37,2.5-3.74.86-1.1-1.32-1.56-3.18-2.3-4.8.1-.23.19-.45.29-.68-.1.22-.2.45-.3.67-8.8,4.55-10.68,13.56-12.57,21.77-.91,3.94,2.26,8.81,3.59,13.26,0,0-.04-.04-.04-.04.86,3.34,1.27,6.88,2.68,9.97,3.76,8.22,4.7,16.73,4.45,25.66-.34,12.14-.29,24.31-.02,36.46.24,10.82-5.85,18.69-11.66,26.74-.48.66-2.53,1.11-2.98.7-1.09-1.01-2.23-2.52-2.38-3.93-1.52-14.12-3.25-28.23-2.24-42.52.19-2.66-1.13-5.42-1.8-8.34-1.46.22-2.62.39-4.11.62,0-3.01,0-5.66,0-8.3,4.14-.36,5.85,1.5,6.16,5.68,1.18,16.32,2.6,32.63,3.99,48.94.09,1.04.7,2.03,1.06,3.04.56.15,1.12.31,1.68.46,2.52-5.91,6.09-11.6,7.35-17.77,4.47-21.84,4.13-43.75-2.12-65.29-1.41-4.86-3.8-9.61-6.56-13.88-3.88-5.99-2.81-11.77-.23-17.46,2.12-4.66,4.87-9.07,7.64-13.39,3.5-5.47,7.04-6.43,13-4.04,5.66-5.04,10.75-4.49,17.75-1.58,9.33,3.88,12.1,11.45,14.94,19.82,3.5,10.3,8.63,20.11,11.35,30.58,2.77,10.63,3.57,21.79,5.03,32.75.88,6.55,2.29,13.21,1.83,19.7-.57,7.98-2.96,15.81-4.34,23.75-.39,2.22.21,4.6-.04,6.87-.2,1.83-.83,3.67-1.59,5.37-.71,1.6-1.83,3.01-2.78,4.51-1.33.98-2.65,1.95-3.98,2.93l-2-1.89ZM722.5,718.3l.26.19.03-.33-.29.14ZM741.62,853.41l.17-.2-.25-.04.09.24Z"/>
  <path class="cls-1" d="M916.08,694.99c4.37,4.59,8.75,9.18,13.12,13.77,2.24,3.84,5.24,7.44,6.56,11.58,2.33,7.29,4.72,14.85,5.11,22.4.48,9.25-1.52,18.6-6.81,26.55-6.23,9.38-13.12,18.32-19.47,27.63-1.07,1.57-1.52,4.2-1.08,6.06,2.46,10.45,6,20.7,7.78,31.25,1.58,9.41,1.75,19.13,1.78,28.72.02,5.64-5.46,7.48-9.51,9.83-4.87,2.83-10,5.13-14.91.16-7.11,4.2-7.34,4.08-10.63-4.01-.33-.8-1.31-1.95-1.95-1.92-6.06.24-6.73-4.24-7.76-8.49-.23-.94-.58-1.85-.88-2.77-.15-1.3-.29-2.59-.44-3.89,1.01-.04,2.01-.07,3.02-.11.41,2.44.69,4.91,1.31,7.3.25.96,1.09,2.1,1.96,2.5,3.16,1.45,6.44,2.62,9.56,3.85-1.39,1.96-2.35,3.3-3.3,4.63.25.33.49.67.74,1,2.59-1.07,5.18-2.14,8.07-3.33.52,1.3.97,2.42,1.19,2.96,2.26,0,4.17-.16,6.05.03,7.96.81,15.13-5.46,14.59-12.99-.27-3.7.2-7.97-1.48-10.96-3.91-6.98-2.82-14.66-4.42-21.92-1.92-8.71-2.97-17.61-4.37-26.24,4.12-6.06,8.65-12.7,13.15-19.36,1.01-1.49,1.68-3.28,2.91-4.52,8.36-8.4,10.27-19.36,12.17-30.31.34-1.94.83-4.52-.1-5.9-4.72-6.99-4.27-16.02-8.27-22.71-4.55-7.62-11.65-13.95-18.49-19.88-3.41-2.96-9.61-2.75-12.91-5.77-5.41-4.94-11.43-5.05-17.84-5.4-8.44-.47-16.86-1.28-25.29-1.84-7.32-.49-14.54-.26-22.53,4.08h14.09c-1.13.98-2.34,1.5-3.59,1.62-7.76.76-16.08-.23-21.52,7.42-.45.63-1.9.47-2.8.85-10.61,4.47-22.21,6.55-31.85,13.34-2.85,2-5.84,3.8-8.76,5.7-.02-.33-.04-.65-.04-.98,4.25-3.7,8.35-7.61,12.81-11.03,3.49-2.68,7.44-4.76,11.18-7.1,1.46-.65,2.96-1.22,4.39-1.95,4.62-2.34,9.22-4.73,13.83-7.1,3.05-.98,6.08-2,9.15-2.93,10.27-3.13,20.55-5.83,31.53-4.2,5.69.85,11.56.45,17.28,1.18,7,.89,13.92,2.36,20.87,3.64.34.06.57.68.86,1.05,5.32,2.84,10.65,5.68,15.97,8.52Z"/>
  <path class="cls-12" d="M738.26,857.86c.67.63,1.33,1.26,2,1.89-.75,1.33-1.49,2.66-2.24,3.99-.91,1.69-2.05,3.31-2.7,5.1-3.99,10.89-9.21,20.94-18.8,28.04-1.97,1.46-4.27,3.52-6.42,3.52-6.27,0-12.06,1.45-17.96,3.32-15.15,4.81-28.21-.85-40.69-8.84-1.1-.7-2.23-1.34-4.43-2.66-2.53,2.92-5.02,6.04-7.77,8.91-4.94,5.16-10.99,7.66-18.24,7.7-7.78.04-15.57.82-23.35.86-19.66.1-37.65-12.2-43.67-30.91-2.96-9.2-4.46-18.99-5.57-28.63-1.58-13.63-2.48-27.36-3.16-41.07-.89-17.85,4.25-34.4,11.92-50.3.78-1.63,1.35-3.36,2.02-5.04.73-2.26,1.45-4.52,2.18-6.79.55-.09,1.09-.19,1.64-.28.81.05,1.62.09,2.43.14-1.07,2.43-2.19,4.83-3.19,7.28-2.65,6.52-5.45,12.99-7.79,19.62-2.35,6.66-5.39,13.38-6,20.27-.99,11.19-.27,22.53-.22,33.8,0,.97.35,1.94.54,2.91,2.16,10.69,4.5,21.34,6.44,32.07,2.1,11.64,4.3,23.11,14.92,30.53,2.74,2.18,5.16,5.34,8.28,6.38,16.02,5.35,32.46,8.05,48.84,2,5.12-1.89,9.43-6.1,13.9-9.53,1.65-1.26,2.67-3.33,3.59-4.52,7.24,3.75,13.13,7.64,19.59,9.89,5.79,2.02,12.21,2.27,18.36,3.25.45.07,1.08-.05,1.43-.33,5.99-4.75,12.92-2.17,19.43-2.33,4.15-.1,7.74-1,10.11-4.27,6.01-8.29,11.76-16.77,17.55-25.21,2.43-3.54,4.69-7.18,7.03-10.77Z"/>
  <path class="cls-18" d="M916.08,694.99c-5.32-2.84-10.65-5.67-15.97-8.52,2.77-.22,5.54-.47,8.31-.65,11.42-.75,22.86.42,34.33-1.5,8.01-1.34,16.42-.37,24.65-.39,6.52-.02,13.05.03,19.57.02,2.43,0,4.87-.19,7.3-.16,2.53.03,5.07.31,7.6.28,2.36-.03,4.72-.33,7.08-.52,7.58-.61,15.14-1.57,22.73-1.73,5.88-.12,11.77.88,17.67,1.17,5.01.25,10.04.16,15.06.29,2.95.08,5.89.29,8.83.45l-.05.05c8.34.4,16.68.79,25.02,1.18.35,1.28.69,2.55,1.04,3.83-6.64.68-13.26,1.72-19.91,1.96-8.81.31-17.64-.11-26.45,0-6.81.09-13.61.7-20.42.73-5.75.02-11.51-.85-17.24-.63-6.89.26-13.73,1.64-20.62,1.83-6.33.18-12.7-.85-19.04-.82-8.01.03-16.02.51-24.03.93-8.94.46-17.83,1.48-26.83.24-2.73-.37-5.74,1.26-8.62,1.97Z"/>
  <path class="cls-1" d="M1192.3,771.67c-1.3-1.9-2.6-3.8-3.47-5.07.96-2.33,1.68-4.1,2.41-5.87l-.05.05c.69-1.94,1.72-3.84,1.95-5.84.19-1.68-.57-3.47-.91-5.21,0,0-.07.06-.07.06,1.27-.08,2.54-.16,4.64-.3-.99-1.63-1.38-3.09-2.3-3.65-5.68-3.42-8.81-8.92-12.35-14.19-3.45-5.13-8.37-8.42-14.6-9.44-.96-.16-2.2-.56-2.9-.15-5.21,3.02-9.46,0-14.12-1.66-2.79-1-6.14-1.24-9.1-.83-7.64,1.05-15.26,2.37-22.77,4.1-7.22,1.66-12.44,6.43-17.12,12.05-2.33,2.8-5.61,4.81-8.47,7.18,2.34-9.67,9.75-15.04,17.39-20.05,7.56-4.95,16.58-5.11,25.08-6.91,1.71-.36,3.62.04,5.42.26,3.6.45,7.18,1.35,10.79,1.47,11.26.38,21.97,2.46,31.38,9.08,1.21.85,3.02,1.8,3.24,2.94,1.16,6.17,6.86,8.23,10.34,12.26,1.44,1.67,2.54,4.46,2.31,6.58-.52,4.6-2.11,9.07-3.02,13.64-.37,1.85-.59,3.96-.08,5.73,1.27,4.41.16,6.39-4.29,7.87-3.2,1.06-6.49,2.35-9.2,4.3-6.09,4.39-12.87,3.99-19.65,3.43-1.47-.12-3.31-1.79-4.08-3.23-5-9.37-11.66-11.12-19.73-4.67-8.1,6.47-13.81,14.79-17.32,24.49-2.9,8,.51,21.33,6.65,26.64,3.78-2.98,7.65-6,11.5-9.06,4.57-3.63,9.37-5.07,15.2-2.87,1.83.69,4.38-.19,6.52-.69,5.54-1.32,7.71-.46,8.66,3.72-1.26-.03-3.14-.61-3.68,0-3.36,3.78-7.83,2.07-10.91,1.13-6.08-1.87-9.44,1.69-13.49,4.41-3.81,2.56-7.46,5.44-11.54,7.45-1.47.72-4.57-.03-5.93-1.24-7.09-6.32-9.74-14.08-7.52-23.68,2.76-11.96,4.54-24.28,15.11-32.48,3.24-2.51,6.82-4.65,10.45-6.59,2.99-1.6,5.8-1.22,8.67,1.2,1.76,1.49,4.99,1.19,6.83,2.63,2.84,2.21,4.88,5.44,7.63,7.8,1.65,1.41,4.07,2.87,6.04,2.75,3.24-.2,3.25-3.04,2.65-5.7-.08-.37.3-.85.62-1.64,1.45,1.07,2.74,2.02,3.06,2.26,5.12-1.53,9.44-2.82,13.76-4.11.32.06.63.12.94.18-.19-.18-.39-.35-.58-.53Z"/>
  <path class="cls-8" d="M1510.16,865.73c.02.36.03.71.05,1.07.66,2,1.32,4,1.98,6-1.57.32-3.14.93-4.7.92-23.6-.27-47.2-.57-70.79-.99-8.62-.15-17.23-.6-25.84-1.01-1.24-.06-2.45-.65-3.67-.99,5.69-2.01,11.25-4.68,17.1-5.89,11.86-2.46,23.89-4.12,35.85-6.11,2.77,3.66,6.55,1.14,9.83,1.53,6.06.71,12.16,1.03,18.24,1.51.88.37,1.74.94,2.66,1.09,3.83.64,6.18,5.5,10.97,3.56,2.33-.94,4.95-1.15,7.43-1.69,0,0-.05-.02-.05-.02.31.34.62.69.94,1.03Z"/>
  <path class="cls-1" d="M1512.19,872.79c-.66-2-1.32-4-1.98-6,1.97-.12,3.95-.23,6.57-.39-1.69,1.48-2.62,2.29-4.27,3.73,2.04.69,3.33,1.48,4.63,1.51,10.71.23,21.48,1.16,31.85-2.85,1.93-.75,4.18-.68,6.28-1,0,0,.4.06.4.06l.4-.02c2.21-1.01,4.42-2.01,6.64-3.02l-.03-.05c.53,0,1.06,0,1.59,0l-.04.05c8.98-.81,18.26-2.01,25.35-7.55,8.33-6.5,18.68-9.59,26.44-16.56,8.36-7.51,16.01-15.74,20.26-26.6,1.64-4.2,5.28-7.65,6.77-11.88,4-11.33,8.94-22.79,7.95-34.98-1.18-14.54-2.02-29.55-11.94-41.7-2.7-3.31-5.88-6.22-8.76-9.38-5.91-6.47-11.86-12.88-20.04-16.61-1.68-2.54.63-3.46,1.95-4.77.98.34,1.96.67,2.93,1.01.04.3.07.61.1.91.32.35.64.7.95,1.05,3,2.32,6.01,4.63,9.01,6.95,3.66,4.03,7.31,8.05,10.97,12.08,5.16,10.66,14.16,19.38,16.32,31.53,3.25,18.29,3.26,36.27-5.69,53.32-3.77,7.18-6.4,15.1-11.04,21.63-4.94,6.97-11.03,13.47-17.72,18.79-9.15,7.28-19.04,13.79-29.2,19.59-5.31,3.03-11.81,4.2-17.91,5.61-12.7,2.93-25.4,6.2-38.28,7.86-6.61.85-13.63-1.45-20.46-2.33Z"/>
  <path class="cls-8" d="M1327.16,861.75c2.67-3.1,7.38-4.34,8.29-9.06.64.43,1.29.85,1.93,1.28.94.75,1.79,1.96,2.83,2.16,2.64.5,5.53.08,8.03.9,3.27,1.08,6.23,1.44,9.28-.3,1.82,2.49,3.54,5.06,5.49,7.44.83,1.01,2.41,2.48,3.2,2.25,3.34-1.02,3.49,1.26,4.05,3.29-1.72.35-3.44,1.03-5.16,1.01-19.79-.26-39.58-.57-59.36-.98-8.46-.18-16.91-.62-25.37-.94,0-1.41.01-2.82.02-4.22.3-2.62.6-5.24.91-7.87,4.35-.02,8.69-.05,13.04-.04,2.08,0,4.17.06,6.25.09,5.24,3.87,5.98,3.8,10.69-.99,2.35,1.72,4.7,3.44,7.04,5.15,1.4.61,2.76,1.59,4.2,1.72,1.52.14,3.11-.55,4.66-.87Z"/>
  <path class="cls-18" d="M563.02,746.67c-.55.09-1.09.19-1.64.28-2.64-.16-5.27-.49-7.9-.43-4.4.1-8.82.87-13.18.59-4.44-.29-8.82-3.84-13.22.36-.46.44-1.87-.23-2.83-.19-1.35.06-2.7.3-4.05.46-6.51,1.52-13.33-1.86-19.6.06-2.27,0-4.28.09-6.28-.02-7.58-.39-15.16-.83-22.74-1.28-9.82-.59-19.65-1.16-29.45-1.94-.69-.06-1.24-1.81-1.86-2.78,10.39-.79,20.77-1.59,31.16-2.35.65-.05,1.41.38,1.96.17,10.41-3.92,20.79.03,31.17-.06,6.5-.06,12.89.49,19.34.88,4.6.28,9.42-1.19,13.99-2.43,7.38-1.99,14.63-.9,21.93.14,2.12.3,4.26.41,6.39.6-1.07,2.64-2.14,5.28-3.21,7.92Z"/>
  <path class="cls-8" d="M440.28,741.79c.62.96,1.17,2.72,1.86,2.78,9.81.78,19.63,1.35,29.45,1.94,7.58.46,15.16.89,22.74,1.28,2,.1,4,.02,6.28.02,6.27-1.92,13.1,1.46,19.78.02.06.03-.06-.03-.18-.08.04.12.07.26.14.36.05.06.18.05.27.08-.02-.09-.04-.18-.24-.35,1.17-.24,2.52-.48,3.87-.54.96-.04,2.37.62,2.83.19,4.39-4.2,8.78-.65,13.22-.36,4.36.28,8.78-.49,13.18-.59,2.63-.06,5.27.27,7.9.43-.72,2.26-1.45,4.53-2.18,6.79-34.33,0-68.66,0-102.99.01-4.92,0-9.93.78-14.73.06-6.45-.98-8.65-4.77-7.84-11.62,2.16-.13,4.4-.27,6.64-.4Z"/>
  <path class="cls-12" d="M1088.28,746.8c-4.06,7.25-8.12,14.5-12.19,21.75-.32.57-.8,1.11-.96,1.72-2.66,10.34-5.97,20.58-7.7,31.08-1.35,8.18-2.32,16.82,1.02,24.92,2.55,6.18,5.5,12.2,8.55,18.15.76,1.48,2.83,2.25,3.84,3.67.7,1,.77,2.56.74,3.86,0,.3-1.56.56-2.41.84-.06-.11-.09-.24-.17-.34-.04-.05-.16-.03-.24-.05.16.1.32.21.47.31,2.99,4.02,5.28,8.96,9.12,11.85,6.67,5,14.04,9.27,21.6,12.79,4.6,2.14,10.15,3.32,15.23,3.19,12.91-.33,25.46-2.39,36.4-10.43,3.56-2.62,8.26-3.69,12.44-5.46.38.69.77,1.38,1.15,2.07-4.86,2.43-9.77,4.75-14.55,7.33-3.63,1.96-7.24,4.01-10.58,6.42-6.59,4.76-13.64,6.31-21.62,4.56-4.61-1.01-9.38-2.03-14.05-1.93-9.26.19-15.44-5.47-21.8-10.65-5.62-4.58-10.66-9.88-15.99-14.83-2.91-2.7-4.51-5.45-.71-8.37-2.65-4.47-5.8-8.46-7.55-12.99-5.09-13.16-5.18-26.93-2.81-40.6,1.69-9.73,3.64-19.58,7.08-28.78,2.49-6.66,7.53-12.4,11.67-18.38.7-1.01,2.63-1.17,3.99-1.72Z"/>
  <path class="cls-12" d="M1311.12,695.78c-3.28,4.26-1.45,9.73-3.58,15.27-1.23-4-1.94-7.85-6.04-7.17-.75,4.61-.82,9.06-2.24,13.01-4.75,13.21-13.62,22.47-27.76,26.76-1.56-14.77-3.1-29.34-4.64-43.94-5.06-.1-5.62-3.21-1.85-11.28.15,1.89.29,3.66.43,5.43,1.33-15.36,0-21.73-12.77-22.8-.69-8.03-4.71-11.11-12.63-9.71-.64.11-1.3.3-1.94.26q-6.68-.49-6.91,5.69c-.02.64-.2,1.27-.35,2.16-1.56.11-3,.22-4.73.34-.09-1.15.12-2.23-.29-2.97-.62-1.13-2.15-3.02-2.45-2.88-1.61.79-3.33,1.87-4.3,3.32-.78,1.17-.53,3.01-.75,4.55-.37-.03-.74-.06-1.11-.08-.06-.27-.12-.54-.16-.81-.57-7.59,2.6-10.02,10.39-9.79,3.78.11,7.68-1.93,11.43-3.27,6.18-2.22,10.76-.53,14.47,4.97,1.46,2.16,3.68,4.01,5.93,5.39,6.88,4.21,10.47,9.99,11.04,18.19.75,10.86,2.45,21.65,3.36,32.5.37,4.39-.29,8.87-.43,13.31-.07,2.28-.01,4.57-.01,7.86,9.39-6.15,17.77-11.7,20.6-22.55,1.79-6.86,3.73-13.68,5.83-20.45,1.43-4.64,4.38-5.27,8.13-2.24.82.67,2.21.64,3.34.93Z"/>
  <path class="cls-11" d="M961.29,763.79c-3.4,7.7-6.66,15.48-10.29,23.08-1.39,2.91-4.33,5.16-5.42,8.13-2.59,7.01-4.81,14.19-6.55,21.46-.73,3.05.4,6.5.22,9.74-.62,11.19.3,22.2,4,32.8.98,2.81,3.03,5.67,5.38,7.49,13.98,10.81,29.12,19.17,47.54,18.18,12.76-.68,24.6-4.74,35.37-11.75.81-.53,1.76-.83,2.65-1.24-4.76,4.1-8.92,9.53-14.41,12.02-10.69,4.85-22.41,3.4-33.85,2.49-2.9-.23-5.87.3-8.76,0-10.33-1.12-18.24-7.47-26.66-12.69-.84-.52-1.51-1.41-2.41-1.74-8.26-3.08-10.51-10.45-11.64-17.8-1.42-9.13-1.48-18.46-2.27-27.69-.7-8.24,1.88-15.8,4.9-23.17,4.33-10.57,8.79-21.12,13.89-31.33,1.61-3.23,5.48-5.33,8.31-7.95Z"/>
  <path class="cls-11" d="M1450.19,710.26c-8.94,1.97-17.89,3.89-26.8,5.94-3.68.84-7.35,1.78-10.93,2.98-11.2,3.76-22.35,7.67-33.53,11.5-1.86.64-3.76,1.12-6.06,1.8.31.82.61,1.6.69,1.83-2.96,2.3-5.81,4.53-8.67,6.75.26.44.51.88.77,1.31,1.57.2,3.15.39,5.58.7-1.79,3.7-3.43,7.12-5.06,10.5,4.02,2.48,5.96,7.62,5.23,12.26-2.47,15.81-4.76,31.65-7.19,47.47-1.3,8.48-2.98,16.9-3.99,25.41-.43,3.59.43,7.34.7,11.01-1.44.02-2.87.05-4.31.07-.16-.33-.31-.66-.46-.99-2.06-6.23,1.83-11.54,2.69-17.32,1.43-9.64,3.07-19.25,4.32-28.91,1.51-11.63,2.78-23.3,3.99-34.97.18-1.72.02-4.03-.99-5.23-4.12-4.89-5.98-9.66-.75-14.69-5.33-6.27-4.91-9,1.43-13.78,10.26-7.71,22.24-11.87,34.1-15.99,11.22-3.89,22.79-6.89,34.39-9.51,4.81-1.09,10.45-2.88,14.86,1.84Z"/>
  <path class="cls-19" d="M1588.13,905.74c-6.66,1.66-13.31,3.35-19.99,4.94-1,.24-2.12-.11-3.17-.02-5.57.48-11.2,1.75-16.69,1.29-4.91-.4-9.32.84-13.96,1.43-4.46.57-9.09-.23-13.6.14-5.68.47-11.33,1.43-16.95,2.38-1.17.2-2.19,1.29-2.26,1.34-4.32-.55-7.79-.99-11.26-1.44-1.89-4.18,1.28-4.62,3.94-4.94,1.59-.19,3.4.69,3.02-2.08,9.7-1.28,19.39-2.74,29.12-3.79,9.99-1.08,20.28-3.47,29.94-2.02,6.2.93,12.35-1.76,18.49,1.16,2.88,1.37,6.99.04,10.53.18.96.04,1.89.93,2.84,1.43Z"/>
  <path class="cls-12" d="M1337.38,853.97c-.64-.43-1.29-.85-1.93-1.28.92-2.43,1.76-4.89,2.78-7.28,6.13-14.28.84-27.03-6.17-38.96-5.31-9.02-12.3-17.06-18.47-25.43,3.01-2.6,6.66-6.17,10.72-9.18,7.72-5.72,11.83-13.59,14.72-22.45,2.71-8.31,5.98-16.43,8.53-24.78.82-2.69.57-5.95-.06-8.76-.43-1.93-2.34-3.53-4.37-4.74,0-2.79,0-5.57,0-8.36,2.68,3.25,7.14,6.24,7.67,9.82,1.23,8.27,1.63,17.1-2.16,24.95-5.75,11.88-12.06,23.51-18.49,35.05-1.55,2.78-4.29,5.06-6.89,7.04-2.39,1.82-2.12,2.99-.55,5.24,8.88,12.74,18.23,25.32,20.16,41.44.94,7.87,1.71,15.76,2.55,23.63-.43,2.86-.95,5.54-4.29,1.92-.15-.46-.31-.92-.46-1.37-.18.36-.35.71-.53,1.07-.92.81-1.84,1.62-2.76,2.43ZM1342.27,847.9c.28-.53.56-1.06.84-1.59-.85-.36-1.69-.77-2.57-1.01-.12-.03-.47.73-.71,1.13.82.49,1.63.98,2.45,1.47Z"/>
  <path class="cls-11" d="M1456.86,847.34c1.4-.46,2.77-1.21,4.19-1.33,4.84-.39,8.24-3.98,7.3-8.69-.8-4-1.55-8.52-3.93-11.55-2.23-2.84-6.56-5.51-9.97-5.52-3.51-.02-6.56-1.38-9.71-1.43-7.24-.12-14.56.46-21.73,1.52-6.26.92-12.35,2.92-18.54,4.35-1.08.25-2.26.04-3.29.04.4-6,.78-11.65,1.16-17.31-.36-.09-.73-.18-1.09-.27-.56.62-1.12,1.24-1.77,1.96-.13-.5-.48-1.12-.31-1.32.85-1.03,1.81-2.77,2.78-2.8,10.07-.32,20.16-.2,30.23-.55,7.88-.27,16.14.87,22.98-4.69.92-.64,1.84-1.27,2.76-1.91-.85-.71-1.71-1.43-2.56-2.14-1.05-5.83.61-8.36,6.23-9.77,1.26-.32,2.42-1.03,4.2-1.81-7.95-4-8.09-4.35-3.76-7.59,1.06,1.26,2.1,2.55,3.2,3.79,2.71,3.07,2.42,6.07-1.18,7.72-2.82,1.29-2.95,3.08-2.81,5.5.64,10.6-1.39,11.03-11.09,12.11-11.84,1.31-23.74,2.12-35.63,2.95-2.52.18-5.11-.48-8.02-.79-.48,4.2-.9,7.84-1.37,11.92,6.41-1.18,11.88-2.53,17.42-3.15,13.11-1.46,26.27-2.15,38.96,2.5,6.17,2.26,7.64,8.3,8.48,13.75.98,6.38.7,13.02-4.8,17.94-.67-.01-1.34-.02-2.01-.03-.34.01-.67.02-1.01.04-1.59-.95-3.18-1.89-4.78-2.84-.19-.19-.37-.39-.54-.6Z"/>
  <path class="cls-11" d="M1215.03,677.76c-.05.81.22,1.86-.19,2.38-2.19,2.73-4.55,5.33-6.38,7.42-.25-1.15-.73-3.42-1.5-6.99-4.07,5.06-2.95,9.66-2.45,13.79,2,16.56,4.97,33.03,6.47,49.63,1.97,21.85,2.69,43.81,4.36,65.7.46,6.01,2.71,11.87,3.49,17.89.54,4.17-.02,8.49-.14,12.74-.1,3.47-.29,6.94-.44,10.42-.28.31-.56.63-.84.94-.08-.63-.16-1.26-.24-1.89-.98-8.77-2.04-17.53-2.92-26.31-2.69-26.81-4.95-53.67-8.08-80.43-1.88-16.07-5.03-31.98-7.69-47.95-1.1-6.58,3.38-14.24,9.7-16.52,2.11-.76,4.07-1.91,6.1-2.89,0,0,0,.01,0,.01.26.69.51,1.37.77,2.06Z"/>
  <path class="cls-12" d="M765.13,853.86c-1.31-11.82-2.67-23.63-3.92-35.46-.73-6.9-1.69-13.82-1.82-20.74-.15-7.95.5-15.91.81-23.86.33-8.45.74-16.9.97-25.36.06-2.12-.5-4.25-.69-6.39-.3-3.41-.7-6.28,2.65-9.3,4.08-3.67,6.65-8.98,10.1-13.4.92-1.18,2.66-1.72,4.02-2.56,0,0,.17.15.17.15-5.55,7.96-10.21,16.37-12.71,27.39-.49-3.43-.74-5.26-1-7.09-1.25,1.54-1.52,3.07-1.43,4.57.61,10.98,2.26,22.01,1.72,32.92-.95,19.03,2.9,37.58,4.05,56.38.5,8.22,1.25,16.43,1.89,24.65-1.51-.34-3.02-.67-4.53-1.01-.17-.27-.26-.57-.29-.89Z"/>
  <path class="cls-1" d="M1501.39,693.78c.39,1.12.79,2.25,1.08,3.08-2.91,2.39-5.85,4.8-8.79,7.21.36.41.71.81,1.07,1.22,1.3-.93,2.6-1.86,4.38-3.14.79,1.13,1.54,2.19,1.83,2.61-.81,2.59-1.54,4.92-2.35,7.49-.91.67-2.16,1.59-3.41,2.51l.05-.04c-3.98-.46-3.7,2.81-3.89,4.99-1.17,13.66-2.23,27.34-3.1,41.02-.55,8.76-.92,17.54-.93,26.31,0,3.74,1.79,7.51,1.62,11.21-.45,9.5-.99,19.06-2.55,28.42-1.13,6.76-1.21,13.05,1.33,19.41.84,2.11,1.19,4.42,1.76,6.64-1.11.37-2.22.73-3.33,1.1-.3-.06-.59-.13-.87-.23-2.37-10.09-2.26-20.22-1.5-30.55.74-10.13-.18-20.37-.11-30.56.06-9.25.33-18.51.8-27.75.3-5.92,1.31-11.81,1.68-17.73.51-7.93.97-15.88.95-23.82-.01-5.27.81-9.59,6.38-11.59,1.24-.44,2.4-1.08,3.66-1.65-3.31-2.22-6.66-4.18-6.54-4.44,1.87-3.83,4.02-7.56,6.54-11,.61-.83,2.79-.5,4.25-.71Z"/>
  <path class="cls-1" d="M1457.17,765.84c-4.25.32-8.52.45-12.74.99-11.22,1.45-22.41,3.08-33.61,4.61-1.29.18-2.6.17-4.71.3,0-2.4.19-4.51-.05-6.58-.32-2.78.71-4.36,3.38-5.11,8.39-2.38,16.71-5.01,25.15-7.19,7.46-1.92,15.08-3.24,22.57-5.06,5.68-1.38,9.86-4.2,10.3-10.93.11-1.61,2.52-3.13,3.99-4.58.99-.98,2.19-1.75,3.86-3.06-4.26-.97-7.47-1.7-11.33-2.58,1.36-1.56,2.12-2.45,2.69-3.11-2.37-1.43-4.5-2.72-7.29-4.4-1.83.24-5.17,4.36-7.06-1.4,1.17-.97,2.37-1.95,3.56-2.94,2.09-.51,4.16-1.31,6.28-1.44,2.15-.13,4.33.42,6.5.66-.4,2-.8,3.99-1.27,6.37,2.57,2.01,5.84,4.44,8.97,7.03,2.34,1.94,2.36,3.98.3,6.43-3.16,3.75-5.37,8.56-9.12,11.48-3.88,3.03-8.93,4.96-13.76,6.27-11.16,3.04-22.54,5.31-33.76,8.13-2.69.68-5.26,2.09-7.67,3.53-1.05.63-1.54,2.19-3.02,4.44,14.15-1.74,26.72-3.52,39.35-4.67,2.73-.25,5.66,1.8,8.5,2.79Z"/>
  <path class="cls-5" d="M1618.21,614.7c-.33,2.35-.67,4.7-1,7.05-.62.39-1.27,1.13-1.86,1.09-.89-.06-1.73-.97-2.62-1-7.69-.31-15.38-.51-23.08-.72-5.1-.14-10.25-.73-15.29-.21-7.9.82-15.09-2.85-22.8-2.86-.48,0-.96-.85-1.43-1.3-.12-1.31-.47-2.65-.32-3.93.29-2.44.93-4.34,4.32-3.17,3.53,1.22,7.26,2.39,10.94,2.53,7.24.28,14.5-.19,21.75-.31,1.15-.02,2.5-.22,3.42.29,3.08,1.71,5.7,2.64,9.4.7,1.97-1.03,5.28.79,8,.86,2.6.06,5.21-.66,7.82-.68.91,0,1.82,1.07,2.74,1.65Z"/>
  <path class="cls-1" d="M1356.62,849.81c1.44-.02,2.87-.05,4.31-.07-1.28,5.22,2.61,8.29,5.18,11.76.93,1.25,3.01,1.99,4.67,2.27,2.21.37,5.14-.69,3.98,3.48-.07.24,1.21,1.12,1.95,1.27,7.69,1.53,15.33,2.11,22.9-.86,16.25-6.37,33.21-9.07,50.58-10.04,4.06-.23,8.01-2.56,12.01-3.92.03.37.06.75.09,1.12-.72,1.3-1.44,2.6-2.16,3.9-11.96,1.99-23.99,3.66-35.85,6.11-5.86,1.21-11.41,3.88-17.1,5.89-12.44,4.29-24.83,6.81-36.93-1.02-.56-2.03-.71-4.31-4.05-3.29-.78.24-2.37-1.24-3.2-2.25-1.95-2.38-3.68-4.95-5.49-7.44-.4-2.04-.8-4.08-1.19-6.11,0-.27-.02-.54-.06-.8h.36Z"/>
  <path class="cls-1" d="M646.13,784.39c-1.96,1.22-3.78,3-5.91,3.54-4.89,1.25-7.84,3.46-8.1,9.01-.09,1.87-2.62,3.52-3.7,5.46-1.17,2.11-1.96,4.44-3.16,7.24-1-1.34-1.68-2.27-2.61-3.51-4.02,16-3.84,33.21-16.2,47.4-1.19-4.33-6.12-6.93-.58-11.02,1.02-.76.36-3.78.47-5.76,0,0,.42,0,.42,0h.42v8.56c1.44-2.13,2.35-2.97,2.64-3.99,2.52-8.74,4.88-17.52,7.41-26.25,1.24-4.28,2.72-8.5,4.18-12.72.32-.92.85-2.35,1.51-2.49,5.49-1.16,4.96-6.96,7.86-9.86,3.52-3.52,7.71-6.81,12.23-8.76,4.59-1.99,9.92-2.34,14.97-3.13,1.04-.16,2.33.82,3.41,1.45.8.47,1.6,1.87,2.12,1.74,7.22-1.79,6.8,2.98,6.66,7.55-1.35-1.49-2.69-2.97-4.22-4.66-2.22.42-5.77,4.83-6.8-.53-2.66-.71-4.75-1.26-6.85-1.82-2.06.85-4.11,1.7-6.17,2.55Z"/>
  <path class="cls-11" d="M1612.2,694.79c-1.32,1.32-3.63,2.23-1.95,4.77-3.96-2.29-7.66-5.46-11.92-6.7-10.87-3.16-22.09-5.13-33-8.16-15.89-4.41-30.66,1.06-45.7,4.41-5.47,1.22-10.94,2.41-16.41,3.61.84-.91,1.5-2.16,2.53-2.69,11.36-5.73,23.34-9.3,36.07-10.31,24.97-2,48.24,3.9,70.39,15.06Z"/>
  <path class="cls-5" d="M1497.22,908.79c.38,2.77-1.43,1.89-3.02,2.08-2.66.32-5.83.76-3.94,4.94-7.11,1.03-14.17,3.54-21.41.4-1-.43-2.51.29-3.78.47-2.13.31-4.25.77-6.39.89-4.24.23-8.48.33-12.73.36-3.57.02-7.14-.15-10.71-.23-.62-1.58-1.93-3.31-1.61-4.68.22-.98,2.55-1.89,4.04-2.11,6.75-.95,13.68-2.83,20.24-1.97,3.69.48,7.64-.87,11.59,1.3,2.38,1.31,6.53-.84,9.91-1.02,5.93-.32,11.88-.31,17.82-.44Z"/>
  <path class="cls-19" d="M876.99,851.85c.15,1.3.29,2.59.44,3.89-4.78,1.1-9.51,2.65-14.36,3.18-5.55.61-11.21.23-16.81.47-1.86.08-3.79.49-5.53,1.16-4.08,1.57-8.79-3.18-12.52,1.31-.98-1.67-1.96-3.34-2.94-5.02-.06-.28-.07-.56-.05-.85.02-.73.03-1.46.05-2.19l.9-2.08c2.01-.42,4.03-1.24,6.03-1.18,7.65.23,15.3.73,22.95,1.17,1.84.1,3.67.53,5.51.5,5.18-.07,10.37-.29,15.55-.45.26.07.53.1.8.08Z"/>
  <path class="cls-1" d="M765.41,854.75c1.51.34,3.02.67,4.53,1.01,4.26,10.89,8.53,21.78,12.79,32.66.37-.12.73-.23,1.1-.35.32-1.35.64-2.69.93-3.94,8.52-.48,9.55.17,12.95,7.84,1.72,3.88,4.03,4.26,7.27,1.68,1.37-1.1,3.42-1.34,5.16-1.98l.03.04c-1.39,5.25-5.84,5.09-9.98,6.45-6.2,2.02-7.06-3.64-10.67-5.78-2.38,2.5-3.44,2.28-6.88-.42-9.84-7.7-12.42-18.57-16.1-29.2-.38-2.67-.75-5.33-1.12-8ZM789.46,885.14l.33.21.04-.33-.37.12Z"/>
  <path class="cls-11" d="M970.31,835.66c-.37-4.29-.92-8.57-1.02-12.86-.05-1.9.81-3.82,1.36-6.16,15.49-1.64,30.91-3.45,46.37-4.82,6.03-.53,12.17-.39,18.21.05,8.65.64,13.78-2.71,14.92-11.53,1.32,9.75-2.69,13.86-12.65,14.51-12.08.8-24.1,2.44-36.16,3.65-8.04.81-16.09,1.95-24.15,2.05-4.37.05-5.39,2.1-5.85,5.42-.45,3.21-.7,6.45-1.04,9.67Z"/>
  <path class="cls-5" d="M591.26,932.75c-8.73.9-17.46,1.78-26.19,2.71-1.11.12-2.29.29-3.27.78-3.88,1.93-7.47,3.66-12.29,2.5-4.12-.98-8.66-.12-13.01-.24-2.11-.06-4.2-.5-6.3-.78.42-3.8-1.22-4.81-4.87-4.12-1.22.23-2.74-1.05-4.12-1.64,4.76-.33,9.52-.88,14.28-.93,5.03-.05,10.06.59,15.09.55,6.07-.05,12.15-.86,18.21-.67,7.5.24,14.99,1.18,22.48,1.82Z"/>
  <path class="cls-1" d="M1048.08,849.89c-1.02-1.21-2.04-2.42-3.16-3.73-.14.17-.94,1.2-2.41,3.07.18-5.29,1.51-9.81-2.3-13.86-3.03,3.13-5.55,6.05-8.43,8.56-1.22,1.06-3.2,1.25-4.84,1.84-.25-.44-.49-.88-.74-1.33l5.55-6.19-1.25-1.51c-5.57,3.26-11.1,6.58-16.71,9.75-3.42,1.93-6.95,3.69-10.48,5.42-6.22,3.04-12.67.94-19.04.75,2.19-.54,4.4-1.04,6.58-1.62,5.33-1.41,10.69-2.78,15.97-4.35,1.53-.46,2.92-1.48,4.3-2.36,5.8-3.68,11.45-7.63,17.48-10.9,1.18-.64,3.76,1.33,6.21,2.3,7.51-3.82,8.86-3.11,9.57,5.59,1.93.61,5.32,1.14,5.34,1.8.08,2.24-1.02,4.52-1.67,6.78Z"/>
  <path class="cls-5" d="M820.43,687.73c-4.61,2.37-9.21,4.76-13.83,7.1-1.43.72-2.92,1.3-4.39,1.95-4.73-.36-9.48-1.21-14.17-.92-3.13.19-9.67-2.34-10.51-5.37-1.01-3.63,2.63-6.53,7.43-5.57,2.89.58,6.2,3.22,8.37,2.41,6.1-2.29,11.91,4.4,17.89-.13,1.16-.88,3.74.11,5.66.24,1.18.08,2.36.19,3.54.29Z"/>
  <path class="cls-19" d="M1217.15,849.79c.08.63.16,1.26.24,1.89.44,3.84-2.12,5.78-5.88,5.41-5.8-.57-11.66-.69-17.5-.64-3.54.03-7.08.73-10.62,1.13-.74-.94-1.48-1.88-2.22-2.83l.03.04c.32-1.36.65-2.72.97-4.08,1.01-.64,2.03-1.29,3.04-1.93h1.98c5.52-.44,11.04-1.3,16.55-1.17,4.48.11,8.94,1.42,13.41,2.19Z"/>
  <path class="cls-18" d="M765.41,854.75c.37,2.67.75,5.33,1.12,8-8.25.68-16.49,1.42-24.75,1.99-1.22.08-2.5-.64-3.76-.99.75-1.33,1.49-2.66,2.24-3.99,1.33-.98,2.65-1.95,3.98-2.93,6.96-.99,13.92-1.98,20.88-2.97.02.32.12.62.29.89Z"/>
  <path class="cls-1" d="M563.02,746.67c1.07-2.64,2.14-5.28,3.21-7.92,6.57-7.06,13.1-14.15,19.73-21.16,1.22-1.29,2.68-2.67,4.3-3.19,3.21-1.03,6.76-1.93,7.08,3.5.04.63,1.21,1.2,1.85,1.79,0,.68,0,1.36.01,2.04-1.93,2.07-3.86,4.13-5.78,6.2l-.33-.27c1.25-2.3,1.33-4.61.06-6.92.32-3.85-1.47-3.8-3.61-1.68-2.34,2.32-3.8,5.89-6.49,7.43-8.37,4.77-12.68,12.75-17.6,20.33-.81-.05-1.62-.09-2.43-.14Z"/>
  <path class="cls-19" d="M1460.14,858.71c.72-1.3,1.44-2.6,2.16-3.9.3-1.36.6-2.72.89-4.07.67.01,1.34.02,2.01.03,2.99,1.05,5.38,3.21,9.29,2.18,3.31-.87,7.17.34,10.79.63.29.09.58.17.87.23.69,2.65,1.37,5.29,2.06,7.94-6.08-.48-12.19-.8-18.24-1.51-3.28-.39-7.06,2.13-9.83-1.53Z"/>
  <path class="cls-1" d="M1243.21,883.71c2.9-.99,5.8-1.98,9.01-3.07,1.07,3.89,1.75,6.38,2.45,8.91,5.43-.89,5.25-4.76,5.09-8,1.79-.64,3.41-1.21,5.78-2.05,1.41.82-3.68,4.25.57,5.14.05.8.09,1.61.14,2.41-3.67.08-5.03,3.34-7.42,5.24-3.93,3.13-12.16,1.15-16.6-3.63.33-1.65.66-3.3.98-4.95Z"/>
  <path class="cls-1" d="M825.27,856.86c.98,1.67,1.96,3.34,2.94,5.02.67,4.71,1.61,9.39,1.93,14.12.35,5.14-4.15,11.2-9.06,12.59-3.25.92-6.61,1.44-9.92,2.14,0,0-.04-.03-.04-.03-.24-1.22-.48-2.44-.73-3.66,12.22-3.11,15.57-7.24,12.82-13.02,1.39-3.4,2.91-5.62,3.08-7.93.22-3.03-.64-6.14-1.03-9.21Z"/>
  <path class="cls-11" d="M1050.19,799.77c1.31-1.84,2.97-3.54,3.85-5.57,1.26-2.91,2.94-6.14,2.71-9.1-.66-8.65-1.77-17.32-3.55-25.81-.71-3.37-3.73-6.23-5.52-9.42-1.09-1.93-1.83-4.06-2.74-6.1,6.4,2.65,10.94,7.92,11.81,14.1,1.49,10.57,1.5,21.42,1.16,32.13-.13,4.19-1.26,9.63-7.73,9.75Z"/>
  <path class="cls-1" d="M612.21,762.76c-.23-.59-.79-1.28-.64-1.76,1.9-6.33.13-13.5,4.87-19.25,2.18-2.65,1.03-5.44-1.67-7.72-1.14-.96-1.54-2.78-2.27-4.21,4.19,4.07,8.38,8.13,13.09,12.7-6.99.94-8.07,6.14-9.6,11.19-.94,3.11-2.5,6.04-3.78,9.05Z"/>
  <path class="cls-18" d="M1356.32,850.61c.4,2.04.79,4.08,1.19,6.11-3.04,1.75-6.01,1.38-9.28.3-2.5-.82-5.39-.4-8.03-.9-1.04-.2-1.89-1.41-2.83-2.16.92-.81,1.84-1.62,2.76-2.43.33.1.66.2.99.3,3.34,3.62,3.85.94,4.29-1.92,3.27-3.4,7.19-.45,10.74-1.09.15.33.31.66.46.99,0,0-.35,0-.36,0-.2.15-.4.3-.6.45.22.12.44.24.65.35Z"/>
  <path class="cls-11" d="M1243.21,883.71c-.33,1.65-.66,3.3-.98,4.95-2.13.24-4.25.55-6.38.7-.94.07-1.99.02-2.85-.31-2.93-1.12-8.23-11.83-7.71-15.37,3.97,1.45,8.29,2.47,7.36,8.43-.1.62,2.42,2.24,3.81,2.36,2.21.2,4.5-.46,6.75-.76Z"/>
  <path class="cls-11" d="M607.18,836.75h-.42s-.42,0-.42,0c-1.14-12.04-2.29-24.08-3.43-36.12.77-1.62,1.54-3.25,2.31-4.87,0,0-.02-.01-.02-.01-.02,8.06.27,15.94,2.47,23.93,1.45,5.25-.21,11.36-.48,17.08Z"/>
  <path class="cls-5" d="M1099.24,688.79c-.35-1.28-.69-2.56-1.04-3.83.32-.08.64-.26.96-.24,6.62.36,13.25.61,19.85,1.17,4.73.41,9.42,1.25,14.12,1.89-3.48.32-6.96.84-10.44.9-7.81.15-15.63.08-23.45.1Z"/>
  <path class="cls-12" d="M599.2,721.74c0-.68,0-1.36-.01-2.04,2.29-1.24,4.49-2.73,6.9-3.66,3.5-1.35,5.57.87,4.99,4.78-.44,2.99-.53,6.04-.78,9.06-2.06-.36-4.13-.72-6.19-1.08.59-1.67,1.05-3.4,1.79-5.01.73-1.59,1.73-3.06,2.69-4.7-3.26.92-6.32,1.79-9.38,2.65Z"/>
  <path class="cls-1" d="M1182.18,850.7c-.32,1.36-.65,2.72-.97,4.08-1.64-1.17-3.37-2.24-4.78-3.64-.17-.17,1.22-2.73,2.29-3.16,5.39-2.15,7.66-5.5,5.39-11.25-.34-.86-.05-1.97-.06-2.96,4.58.85,4.16,4.51,4.11,7.72-.04,2.43-.62,4.85-.96,7.27-.66,0-1.32,0-1.98,0-1.01.64-2.03,1.29-3.04,1.93Z"/>
  <path class="cls-12" d="M1343.17,702.82c-2-2.42-4.43-2.88-6.99-1.14-2.06,1.4-4.07,2.65-5.99.21-1.93-2.46-.41-3.98,1.86-5.19.28-.15.05-1.25.06-1.92,1.27.76,2.54,1.51,4.51,2.68,4.68-1.61,6.17-.75,6.54,5.35Z"/>
  <path class="cls-11" d="M604.64,789.75c1.84-6.49,3.68-12.98,5.53-19.48-.75,7.29-1.38,14.6-2.35,21.86-.17,1.3-1.71,2.41-2.62,3.61,0,0,.02.01.02.01-.19-2-.39-4.01-.58-6.01Z"/>
  <path class="cls-1" d="M1181.17,854.75c.74.94,1.48,1.89,2.22,2.83-.33,5.2-5.23,6.31-8.2,9.14-.38-.69-.77-1.38-1.15-2.07,2.38-3.3,4.75-6.6,7.13-9.9Z"/>
  <path class="cls-1" d="M1461.09,774.89c-2.03-.36-4.37-5.04-3.74-7.29.15-.54-.13-1.2-.22-1.8,4.93.96,6.2,3.86,3.96,9.09Z"/>
  <path class="cls-12" d="M1332.17,694.84c-4.64-1.33-9.29-2.67-13.93-4,1.03-1.02,1.92-2.67,3.12-2.93,2.98-.65,9.3,3.67,10.81,6.93Z"/>
  <path class="cls-1" d="M1044.05,860.87c.23-1.34.18-2.82.76-4,.9-1.83,2.22-3.44,3.36-5.15.62.61,1.84,1.66,1.77,1.76-1.88,2.52-3.89,4.95-5.88,7.39Z"/>
  <path class="cls-5" d="M1628.25,613.93c-1.58,1.8-3.15,3.6-5.19,5.92-1.05-1.76-1.98-3.32-2.92-4.88,2.7-.35,5.4-.69,8.11-1.04Z"/>
  <path class="cls-11" d="M969.41,756.8c-2.39,2.01-4.79,4.03-7.18,6.04,1.1-3.55,3.31-5.78,7.18-6.04Z"/>
  <path class="cls-12" d="M1318.28,690.75c-.09,1.12-.18,2.23-.29,3.62-1.96.1-3.84.2-5.73.3,2.01-1.31,4.01-2.61,6.02-3.91Z"/>
  <path class="cls-12" d="M778.21,714.91c0,.33.02.65.04.98-.28.35-.55.7-.83,1.05,0,0-.18-.15-.17-.15.32-.63.64-1.25.96-1.88Z"/>
  <path class="cls-11" d="M1451.45,710.79c-.5.25-.99.51-1.49.76,0-.35,0-.71-.01-1.06.5.1,1,.2,1.5.3Z"/>
  <path class="cls-12" d="M1090.42,744.76c-.4.35-.8.7-1.2,1.06.4-.35.8-.7,1.2-1.06Z"/>
  <path class="cls-12" d="M1089.28,745.77c-.35.35-.7.7-1.05,1.04.35-.35.7-.7,1.05-1.04Z"/>
  <path class="cls-11" d="M1034.13,871.74c.34-.3.68-.6,1.02-.91-.34.3-.68.6-1.02.91Z"/>
  <path class="cls-18" d="M1073.23,683.73c-.14-.07-.27-.14-.41-.21.12.09.24.17.37.26,0,0,.05-.05.05-.05Z"/>
  <path class="cls-1" d="M811.16,890.71c-.33.33-.66.66-.99.99,0,0-.03-.04-.03-.04.33-.33.66-.66.98-.99l.04.03Z"/>
  <path class="cls-11" d="M962.28,762.76c-.35.35-.7.71-1.06,1.06.35-.35.7-.71,1.06-1.06Z"/>
  <path class="cls-22" d="M104.48,656.63c-8.05-13.18-11.94-27.61-12.95-42.91-1.81-17.76,4-33.12,14.82-46.89,12.22-11.79,26.29-20.2,43.03-23.91,15.79-3.5,31.36-2.28,46.86,1.68,14.31,3.82,24.81,13.47,35.28,23.15,3.89,3.6,8.49,4.93,13.68,4.88,17.57-.16,39.4-16.07,45.01-32.87,2.21-4.8,5.15-9.42,6.45-14.45,1.92-7.43.68-14.67-5.48-20.13-5.93-5.26-12.52-4.4-19.71-2.63-36.04,8.87-71.98,11.9-107.13-3.95-27.76-12.52-48.51-32.41-62.18-59.65-.89-1.77-1.89-3.48-2.83-5.21-3.41-13.17-8.19-26.15-9.96-39.54-4.36-33,2.47-64.44,17.92-93.72,27.4-51.95,68.88-86.93,126.76-99.94,42.76-9.61,82.44-1.74,117.15,26.2,10.73,8.64,19.63,19.01,26.68,30.85,16.25,27.26,7.92,62.32-18.78,79.59-26.4,17.07-61.84,10.28-79.82-15.63-3.52-5.07-7.8-6.95-13.48-6.71-13.07.56-24.03,6.25-33.84,14.42-12.79,10.66-21.7,23.81-25.15,40.33-.3,1.46-.52,2.96-.61,4.44-.97,15.04,4.36,19.95,19.22,17.46,3.42-.57,6.82-1.61,10.05-2.9,17.41-6.98,35.59-10.99,54.02-13.8,22.85-3.49,45.48-1.77,67.74,4.53.95.27,1.96.32,2.94.47,1.51.64,3,1.34,4.53,1.91,30.16,11.21,53.85,29.6,66.24,60.24,4.23,10.47,7.71,21.24,11.46,31.89,1.1,3.13,2.01,6.34,2.92,9.54,4.77,16.8,5.98,34.02,6.01,51.38-.86,7.41-1.21,14.93-2.71,22.21-2.26,11.02-5.33,21.87-8.05,32.79-2.41,6.02-4.83,12.04-7.24,18.06-2.39,4.65-4.77,9.31-7.15,13.96-11.7,19.31-25.16,37.22-41.96,52.43-33.39,30.24-72.02,49.28-117.02,54.73-16.96,2.06-33.87,1.49-50.77-.66-20.74-3.91-40.55-10.34-58.81-21.2-20.66-12.28-37.71-28.31-51.27-48.11-.56-.81-1.23-1.55-1.86-2.32Z"/>
  <path class="cls-22" d="M1104.44,242.75c1.57,16.49,1.24,32.87-2.76,49.05-7.56,30.58-23.47,56.32-45.78,78.21-32.88,32.25-72.32,52.1-117.31,61.14-4.16.84-8.53.67-13.35,1.01,1.25,8.74,2.46,17.24,3.68,25.74.64,5.62,1.37,11.23,1.89,16.86,1.31,14.3,5.71,28.56.63,42.95-4.93,10.94-12.22,19.69-23.49,24.48-10.13,4.3-20.53,4.77-31.05,1.34-2.02-.66-4.07-1.24-6.11-1.86-.88-.75-1.68-1.62-2.64-2.22-11.95-7.44-18.58-18.28-20.59-32.09-1.09-7.54-2.19-15.07-3.28-22.61-.17-2.65-.19-5.32-.52-7.96-4.53-36-9.07-72.01-13.68-108-1.5-11.7-3.21-23.37-4.82-35.05-1.84-15.52-3.59-31.06-5.53-46.57-3.74-29.88-7.82-59.73-11.32-89.64-2.21-18.93,5.17-33.32,21.13-44.19,28.07-19.12,59.86-26.2,92.69-29.36,38.03-3.66,74.86,1.79,108.97,19.88,39.12,20.75,64.62,52.12,72.62,96.47.15.81.42,1.61.63,2.41ZM986.19,252.81c-5.28-3.26-10.19-7.55-15.91-9.58-19.08-6.78-38.59-5.72-57.9-.8-13.04,3.32-10.58.99-9.3,13.43.1.99.18,1.98.32,2.97,1.66,12.31,3.33,24.61,5,36.92.83,7.69,1.67,15.39,2.55,23.51,25.37-5.35,47.75-14.65,65.48-33.13,6.19-6.45,11.22-13.6,13.08-22.58.87-4.19.17-7.9-3.33-10.75Z"/>
  <path class="cls-22" d="M446.39,364.71c-3.22-20.72-6.43-41.44-9.67-62.15-1.88-12.01-3.95-23.99-5.74-36.01-4.42-29.82,15.33-56.69,44.5-60.69,28.38-3.89,54.31,16.26,58.75,45.48,2.57,16.92,5.38,33.8,8.18,51.29,11.62-2.05,22.87-3.95,34.04-6.2.87-.18,1.8-2.83,1.78-4.32-.23-14.99-.87-29.97-.97-44.96-.16-25.98,17.6-47.11,43.16-51.75,30.9-5.62,59.88,17.83,60.88,49.41.76,24.14,1.3,48.28,1.96,72.42.05,1.82.3,3.63.46,5.44-.08,2.15-.26,4.31-.21,6.46.68,27.14,1.61,54.27,2.05,81.41.46,28.44-21.29,51.32-49.81,52.91-27.27,1.52-51.45-19.73-53.89-47.66-.69-7.95-.57-15.97-.77-23.96-.07-2.9-.01-5.81-.01-9.28-8.95,1.63-16.85,3.07-24.98,4.55.32,2.17.58,3.63.75,5.1,1.49,13.37,3.9,26.72,4.23,40.13.65,26.11-17.83,46.78-44.2,50.99-23.41,3.73-47.57-11.5-54.83-35.34-3.09-10.14-4.95-20.7-6.85-31.16-3.15-17.34-5.89-34.75-8.8-52.13Z"/>
  <path class="cls-22" d="M709.92,327.75c-1.08-15.09-2.3-30.17-3.19-45.27-.8-13.58-2.96-27.38-1.43-40.74,2.65-23.23,23.61-39.61,46.5-38.78,23.42.84,42.39,18.98,44.33,42.73,2.39,29.19,4.55,58.4,6.83,87.6.06.82.26,1.63.4,2.45-.04.99-.18,1.99-.11,2.97,2.15,28.5,4.39,56.99,6.48,85.49,1.87,25.51,3.59,51.03,5.38,76.55-.24.78-.58,1.54-.69,2.34-2.59,18.3-15.97,33.48-33.92,37.71-17.42,4.11-32.51-.63-45.27-13.07-7.99-9.52-12.19-20.41-12.33-32.92-.06-4.98-.73-9.94-1.11-14.92-2.21-28.67-4.41-57.35-6.64-86.02-1.72-22.04-3.48-44.07-5.22-66.11Z"/>
  <path class="cls-6" d="M709.92,327.75c1.74,22.04,3.51,44.07,5.22,66.11,2.23,28.67,4.43,57.35,6.64,86.02.38,4.97,1.06,9.94,1.11,14.92.14,12.51,4.34,23.4,12.33,32.92.02.83-.21,1.76.1,2.46,2.25,5.16.04,7.17-5,7.77-4.88.59-9.71,1.6-14.55,2.46-9.85,1.76-19.69,3.56-29.53,5.34.22-.96.39-1.94.67-2.89,8.63-29.87-15.95-58.27-46.85-54.62-32.2,3.8-64.47,6.98-96.7,10.49-11.57,1.26-23.25,2.03-34.64,4.26-15.03,2.94-24.64,13.03-30.74,26.71l-26.65,5.02c-.03-17.36-1.24-34.58-6.01-51.38-.91-3.2-1.81-6.4-2.92-9.54-3.75-10.66-7.23-21.43-11.46-31.89-12.39-30.64-36.09-49.03-66.24-60.24-1.54-.57-3.02-1.27-4.53-1.91,7.64-1.99,15.18-4.59,22.94-5.85,18.92-3.06,37.93-5.5,56.91-8.2,2.13-.3,4.25-.67,6.37-1,2.91,17.38,5.65,34.79,8.8,52.13,1.9,10.46,3.76,21.01,6.85,31.16,7.26,23.84,31.42,39.07,54.83,35.34,26.37-4.2,44.85-24.88,44.2-50.99-.33-13.4-2.74-26.75-4.23-40.13-.16-1.47-.43-2.94-.75-5.1,8.13-1.48,16.03-2.92,24.98-4.55,0,3.47-.06,6.37.01,9.28.2,7.99.08,16.01.77,23.96,2.44,27.93,26.62,49.18,53.89,47.66,28.52-1.59,50.27-24.47,49.81-52.91-.44-27.14-1.37-54.28-2.05-81.41-.05-2.15.13-4.3.21-6.46,7.1,1.5,14.19,3.02,21.29,4.48,1.6.33,3.26.4,4.9.58Z"/>
  <path class="cls-6" d="M815.11,500.74c-1.79-25.52-3.5-51.04-5.38-76.55-2.09-28.5-4.33-56.99-6.48-85.49-.07-.98.07-1.98.11-2.97,7.29-.66,14.58-1.33,21.88-1.99,1.61,11.68,3.32,23.35,4.82,35.05,4.61,35.99,9.15,72,13.68,108,.33,2.63.35,5.3.52,7.96-4.01,2.2-8.03,4.39-12.04,6.59-5.71,3.13-11.41,6.27-17.11,9.4Z"/>
  <path class="cls-21" d="M1143.13,229.72c-.3.38-.6.75-.89,1.13.3-.38.6-.75.89-1.13Z"/>
  <path class="cls-22" d="M477.98,529.7c6.1-13.68,15.71-23.77,30.74-26.71,11.39-2.23,23.07-2.99,34.64-4.26,32.23-3.52,64.5-6.69,96.7-10.49,30.89-3.65,55.47,24.75,46.85,54.62-.27.95-.45,1.92-.67,2.89-5.71,12.6-14.8,21.56-28.02,26.09-16.48,1.98-32.95,4.05-49.44,5.9-22.78,2.56-45.58,4.94-68.37,7.4-4.79.52-9.57,1.09-14.36,1.59-10.31,1.08-20.22-.16-29.49-5.12-4.69-4.67-10.11-8.81-13.91-14.11-8.27-11.54-8.16-24.57-4.67-37.81Z"/>
  <path class="cls-24" d="M931.43,517.72c5.08-14.39.68-28.66-.63-42.95-.52-5.63-1.25-11.24-1.89-16.86,6.62-4.07,13.11-8.36,19.89-12.16,8.95-5.02,18.15-9.6,27.2-14.45,6.15-3.3,12.09-7.01,18.36-10.05,6.39-3.09,12.97-5.84,19.64-8.25,9.51-3.43,18.99-7.41,28.84-9.35,14.22-2.81,28.74-4.32,43.18-5.81,11.2-1.15,22.49-1.91,33.74-1.91,10.41,0,20.88.81,31.21,2.13,4.18.53,7.92,4.08,12.14,4.97,6.91,1.46,14.05,1.87,21.09,2.73,1.47,3.59,3.3,7.08,4.33,10.79,1.9,6.85-2.02,11.9-9,12.22-5.33.24-9.54,2.86-12.71,6.84-4.08,5.11-9.28,6.77-15.59,7.28-11,.9-22.04,2.01-32.89,4.02-19.15,3.56-38.38,7.08-57.19,12.07-20.79,5.52-41.19,12.5-61.65,19.21-6.92,2.27-12.53,1.16-17.89-3.51-.99-.87-3.31-1.32-4.43-.77-7.84,3.81-14.49,9.23-20.33,15.73-3.41,3.79-7.45,7.01-10.88,10.78-2.22,2.45-4.5,5.2-5.59,8.23-1.66,4.62-4.21,7.78-8.95,9.08Z"/>
  <path class="cls-10" d="M658.22,571.84c13.22-4.53,22.31-13.49,28.02-26.09,9.84-1.78,19.68-3.58,29.53-5.34,4.84-.87,9.67-1.88,14.55-2.46,5.04-.61,7.25-2.61,5-7.77-.31-.7-.08-1.64-.1-2.46,12.76,12.44,27.85,17.18,45.27,13.07,17.95-4.23,31.33-19.41,33.92-37.71.11-.8.46-1.56.69-2.34,5.7-3.13,11.41-6.27,17.11-9.4,4.01-2.2,8.03-4.4,12.04-6.59,1.09,7.54,2.18,15.07,3.28,22.61,2.01,13.81,8.64,24.65,20.59,32.09.97.6,1.77,1.48,2.64,2.22-7.35,2.46-14.55,5.73-22.1,7.19-11.52,2.23-22.95,4.37-33.94,8.73-8.03,3.19-15.99-.22-23.91-1.54-5.05-.84-9.97-2.52-15.04-3.08-5.54-.61-10.84-.38-16.21,2.84-11.8,7.08-25.2,9.73-38.66,11.96-7.15,1.18-14.17,3.41-21.35,4.19-7.97.86-16.06.58-24.09.87-3.63.13-7.26.66-10.87.55-2.15-.06-4.27-1-6.4-1.54Z"/>
  <path class="cls-10" d="M477.98,529.7c-3.48,13.23-3.59,26.27,4.67,37.81,3.8,5.3,9.22,9.44,13.91,14.11-9.27,2.79-18.53,5.3-28.42,4.19-9.47-1.06-18.66.61-27.57,3.91,2.72-10.92,5.79-21.77,8.05-32.79,1.5-7.28,1.85-14.8,2.71-22.21,8.88-1.67,17.76-3.35,26.65-5.02Z"/>
  <path class="cls-10" d="M426.17,621.74c2.38-4.65,4.77-9.31,7.15-13.96.16-.02.33-.03.49-.08q12.26-3.6,20.53,7.5c-9.59,2.22-18.88,4.38-28.18,6.53Z"/>
  <path class="cls-10" d="M290.21,539.75c-5.61,16.8-27.44,32.71-45.01,32.87-5.19.05-9.79-1.28-13.68-4.88-10.46-9.68-20.96-19.33-35.28-23.15,1.69-.44,3.37-1.2,5.08-1.25,9.1-.25,18.21-.33,27.31-.47.66-.01,1.33-.08,1.99-.09,14.62-.34,29.24-.54,43.85-1.1,5.26-.2,10.49-1.26,15.73-1.93Z"/>
  <path class="cls-18" d="M1749.19,702.73l-.21.41c.08-.12.17-.25.25-.37,0,0-.04-.04-.04-.04Z"/>
  <path class="cls-15" d="M1616.18,697.75c-.32-.35-.64-.7-.95-1.05.32.35.64.7.95,1.05Z"/>
  <path class="cls-5" d="M527.19,938.65c-1.33.05-2.66.09-3.99.14,1.33-.05,2.66-.09,3.99-.14Z"/>
  <path class="cls-5" d="M521.21,938.86c-1-.05-2.01-.1-3.01-.14.33-.65.67-1.31,1-1.96v-.02c.68.71,1.34,1.41,2.01,2.12Z"/>
  <path class="cls-5" d="M519.2,936.76c-.14-.08-.28-.16-.43-.24.15.08.29.15.44.23,0,0-.01.01-.01.01Z"/>
  <path class="cls-8" d="M465.16,942.79c-.14-.16-.28-.32-.41-.49.17.13.33.27.5.4,0,0-.08.08-.08.08Z"/>
  <path class="cls-5" d="M1632.18,614.73c.14.14.28.28.43.42-.09-.03-.21-.02-.26-.08-.08-.1-.11-.23-.16-.35,0,0-.01.01-.01.01Z"/>
  <path class="cls-9" d="M565.45,746.82c4.92-7.58,9.23-15.56,17.6-20.33,2.69-1.54,4.15-5.11,6.49-7.43,2.14-2.12,3.93-2.17,3.61,1.68-4.22,4.5-8.91,8.66-12.58,13.58-11.38,15.26-20.03,32-23.84,50.77-1.63,8.04-1.82,16.39-2.52,24.61-.67,7.81-1.22,15.64-1.65,23.46-.09,1.7.65,3.43.82,5.16,1.54,15.11,7.33,28.96,12.58,42.99,1.48,3.96,2.79,7.99,4.18,11.99-10.62-7.42-12.82-18.89-14.92-30.53-1.93-10.73-4.28-21.38-6.44-32.07-.2-.97-.54-1.94-.54-2.91-.05-11.28-.77-22.62.22-33.8.61-6.88,3.66-13.61,6-20.27,2.34-6.63,5.14-13.1,7.79-19.62,1-2.45,2.12-4.86,3.19-7.28Z"/>
  <path class="cls-15" d="M646.13,784.39c2.06-.85,4.11-1.7,6.17-2.55-.9,2.66-1.81,5.32-2.71,7.98-.46-.09-.92-.19-1.38-.28l-2.07-5.15Z"/>
  <path class="cls-15" d="M604.64,789.75c.19,2,.39,4.01.58,6.01-.77,1.62-1.54,3.25-2.31,4.87-3.04-2.01-.32-3.92.15-5.83.42-1.71,1.04-3.37,1.58-5.05Z"/>
  <path class="cls-1" d="M593.42,727.93c-.22.41-.44.82-.65,1.24-.12-.11-.36-.28-.34-.32.2-.41.44-.79.67-1.19,0,0,.32.27.32.27Z"/>
  <polygon class="cls-11" points="688.21 751.77 688.48 751.52 688.17 751.73 688.21 751.77"/>
  <path class="cls-11" d="M1538.88,736.73c12.78.04,24.62.41,35.39,5.31,5.2,2.36,9.68,6.95,13.52,11.37,1.87,2.15,1.61,6.21,2.21,9.42.8,4.27,2.65,8.74,2,12.79-1.77,11.02-6.41,20.38-16.61,26.79-10.6,6.66-21.38,12.45-33.7,15.01-.93.19-1.91.14-2.82.19v-80.87ZM1545.02,812.76c1.81-.24,4.15.13,5.52-.84,8.73-6.22,20.03-7.66,27.68-16.22,5.91-6.62,9.11-14.47,9.52-22.32.71-13.87-9.52-26.2-23.19-29.76-5.57-1.45-11.7-.86-17.58-.87-.91,0-2.53,1.64-2.63,2.64-.87,8.22-2.08,16.48-1.98,24.71.17,13.58,1.23,27.15,1.95,40.72.02.46.33.91.72,1.94Z"/>
  <path class="cls-15" d="M1488.21,861.75c-.69-2.65-1.37-5.29-2.06-7.94,1.11-.37,2.22-.73,3.33-1.1,1.47,2.03,2.94,4.06,4.44,6.13.27-1.1.57-2.3.63-2.53,2.13.66,3.99,1.08,5.74,1.81,3.13,1.31,6.21,2.76,9.23,4.31.25.13-.14,1.49-.24,2.28-2.49.54-5.11.75-7.43,1.69-4.79,1.93-7.15-2.93-10.97-3.56-.92-.15-1.77-.72-2.66-1.09ZM1498.6,861.69c-.07-.24-.1-.63-.24-.68-.21-.07-.5.1-.76.17.1.33.19.66.29.99.24-.16.47-.31.71-.48Z"/>
  <path class="cls-8" d="M1562.67,864.76s.03.05.03.05c-3.14-1.03-5.72-.83-6.63,3.02l-.4.02s-.4-.06-.4-.06c.42-1.37.42-3.53,1.31-4,10.77-5.73,22.31-9.16,34.27-11.17.18.48.36.96.54,1.44-6.02,2.17-12.07,4.26-18.04,6.56-3.12,1.2-6.09,2.78-9.13,4.19,0,0,.04-.05.04-.05-.53,0-1.06,0-1.59,0Z"/>
  <path class="cls-1" d="M1495.19,714.75c.2.32.4.63.09.15.14.56.05.19-.05-.19,0,0-.05.04-.05.04Z"/>
  <path class="cls-15" d="M1510.16,865.73c-.31-.34-.62-.69-.94-1.03.31.34.62.69.94,1.03Z"/>
  <path class="cls-11" d="M1279.31,847.75c-.34-12.43-.69-24.87-1.04-37.76,3.38-1.03,6.6-.5,9.33,3.53,7.07,10.42,12.83,21.28,13.67,34.16-.78.37-1.56.74-2.34,1.11-.57-.3-1.14-.6-1.71-.9-1.22-12.43-5.22-23.58-14.68-32.32-.13,4.6.58,9.03.59,13.46.01,6.29-.49,12.58-.77,18.86,0,0-.08-.07-.08-.07-.99-.02-1.97-.04-2.96-.06Z"/>
  <path class="cls-1" d="M1298.91,848.78c.78-.37,1.56-.74,2.35-1.11,3.33,2.69,6.66,5.39,9.99,8.08-4.71,4.79-5.45,4.86-10.69.99-.55-2.65-1.1-5.31-1.65-7.96Z"/>
  <path class="cls-1" d="M1279.31,847.75c.99.02,1.97.04,2.96.06-.33,2.96-.66,5.92-.99,8.88-.3,2.62-.6,5.25-.91,7.87-.22-3.07-.44-6.14-.66-9.21l-1.28.02v13.51c-.58.04-1.16.08-1.74.12-.49-3.92-1.41-7.85-1.29-11.75.06-1.94,2.13-3.77,3.05-5.75.53-1.14.59-2.49.86-3.75Z"/>
  <path class="cls-1" d="M1327.16,861.75c-1.56.32-3.15,1.01-4.66.87-1.44-.13-2.8-1.11-4.2-1.72,2.26-2.17,4.52-4.35,6.79-6.52.56.29,1.12.58,1.68.87.13,2.17.26,4.34.39,6.5Z"/>
  <path class="cls-12" d="M1218.08,674.8v3.36c-.37,0-.75,0-1.12.01.1-1.13.21-2.26.31-3.4.27,0,.54.02.81.03Z"/>
  <path class="cls-15" d="M1274.98,873.94c-.3-1.11-.61-2.21-.91-3.32.3-.07.6-.14.91-.2.16,1.04.32,2.08.48,3.12-.16.13-.32.26-.48.4Z"/>
  <path class="cls-15" d="M1218.08,674.8c-.27,0-.54-.02-.81-.03-.02-1.01-.04-2.01-.06-3.02.37.03.74.06,1.11.08-.08.99-.16,1.97-.24,2.96Z"/>
  <path class="cls-15" d="M1215.03,677.76c-.26-.68-.51-1.37-.77-2.06.26.68.51,1.37.77,2.06Z"/>
  <path class="cls-1" d="M1192.24,749.73c-.24-.36-.48-.71-.72-1.07.22.38.43.75.65,1.13,0,0,.07-.06.07-.06Z"/>
  <path class="cls-1" d="M1191.24,760.73c-.14-.05-.28-.09-.41-.14.12.06.24.13.37.19,0,0,.05-.05.05-.05Z"/>
  <path class="cls-8" d="M1374.46,763.15c3.81,1.74,3.35,9.97-.68,17.84-.48-.06-.96-.12-1.44-.17.7-5.86,1.41-11.71,2.12-17.67Z"/>
  <path class="cls-15" d="M1455.35,795.7c.85.71,1.71,1.43,2.56,2.14-.92.64-1.84,1.27-2.76,1.91.07-1.35.13-2.7.2-4.05Z"/>
  <path class="cls-11" d="M1457.4,847.94c-.58.69-1.15,1.37-1.73,2.06-.31-.26-.63-.53-.94-.79.71-.62,1.42-1.24,2.12-1.86.17.21.35.41.54.6Z"/>
  <path class="cls-15" d="M1463.19,850.74c-.3,1.36-.6,2.71-.89,4.07-.03-.37-.06-.74-.09-1.12,0-.97-.02-1.95-.02-2.92.34-.01.67-.02,1.01-.04Z"/>
  <path class="cls-15" d="M1025.09,784.71c-.76,1.28-1.48,3.64-2.29,3.68-7.3.29-14.61.17-22.18.17,1.64-.67,3.19-1.3,4.74-1.93-.08-.45-.17-.9-.25-1.36-7.41,1.14-14.82,2.29-22.22,3.43-.28-.31-.56-.61-.84-.92,1.6-2.1,3.34-4.12,4.79-6.32,4.09-6.22,11.48-7.05,17.13-10.73.41-.35.82-.7,1.22-1.05l-.06.02c2.22-.41,4.48-.7,6.67-1.25,3.16-.79,6.1-.69,7.21,2.85,1.07,3.4,1.8,6.99,2.09,10.54.24,2.99,1.87,3.01,3.99,2.86Z"/>
  <path class="cls-12" d="M1025.09,784.71c-2.12.16-3.74.13-3.99-2.86-.29-3.55-1.02-7.14-2.09-10.54-1.11-3.54-4.05-3.64-7.21-2.85-2.19.55-4.44.84-6.67,1.25,3.23-4.32,12.92-6.67,16.57-3.33,1.71,1.57,2,4.94,2.43,7.58.58,3.54.66,7.16.96,10.75Z"/>
  <path class="cls-12" d="M1005.19,769.68c-.41.35-.81.7-1.22,1.05.41-.35.81-.7,1.22-1.05Z"/>
  <path class="cls-18" d="M478.2,941.75l-.39.43c.02-.09,0-.21.06-.25.09-.08.22-.11.34-.17,0,0,0,0,0,0Z"/>
  <path class="cls-7" d="M703.25,720.69c-.79.33-1.57.66-2.36.99-.06-.41-.12-.82-.18-1.23.83.1,1.66.21,2.5.31,0,0,.04-.07.04-.07Z"/>
  <polygon class="cls-7" points="722.5 718.3 722.79 718.16 722.76 718.49 722.5 718.3"/>
  <polygon class="cls-7" points="741.62 853.41 741.53 853.17 741.78 853.21 741.62 853.41"/>
  <path class="cls-7" d="M697.2,716.74c.1-.22.2-.45.3-.67-.1.23-.19.45-.29.68,0,0,0,0,0,0Z"/>
  <path class="cls-7" d="M811.13,890.68c-.33.33-.66.66-.98.99-1.74.63-3.79.88-5.17,1.98-3.24,2.58-5.55,2.2-7.27-1.68-3.4-7.68-4.43-8.32-12.95-7.84-.3,1.24-.62,2.59-.93,3.94-.37.12-.73.23-1.1.35-4.26-10.89-8.52-21.78-12.79-32.66-.64-8.21-1.39-16.42-1.89-24.65-1.15-18.8-4.99-37.35-4.05-56.38.54-10.92-1.11-21.94-1.72-32.92-.08-1.51.18-3.03,1.43-4.57.26,1.83.52,3.66,1,7.09,2.49-11.02,7.16-19.42,12.71-27.39.28-.35.55-.7.83-1.05,2.92-1.89,5.91-3.69,8.76-5.7,9.65-6.79,21.25-8.86,31.85-13.34.91-.38,2.36-.22,2.8-.85,5.44-7.65,13.76-6.66,21.52-7.42,1.25-.12,2.46-.65,3.59-1.62h-14.09c7.98-4.35,15.21-4.58,22.53-4.08,8.43.57,16.85,1.38,25.29,1.84,6.41.36,12.43.46,17.84,5.4,3.3,3.02,9.5,2.81,12.91,5.77,6.83,5.93,13.94,12.26,18.49,19.88,4,6.69,3.55,15.72,8.27,22.71.93,1.38.43,3.96.1,5.9-1.9,10.95-3.8,21.91-12.17,30.31-1.24,1.24-1.91,3.03-2.91,4.52-4.5,6.66-9.03,13.3-13.15,19.36,1.4,8.64,2.45,17.54,4.37,26.24,1.6,7.26.52,14.94,4.42,21.92,1.68,3,1.21,7.26,1.48,10.96.54,7.53-6.63,13.81-14.59,12.99-1.88-.19-3.79-.03-6.05-.03-.22-.54-.66-1.66-1.19-2.96-2.89,1.19-5.48,2.26-8.07,3.33-.25-.33-.49-.67-.74-1,.95-1.34,1.9-2.68,3.3-4.63-3.11-1.23-6.4-2.4-9.56-3.85-.87-.4-1.71-1.54-1.96-2.5-.62-2.38-.89-4.86-1.31-7.3-1.81-7.81-3.63-15.62-5.44-23.43-.43-1.85-.85-3.7-1.4-6.07-4.3,2.1-8.03,3.83-11.68,5.72-12.55,6.5-24.45,14.81-39.6,13.86-.45-.03-.92.28-2.32.75,1.53,3.81,3.03,7.54,4.53,11.27.37.72.75,1.44,1.12,2.16-.02.29,0,.57.05.85.39,3.07,1.25,6.18,1.03,9.21-.17,2.32-1.7,4.54-3.08,7.93,2.76,5.78-.6,9.92-12.82,13.02.24,1.22.48,2.44.73,3.66ZM834.25,784.83c2.46-.58,4.93-1.1,7.37-1.78,1.91-.53,3.77-1.8,5.65-1.79,4.09,0,15.7-6.8,17.59-10.36,1.24-2.35,2.91-4.64,4.89-6.39,6.49-5.72,13.34-11.14,13.88-20.74.08-1.48-.45-3.44-1.43-4.46-5.67-5.86-13.54-5.02-20.52-5.36-16.66-.8-32.24,4.28-47.5,10.58-4.73,1.95-5.61,5.09-4.8,9.48.63,3.39,1.51,6.77,1.76,10.2.53,7.28.84,14.58,1.01,21.88.1,4.14,2.66,7.57,5.91,6.64,5.7-1.62,10.85-5.18,16.23-7.93l-.03.03ZM841.86,785.25l-.24-.16-.04.24.28-.08Z"/>
  <path class="cls-11" d="M824.1,853.85c-1.5-3.73-3-7.46-4.53-11.27,1.4-.46,1.87-.78,2.32-.75,15.16.95,27.06-7.36,39.6-13.86,3.65-1.89,7.38-3.62,11.68-5.72.54,2.36.97,4.21,1.4,6.07,1.81,7.81,3.63,15.62,5.44,23.43-1.01.04-2.01.07-3.02.11-.27.02-.54,0-.8-.08-1.66-7.96-3.31-15.91-5.16-24.8-4.57,3.23-7.94,5.81-11.51,8.08-9.17,5.84-19.26,9.15-29.97,10.85-3.1.49-6.16,1.63-3.39,5.83-.3.69-.6,1.38-.9,2.08-.39.01-.78.02-1.17.04Z"/>
  <path class="cls-7" d="M1192.3,771.67c.19.18.39.35.58.53-.31-.06-.63-.12-.94-.18.12-.12.24-.23.36-.35Z"/>
  <path class="cls-7" d="M1556.06,867.83c.92-3.85,3.49-4.05,6.63-3.02-2.21,1.01-4.42,2.01-6.63,3.02Z"/>
  <path class="cls-7" d="M1562.67,864.76c.53,0,1.06,0,1.59,0-.53,0-1.06,0-1.59,0Z"/>
  <path class="cls-18" d="M1281.28,856.69c.33-2.96.66-5.92.99-8.88,0,0,.08.07.08.07,4.51.45,9.02.94,13.54,1.29.41.03.88-.84,1.32-1.29.57.3,1.14.6,1.71.9.55,2.65,1.1,5.31,1.65,7.96-2.08-.03-4.16-.09-6.24-.09-4.35,0-8.69.03-13.04.04Z"/>
  <path class="cls-18" d="M520.56,747.91c.02.09.04.18.06.28-.09-.02-.22-.02-.27-.08-.08-.1-.1-.24-.14-.36.12.05.24.1.36.16Z"/>
  <path class="cls-7" d="M1079.25,852.71c-.16-.1-.32-.21-.47-.31.08.01.2,0,.24.05.08.09.12.22.17.34,0,0,.06-.07.06-.07Z"/>
  <path class="cls-15" d="M1342.27,847.9c-.82-.49-1.63-.98-2.45-1.47.24-.4.59-1.17.71-1.13.88.25,1.72.66,2.57,1.01-.28.53-.56,1.06-.84,1.59Z"/>
  <path class="cls-15" d="M1341.12,851.83c-.33-.1-.66-.2-.99-.3.18-.36.35-.72.53-1.07.15.46.31.92.46,1.37Z"/>
  <path class="cls-8" d="M1356.32,850.61c-.22-.12-.44-.24-.65-.35.2-.15.4-.3.6-.45.04.27.06.53.06.8Z"/>
  <path class="cls-15" d="M826.16,851.73c-2.77-4.2.29-5.34,3.39-5.83,10.71-1.7,20.8-5.01,29.97-10.85,3.57-2.27,6.94-4.86,11.51-8.08,1.85,8.89,3.51,16.85,5.16,24.8-5.18.16-10.36.38-15.55.45-1.83.02-3.67-.4-5.51-.5-7.65-.44-15.29-.93-22.95-1.17-2-.06-4.02.76-6.03,1.18Z"/>
  <path class="cls-15" d="M824.1,853.85c.39-.01.78-.02,1.17-.04-.02.73-.03,1.46-.05,2.19-.37-.72-.75-1.44-1.12-2.16Z"/>
  <polygon class="cls-7" points="789.46 885.14 789.83 885.02 789.79 885.35 789.46 885.14"/>
  <path class="cls-15" d="M1182.18,850.7c1.01-.65,2.03-1.29,3.04-1.93-1.01.65-2.03,1.29-3.04,1.93Z"/>
  <path class="cls-6" d="M986.19,252.81c3.5,2.84,4.2,6.56,3.33,10.75-1.86,8.97-6.89,16.13-13.08,22.58-17.74,18.48-40.11,27.78-65.48,33.13-.88-8.13-1.72-15.82-2.55-23.51.87-.44,1.79-.79,2.59-1.32,14.11-9.23,27.82-19.17,42.44-27.49,10.27-5.85,21.79-9.5,32.75-14.13Z"/>
  <path class="cls-17" d="M986.19,252.81c-10.96,4.63-22.48,8.28-32.75,14.13-14.63,8.32-28.33,18.26-42.44,27.49-.81.53-1.73.89-2.59,1.32-1.67-12.31-3.34-24.61-5-36.92-.13-.99-.22-1.98-.32-2.97-1.27-12.44-3.74-10.11,9.3-13.43,19.31-4.92,38.82-5.98,57.9.8,5.71,2.03,10.63,6.32,15.91,9.58Z"/>
  <path class="cls-15" d="M1545.02,812.76c-.39-1.03-.69-1.48-.72-1.94-.71-13.57-1.78-27.14-1.95-40.72-.1-8.23,1.11-16.49,1.98-24.71.11-1,1.72-2.64,2.63-2.64,5.88.02,12.01-.58,17.58.87,13.67,3.56,23.9,15.89,23.19,29.76-.4,7.84-3.6,15.7-9.52,22.32-7.65,8.56-18.96,10-27.68,16.22-1.37.98-3.7.6-5.52.84Z"/>
  <path class="cls-7" d="M1498.6,861.69c-.23.16-.47.32-.71.47-.1-.33-.19-.66-.29-.99.26-.07.55-.24.76-.17.14.05.16.44.24.68Z"/>
  <path class="cls-15" d="M1297.21,847.88c-.44.45-.92,1.32-1.32,1.29-4.52-.35-9.03-.84-13.54-1.29.28-6.29.79-12.58.77-18.86,0-4.43-.72-8.86-.59-13.46,9.46,8.73,13.46,19.89,14.68,32.32Z"/>
  <path class="cls-1" d="M834.29,784.8c-5.38,2.75-10.53,6.31-16.23,7.93-3.25.92-5.81-2.5-5.91-6.64-.17-7.3-.48-14.6-1.01-21.88-.25-3.42-1.13-6.81-1.76-10.2-.82-4.39.07-7.52,4.8-9.48,15.25-6.3,30.84-11.39,47.5-10.58,6.98.34,14.84-.51,20.52,5.36.99,1.02,1.52,2.98,1.43,4.46-.53,9.6-7.38,15.02-13.88,20.74-1.98,1.74-3.65,4.04-4.89,6.39-1.89,3.56-13.49,10.37-17.59,10.36-1.88,0-3.74,1.26-5.65,1.79-2.43.68-4.91,1.19-7.37,1.78.51-.78.84-1.83,1.55-2.3,5.79-3.83,11.5-7.84,17.54-11.24,9.22-5.2,17.53-11.33,23.8-19.98,3.86-5.32,1.59-11.66-4.37-12.6-9.98-1.56-19.72-1-29.43,1.96-7.74,2.36-15.64,4.18-23.47,6.22-5.29,1.38-6.1,5.08-5.67,9.92.86,9.72,1.37,19.47,2.03,29.2.1,1.41.22,2.82.41,5.15,4.13-1.73,7.55-3.28,11.07-4.58,2.13-.79,4.39-1.2,6.59-1.78Z"/>
  <polygon class="cls-1" points="841.86 785.25 841.58 785.33 841.62 785.09 841.86 785.25"/>
  <path class="cls-15" d="M834.29,784.8c-2.2.58-4.47.99-6.59,1.78-3.51,1.31-6.94,2.85-11.07,4.58-.19-2.33-.31-3.74-.41-5.15-.66-9.74-1.16-19.48-2.03-29.2-.43-4.84.38-8.54,5.67-9.92,7.83-2.04,15.74-3.86,23.47-6.22,9.71-2.97,19.45-3.53,29.43-1.96,5.96.93,8.23,7.27,4.37,12.6-6.27,8.65-14.58,14.78-23.8,19.98-6.04,3.4-11.74,7.41-17.54,11.24-.71.47-1.04,1.52-1.55,2.3,0,0,.03-.03.03-.03Z"/>
</svg>